<?xml version="1.0" encoding="UTF-8"?>
<svg width="50" height="50" version="1.1" viewBox="0 0 52.917 52.917" xmlns="http://www.w3.org/2000/svg">
 <path transform="scale(.26458)" d="m99.908 0a99.908 99.908 0 0 0-99.908 99.908 99.908 99.908 0 0 0 99.908 99.908 99.908 99.908 0 0 0 99.908-99.908 99.908 99.908 0 0 0-99.908-99.908zm30.385 6.4805 0.70117 0.26367c0.15589 0.17511 0.54632 0.61207 1.1699 1.3125 0.62359 0.52532 1.0121 0.96424 1.168 1.3145h0.70313 0.46679c0.1559-0.17511 0.54633-0.43885 1.1699-0.78906 0.62359-0.35021 1.0121-0.52539 1.168-0.52539h0.70313c0.31179-0.17511 0.54527-0.26172 0.70117-0.26172v7.0918c0.15589 0 0.46785 0.17518 0.93555 0.52539 0.62359 0.17511 1.0905 0.35028 1.4023 0.52539 0.15589 0.35021 0.3109 0.612 0.4668 0.78711 0.31179 0.35021 0.54723 0.52539 0.70312 0.52539h0.93555c0.15589 0 0.54437 0.26179 1.168 0.78711l1.4043 0.78906h1.168c0.1559 0.35021 0.31285 1.2261 0.46875 2.627 0.3118 1.2257 0.54528 2.0997 0.70118 2.625v2.1016 1.5762l-4.9102-2.3633c-0.3118 0.17511-0.62375 0.52546-0.93555 1.0508-0.15589 0.52532-0.15589 0.96229 0 1.3125 0 0.35021 0.31196 1.0509 0.93555 2.1016 0.77949 1.0506 1.2464 1.6628 1.4023 1.8379v4.2031 3.9395c0 0.35021-0.23347 0.70057-0.70117 1.0508-0.31179 0.17509-0.54527 0.26367-0.70117 0.26367-0.15589 0-0.54633-0.17518-1.1699-0.52539-0.3118-0.17509-0.62375-0.43884-0.93555-0.78906-0.46769 0-1.3251 0.088579-2.5723 0.26367-1.2472 0.17509-2.0261 0.26172-2.3379 0.26172v3.9414c-0.4677 0-0.85813-0.17518-1.1699-0.52539l-2.3379-2.627c-0.46769 0.35021-0.85812 0.612-1.1699 0.78711-0.15589 0.17509-0.38937 0.26367-0.70117 0.26367-0.15589 0-0.31285 0.086626-0.46875 0.26172-0.3118 0-0.93375-0.35036-1.8691-1.0508-0.93539-0.70036-1.5593-1.226-1.8711-1.5762-0.15589-0.17511-0.31285-0.78725-0.46875-1.8379-0.15589-1.2257-0.31089-1.9265-0.46679-2.1016l-2.3379-2.627c-1.0913-1.4008-1.9487-2.2748-2.5723-2.625-0.1559-0.17511-0.54633-0.43885-1.1699-0.78906-0.46769-0.35021-0.85812-0.612-1.1699-0.78711-0.1559 0-0.85633-0.17518-2.1035-0.52539-1.2472-0.35021-2.1046-0.61396-2.5723-0.78906h-0.70313-0.4668c-0.15589 0.17511-0.62284 0.43885-1.4023 0.78906-0.62359 0.35021-1.014 0.52539-1.1699 0.52539-0.15589 0-0.54633-0.088566-1.1699-0.26367-0.6236-0.35021-0.93555-0.70057-0.93555-1.0508-0.46769 0.35021-1.3251 1.0509-2.5723 2.1016-1.2472 0.87553-2.0261 1.4877-2.3379 1.8379-0.31179 0.35021-1.0907 0.87575-2.3379 1.5762-1.2472 0.70042-2.028 1.0508-2.3398 1.0508-0.3118 0.1751-1.1692 0.52546-2.5723 1.0508-1.2472 0.35021-2.0261 0.52539-2.3379 0.52539-0.15589 0.1751-0.54632 0.43885-1.1699 0.78906-0.62359 0.35021-1.0121 0.52539-1.168 0.52539-0.15589 0.1751-0.9348 0.26172-2.3379 0.26172-1.2472-0.1751-2.028-0.26172-2.3398-0.26172-0.15589 0-0.54437 0.17518-1.168 0.52539-0.4677 0.35021-0.85813 0.52539-1.1699 0.52539 0 0.17509-0.23348 0.5235-0.70117 1.0488-0.3118 0.35021-0.54527 0.52539-0.70117 0.52539 0 0.17512-0.31196 0.43886-0.93555 0.78906-0.62359 0.35021-1.014 0.52539-1.1699 0.52539-0.46769 0.35021-1.482 1.0509-3.041 2.1016-1.4031 1.0506-2.4155 1.7513-3.0391 2.1016 0 0.17509-0.54543 0.61206-1.6367 1.3125-0.93539 0.70042-1.5593 1.0508-1.8711 1.0508-0.3118 0.35021-0.70222 0.70057-1.1699 1.0508-0.46769 0.35021-0.85617 0.52539-1.168 0.52539-0.15589 0.17509-0.31284 0.26172-0.46875 0.26172h-0.70117-0.70117c-0.15589 0-0.38937-0.086626-0.70117-0.26172l-0.46875-0.52539c-0.3118-0.35021-0.4668-0.70057-0.4668-1.0508v-1.0508-1.3125c0.15589-0.17509 0.31089-0.78919 0.4668-1.8398 0.3118-1.2257 0.46875-2.0131 0.46875-2.3633v-0.52539-0.78906c0-0.52532-0.15695-1.2241-0.46875-2.0996-0.1559-1.0506-0.3109-1.6647-0.4668-1.8398l-1.6367-1.8379c-0.93539-1.2257-1.5593-2.015-1.8711-2.3652-0.1559-0.35021-0.46785-0.78718-0.93555-1.3125-0.3118-0.52532-0.46875-0.96229-0.46875-1.3125 0.3118-0.17511 0.54723-0.35028 0.70312-0.52539l0.70117-0.78906h0.4668 0.46875c0.15589 0.17511 0.31089 0.35028 0.4668 0.52539 0.15589 0 0.31285 0.088566 0.46875 0.26367l0.4668 0.52539c0 0.35021 0.15695 0.87575 0.46875 1.5762 0.3118 0.70042 0.54527 1.0488 0.70117 1.0488 0.3118 0.35021 0.70027 0.35021 1.168 0 0.62359-0.35021 1.014-0.52344 1.1699-0.52344v-7.0918c0.3118 0.17511 0.70222 0.61207 1.1699 1.3125 0.46769 0.70042 0.85617 1.1374 1.168 1.3125h1.8711 1.6367c0.3118 0 0.54723-0.17518 0.70312-0.52539 0.3118-0.35021 0.4668-0.612 0.4668-0.78711 0.3118-0.52532 0.54527-1.663 0.70117-3.4141 0.3118-1.7511 0.46875-2.8021 0.46875-3.1523 0.3118 0.35021 0.85723 0.78718 1.6367 1.3125 0.93539 0.52532 1.5593 0.96424 1.8711 1.3145h0.70117 0.70117c0.15589-0.35021 0.85828-0.96431 2.1055-1.8398 1.2472-1.0506 2.1046-1.838 2.5723-2.3633l1.168-1.3125c0.1559-0.17511 0.38938-0.61403 0.70117-1.3145 0.3118-0.70042 0.46875-1.1374 0.46875-1.3125l3.0391 3.9395v-8.668c1.0913 0.17511 2.1056 0.26367 3.041 0.26367 0.77949 0.17511 1.5584 0.26172 2.3379 0.26172 0.93539 0 1.7143 0.088566 2.3379 0.26367 0.15589 0 0.23438 0.086613 0.23438 0.26172 0 0.35021 0.078482 0.52539 0.23438 0.52539l0.4668 0.52539h1.1699c0.77949-0.17511 1.2464-0.17511 1.4023 0 0.15589 0.1751 0.31285 0.87582 0.46875 2.1016 0.3118 1.0506 0.54528 1.7514 0.70117 2.1016 0.1559 0.1751 0.31285 0.61207 0.46875 1.3125 0.3118 0.52532 0.54528 0.87568 0.70118 1.0508l1.4023 1.5762h0.23437 0.70118c0.46769-0.35021 1.0131-1.2261 1.6367-2.627 0.62359-1.4008 0.93554-2.3634 0.93554-2.8887 0-0.35021-0.39043-0.78913-1.1699-1.3145-0.77949-0.70042-1.2464-1.1374-1.4023-1.3125l-0.4668-1.3125c-0.15589-0.35021-0.23438-0.78913-0.23438-1.3145h12.627c0.15589 0.35021 0.31284 1.0509 0.46875 2.1016 0.31179 0.87553 0.54527 1.4877 0.70117 1.8379 0.3118 0.35021 0.70222 1.0509 1.1699 2.1016 0.62359 1.0506 1.0906 1.6647 1.4023 1.8398h0.4668 0.46875c-0.15589-0.35021-0.07741-1.2261 0.23438-2.627 0.46769-1.4008 0.85617-2.2767 1.168-2.627 0.15589-0.17511 0.85827-0.35028 2.1055-0.52539 1.4031-0.35021 2.2605-0.612 2.5723-0.78711 0-0.17511 0.155-0.61403 0.4668-1.3145 0.31179-0.70042 0.54527-1.1374 0.70117-1.3125l0.46875-0.26367zm-0.46875 5.5156-0.23242 0.52539 0.23242 0.78906c0 0.1751 0.15695 0.4369 0.46875 0.78711 0.31179 0.35021 0.54527 0.61396 0.70117 0.78906v-0.78906-0.78711c-0.4677-0.87553-0.85813-1.3145-1.1699-1.3145zm-34.842 3.6777v1.5762c0.15589 0.70042 0.23242 1.226 0.23242 1.5762 0.15589 0.1751 0.39132 0.35028 0.70312 0.52539 0.3118 0.17511 0.54527 0.35028 0.70117 0.52539h0.4668 0.70117c0.15589-0.1751 0.31285-0.35028 0.46875-0.52539 0.3118-0.1751 0.4668-0.35028 0.4668-0.52539 0-0.35021-0.31196-0.87575-0.93555-1.5762-0.46769-0.70042-0.85617-1.1374-1.168-1.3125 0-0.17511-0.23348-0.26367-0.70117-0.26367h-0.93555zm10.055 5.7793c-0.77949 0-1.1699 0.43697-1.1699 1.3125s0.39043 1.3145 1.1699 1.3145c0.4677 0 0.70117-0.43892 0.70117-1.3145s-0.23347-1.3125-0.70117-1.3125zm32.779 1.1406c-0.1827 0.02736-0.27344 0.2595-0.27344 0.69727 0 0.52532 0.23348 0.78906 0.70117 0.78906 0.77949-0.87553 0.77949-1.3145 0-1.3145-0.17538-0.13133-0.31812-0.18829-0.42773-0.17188zm-85.629 2.5352 0.70117 0.26367c0.3118 0.17511 0.70223 0.61208 1.1699 1.3125 0.62359 0.52532 0.93555 0.87568 0.93555 1.0508v2.8906l1.4023 1.0488v1.5762 1.0508c-0.15589 0.35021-0.38937 0.70057-0.70117 1.0508-0.3118 0.35021-0.54527 0.52539-0.70117 0.52539-0.15589 0.1751-0.6248 0.1751-1.4043 0-0.77949-0.35021-1.3249-0.52539-1.6367-0.52539 0 0.52532-0.076529 1.7516-0.23242 3.6777-0.15589 1.9262-0.15589 3.0639 0 3.4141 0 0.35021 0.076529 0.87575 0.23242 1.5762 0.3118 0.70043 0.62375 1.1393 0.93555 1.3145 0.15589 0 0.31285-0.17518 0.46875-0.52539 0.3118-0.35021 0.54527-0.70056 0.70117-1.0508 0.15589-0.35021 0.46784-0.96431 0.93555-1.8398 0.62359-1.0506 1.0905-1.7513 1.4023-2.1016-0.3118 0.52532-0.3118 1.4898 0 2.8906 0.4677 1.4009 0.85813 2.2767 1.1699 2.627 0.3118 0.17509 0.85723 0.5235 1.6367 1.0488 0.93539 0.35021 1.5593 0.52539 1.8711 0.52539v7.6172l-1.4043 1.3145c-0.15589 0-0.38937-0.17518-0.70117-0.52539-0.15589-0.35021-0.23242-0.61396-0.23242-0.78906-0.15589-0.35021-0.39132-1.049-0.70312-2.0996-0.3118-1.0506-0.4668-1.7513-0.4668-2.1016-0.15589-0.17509-0.38937-0.35027-0.70117-0.52539-0.15589-0.17509-0.31285-0.35027-0.46875-0.52539-0.15589 0-0.31089 0.086626-0.4668 0.26172h-0.23438-0.4668c0 0.17509-0.078482 0.52545-0.23438 1.0508v1.3145c0 0.35021 0.23348 1.049 0.70117 2.0996 0.4677 0.87553 0.70117 1.4896 0.70117 1.8398-0.15589 0.17509-0.31089 0.26172-0.4668 0.26172-0.15589 0-0.38937 0.088579-0.70117 0.26367-0.3118 0.17509-0.70223 0.35027-1.1699 0.52539-0.3118 0.35021-0.62375 1.1375-0.93555 2.3633-0.15589 1.0506-0.23438 1.6628-0.23438 1.8379-0.3118 0.35021-0.77875 1.2261-1.4023 2.627-0.46769 1.4009-0.77965 2.2767-0.93555 2.627l-1.4023 1.5762c-0.3118 0.17509-0.7807 0.17509-1.4043 0-0.62359-0.35021-1.0905-0.52539-1.4023-0.52539v6.041h-0.70117c-0.62359 0-0.93555-0.086625-0.93555-0.26172-0.3118-0.17509-1.0142-0.61402-2.1055-1.3145-0.93539-0.70042-1.4808-1.1374-1.6367-1.3125-0.15589 0-0.23438 0.086626-0.23438 0.26172h-0.23242-0.46875c0 0.17509-0.078482 0.35027-0.23438 0.52539-0.15589 0.17509-0.15589 0.35027 0 0.52539 0.15589 0.35021 0.46784 1.2261 0.93555 2.627 0.62359 1.2257 1.0925 2.1016 1.4043 2.627 0 0.35021-0.15695 0.70057-0.46875 1.0508-0.3118 0.17509-0.54527 0.26172-0.70117 0.26172-0.15589 0-0.70132-0.17518-1.6367-0.52539-0.93539-0.35021-1.5593-0.612-1.8711-0.78711-0.15589 0-0.38937 0.086626-0.70117 0.26172h-0.70117v0.52539c0.15589 0.17509 0.23438 0.35027 0.23438 0.52539-0.15589 0.35021-0.46784 1.0509-0.93555 2.1016-0.3118 1.0506-0.46875 1.7513-0.46875 2.1016v0.52539 0.52539c0 0.17509 0.23348 0.43688 0.70117 0.78711 0.4677 0.35021 0.70312 0.61396 0.70312 0.78906v1.8379 2.1016c-0.15588 0.35024-0.46784 1.4879-0.93555 3.4141-0.3118 1.7511-0.46875 2.8021-0.46875 3.1523v5.5156c0 0.17509-0.155 0.78724-0.4668 1.8379-0.3118 1.0506-0.46875 1.7514-0.46875 2.1016-0.1559 0.35022-0.38938 1.7516-0.70117 4.2031-0.3118 2.2764-0.54527 3.9396-0.70117 4.9902v0.78907 0.52539l4.9102-2.3652 0.93555 2.3652-0.93555 0.52539c-0.15589 0.17509-0.31089 0.26172-0.4668 0.26172l-0.23438 0.26172c-0.15589 0.17509-0.31089 0.26367-0.4668 0.26367-0.15589 0-0.46784 0.17518-0.93555 0.52539-0.3118 0.17509-0.46875 0.43688-0.46875 0.78711v0.52539 0.52539c0.1559 0.17509 0.23438 0.35027 0.23438 0.52539h2.5723c-0.15589 0.17509-0.23438 0.35027-0.23438 0.52539v0.52539c-0.15589 0.17509-0.38937 0.61402-0.70117 1.3144-0.3118 0.70043-0.46875 1.224-0.46875 1.5742-0.15589 0-0.23242 0.08858-0.23242 0.26367v0.52539l0.23242 0.26172c0.15589 0.1751 0.54632 0.43884 1.1699 0.78907 0.6236 0.35021 0.93555 0.612 0.93555 0.7871s-0.155 0.61402-0.4668 1.3145c-0.3118 0.52532-0.46875 0.96229-0.46875 1.3125v0.52539 0.78711c0 0.17509 0.15695 0.43884 0.46875 0.78906 0.3118 0.35021 0.4668 0.612 0.4668 0.78711 0-0.35021 0.15695-0.70057 0.46875-1.0508 0.46769-0.35021 0.7777-0.52539 0.93359-0.52539h0.23438 0.23438c0-0.17509 0.078482-0.26172 0.23438-0.26172s0.31089 0.08663 0.4668 0.26172c0.15589 0.17509 0.31285 0.61401 0.46875 1.3144 0.3118 0.52532 0.54527 0.96229 0.70117 1.3125 0 0.17509 0.076529 0.43884 0.23242 0.78906 0.3118 0.35022 0.62375 0.52539 0.93555 0.52539 0.15589 0 0.46784 0.17518 0.93555 0.5254 0.62359 0.35021 1.0925 0.70057 1.4043 1.0508 0.15589 0 0.54437 0.52357 1.168 1.5742 0.62359 1.0506 1.0925 1.7513 1.4043 2.1016 0 0.17509 0.076529 0.61401 0.23242 1.3144 0.3118 0.70043 0.54723 1.1374 0.70313 1.3125 0 0.35022 0.155 0.70057 0.4668 1.0508 0.3118 0.17509 0.62375 0.26367 0.93555 0.26367 0-0.17509 0.078482-0.61401 0.23438-1.3144 0.3118-0.70042 0.62375-1.1374 0.93555-1.3125h0.4668 0.70117l1.1699 1.3125c0.3118 0.35022 0.62375 0.78914 0.93555 1.3144v3.9395c0 0.35021 0.155 0.70057 0.4668 1.0508 0.3118 0.17509 0.62375 0.26172 0.93555 0.26172 0-0.35021 0.15695-0.78718 0.46875-1.3125s0.54527-0.96425 0.70117-1.3145h0.70117 0.46875c0.3118 0.35021 1.4027 1.1395 3.2734 2.3652 2.0267 1.0506 3.196 1.6628 3.5078 1.8379 0.3118 0.17509 0.9357 0.43688 1.8711 0.78711 0.93539 0.17509 1.5573 0.26367 1.8691 0.26367 0.15589 0 0.39132 0.08663 0.70313 0.26172h1.168 1.1699c0.15589 0 0.31089-0.08663 0.4668-0.26172 0.3118 0 0.9357-0.08858 1.8711-0.26367 0.93539-0.35022 1.4808-0.61201 1.6367-0.78711h2.3398 1.4023c0.3118 0.17509 0.85723 0.87581 1.6367 2.1016 0.93539 1.0506 1.5593 1.6628 1.8711 1.8379l0.70117 0.26367c0.15589 0 0.31284-0.08858 0.46875-0.26367 0.3118-0.17509 0.93375-0.61206 1.8691-1.3125 0.93539-0.70042 1.5593-1.226 1.8711-1.5762 0.3118-0.17509 0.85723-0.35027 1.6367-0.52539 0.93539-0.35021 1.5593-0.52539 1.8711-0.52539 0.15589 0 0.70132 0.17518 1.6367 0.52539 0.93539 0.35021 1.4808 0.52539 1.6367 0.52539 0.3118 0.17509 1.0927 0.26172 2.3398 0.26172 1.4031-0.17509 2.2605-0.26172 2.5723-0.26172 0.3118 0.17509 0.70028 0.70063 1.168 1.5762 0.6236 0.87553 1.014 1.3125 1.1699 1.3125 0.3118 0.35021 0.85723 0.61396 1.6367 0.78906 0.93539 0.1751 1.5593 0.26172 1.8711 0.26172h1.4023 1.1699c0.4677-0.17509 0.85813-0.35027 1.1699-0.52539 0.6236-0.35021 1.0121-0.52539 1.168-0.52539h1.8711 1.6367c0.3118 0.17509 0.70223 0.70063 1.1699 1.5762 0.46769 0.70043 0.85812 1.0508 1.1699 1.0508 0.46769 0.35021 1.3251 0.35021 2.5723 0 1.4031-0.52532 2.2605-0.78711 2.5723-0.78711 0-0.52532-0.07848-1.3146-0.23438-2.3652-0.15589-1.0506-0.15589-1.838 0-2.3633 0-0.17509 0.07849-0.35027 0.23438-0.52539l0.23242-0.26172c0.15589 0 0.31285-0.08858 0.46875-0.26367 0.3118-0.17509 0.77875-0.43688 1.4024-0.78711 0.62359-0.52532 1.014-0.78906 1.1699-0.78906h1.4023 2.5723 2.5723 1.6367c0.15589 0 0.6248-0.08663 1.4043-0.26172 0.93539-0.35021 1.8712-0.61396 2.8066-0.78906 0.93539-0.35022 1.7928-0.70057 2.5723-1.0508 0.7795-0.35021 1.3249-0.52539 1.6367-0.52539h1.168 2.1055 2.3379 1.4043c0.46769-0.17509 0.85617-0.35027 1.168-0.52539 0.31179-0.17509 0.54527-0.35027 0.70117-0.52539 0.15589-0.17509 0.31285-0.26172 0.46875-0.26172 0.31179 0 1.0907 0.08663 2.3379 0.26172 1.2472 0 2.0261-0.08662 2.3379-0.26172 0.15589 0 0.54632-0.35035 1.1699-1.0508 0.62359-0.87553 1.0906-1.4011 1.4024-1.5762 0.31179-0.17509 1.4811-0.52545 3.5078-1.0508 2.0267-0.70043 3.508-1.226 4.4434-1.5762h0.70117 0.70312c0.1559 0 0.38938 0.17518 0.70118 0.52539 0.31179 0.35021 0.46679 0.61396 0.46679 0.78906 0 0.35021 0.07849 1.5745 0.23438 3.6758 0.31179 1.9262 0.54527 3.3276 0.70117 4.2031v1.5762c0.15589 0.52532 0.23438 0.87567 0.23438 1.0508h-3.7422c0 0.70042-0.155 1.8381-0.4668 3.4141-0.15589 1.576-0.46784 3.2392-0.93555 4.9902-0.31179 1.576-0.70222 3.1526-1.1699 4.7285-0.3118 1.4008-0.62375 2.3634-0.93554 2.8887-0.3118 0.52532-0.85723 1.3146-1.6367 2.3652-0.7795 1.0506-1.7154 2.1883-2.8066 3.4141-0.93539 1.2257-1.8693 2.3634-2.8047 3.4141-0.93539 0.87554-1.6378 1.4011-2.1055 1.5762-0.3118-0.1751-1.0907-0.35027-2.3379-0.52539-1.2472-0.35022-2.0261-0.61201-2.3379-0.78711h-2.8066-1.8711c-0.46769 0.17509-1.3251 0.61206-2.5723 1.3125-1.0913 0.52531-2.2606 1.1394-3.5078 1.8398-1.2472 0.70042-2.4165 1.3992-3.5078 2.0996-1.0913 0.70042-1.8702 1.1394-2.3379 1.3144 0-0.52532-0.15695-1.663-0.46875-3.4141-0.15589-1.7511-0.38937-2.8021-0.70117-3.1523-0.15589-0.35022-0.70132-0.61396-1.6367-0.78907-0.93539-0.17509-1.5593-0.35027-1.8711-0.52539-0.15589 0-0.46785-0.17517-0.93555-0.52539-0.31179-0.52532-0.4668-0.87567-0.4668-1.0508-0.15589 0-0.54632-0.08663-1.1699-0.26172-0.46769-0.35021-0.77965-0.612-0.93554-0.78711h-0.70118-0.70117c-0.15589 0.1751-0.31285 0.26172-0.46875 0.26172l-0.23242 0.26172c-0.15589 0.17509-0.23438 0.35027-0.23438 0.52539-0.15589 0.35021-0.23437 1.0509-0.23437 2.1016s0.07848 1.7514 0.23437 2.1016c-0.15589 0-0.46784-0.17518-0.93554-0.52539-0.3118-0.35022-0.46875-0.61201-0.46875-0.78711-0.15589-0.35022-0.38937-0.96432-0.70117-1.8398-0.3118-1.0506-0.4668-1.7494-0.4668-2.0996-0.46769-0.87553-0.85812-1.3144-1.1699-1.3144l-4.6758 2.3633v8.9316c-0.3118 0-0.70223 0.08663-1.1699 0.26172-0.46769 0.17509-0.85812 0.26367-1.1699 0.26367-0.15589 0.17509-0.38937 0.61206-0.70117 1.3125-0.3118 0.70043-0.54527 1.1394-0.70117 1.3144-0.3118 0.52532-0.9357 1.3126-1.8711 2.3633-0.77949 1.0506-1.3249 1.6628-1.6367 1.8379-0.3118 0.17509-1.3261 0.61401-3.041 1.3144-1.559 0.70042-2.4929 1.0508-2.8047 1.0508l-1.4043 1.5742h-0.23242-0.70312c-0.4677-0.17509-1.1681-0.43688-2.1035-0.78711-0.77949-0.35021-1.2484-0.612-1.4043-0.78711-0.3118 0-0.77875-0.35036-1.4023-1.0508-0.62359-0.70042-0.93555-1.1394-0.93555-1.3144-0.15589-0.35021-0.38937-1.0509-0.70117-2.1016-0.3118-1.0506-0.54527-1.7494-0.70117-2.0996l-2.1055 1.5762c0-0.52532-0.23348-1.4898-0.70117-2.8906-0.3118-1.2257-0.54527-2.1016-0.70117-2.627-0.15589-0.35021-0.54632-1.049-1.1699-2.0996-0.46769-0.87553-0.85617-1.4896-1.168-1.8398 0 0.17509-0.15695 0.43883-0.46875 0.78906-0.3118 0.35021-0.54527 0.52539-0.70117 0.52539-0.15589 0.17509-0.54632 0.43688-1.1699 0.78711-0.62359 0.52531-1.0121 0.78906-1.168 0.78906-0.3118 0-0.7807 0.3484-1.4043 1.0488-0.46769 0.70042-0.85617 1.1393-1.168 1.3144l-2.3398-2.3633c-0.15589 0.17509-0.54437 0.61206-1.168 1.3125-0.46769 0.70043-0.85812 1.0508-1.1699 1.0508l-0.4668 0.26172-0.70312-0.26172c-0.4677-0.17509-1.3251-0.61401-2.5723-1.3144-1.0913-0.70043-1.7917-1.0488-2.1035-1.0488-0.15589 0-0.38937-0.43892-0.70117-1.3144-0.15589-0.87553-0.31284-1.4011-0.46875-1.5762-0.46769-0.87553-0.93465-1.3125-1.4023-1.3125-0.3118 0.35021-0.62375 0.612-0.93555 0.78711-0.15589 0.17509-0.38937 0.26367-0.70117 0.26367-0.15589 0-0.31284 0.08662-0.46875 0.26172 0 0.17509-0.078482 0.26367-0.23438 0.26367h-0.4668-0.4668c-0.15589 0-0.23438-0.08858-0.23438-0.26367-0.15589-0.35022-0.70132-1.0509-1.6367-2.1016-0.77949-1.2257-1.3249-1.9264-1.6367-2.1016-0.15589 0-0.54632 0.26374-1.1699 0.78906-0.62359 0.52532-1.014 0.78711-1.1699 0.78711h-1.4023-0.93555c-0.4677 0-1.3251-0.17517-2.5723-0.52539-1.2472-0.52532-2.0261-0.87567-2.3379-1.0508-0.3118-0.17509-0.93571-0.5235-1.8711-1.0488-0.93539-0.70042-1.4808-1.1394-1.6367-1.3144-0.15589-0.17509-0.31285-0.52545-0.46875-1.0508 0-0.70043-0.078482-1.4011-0.23438-2.1016 0-0.87554-0.076529-1.6629-0.23242-2.3633v-1.3125c-0.3118-0.52531-1.0927-1.665-2.3398-3.416-1.2472-1.7511-2.1046-2.8002-2.5723-3.1504-0.15589 0.17509-0.46589 0.43688-0.93359 0.78711-0.3118 0.17509-0.46875 0.35027-0.46875 0.52539 0 0.17509-0.31195 0.78724-0.93555 1.8379-0.62359 1.0506-1.014 1.7514-1.1699 2.1016 0 0.17509-0.076531 0.26367-0.23242 0.26367h-0.46875-0.4668c-0.1559 0-0.23438-0.08858-0.23438-0.26367-0.1559-0.17509-0.70133-0.61206-1.6367-1.3125-0.93539-0.70042-1.4808-1.1394-1.6367-1.3144-0.3118 0-0.9357-0.17518-1.8711-0.52539-0.93539-0.35019-1.4808-0.61201-1.6367-0.78711-0.1559-0.17511-0.46785-1.051-0.93555-2.627-0.3118-1.7511-0.4668-3.0639-0.4668-3.9395-0.1559-0.35021-0.23438-0.70057-0.23438-1.0508v-1.5762-1.5762c0.1559-0.70043 0.23438-1.1374 0.23438-1.3125s0.155-0.43884 0.4668-0.78907c0.4677-0.35021 0.77965-0.52539 0.93555-0.52539h-2.5723l-2.3379-9.1914h-1.4043c0.1559 0.52532 0.077421 1.4878-0.23438 2.8887-0.1559 1.2257-0.38937 2.0131-0.70117 2.3633-0.1559 0.17509-0.46785 0.35027-0.93555 0.52539h-0.93555-0.93359c-0.3118-0.17511-0.54723-0.35028-0.70312-0.52539-0.1559-0.70042-0.38938-2.1885-0.70117-4.4648-0.3118-2.4515-0.54527-4.0281-0.70117-4.7285-0.1559-0.52532-0.38938-1.4878-0.70117-2.8887-0.1559-1.4008-0.31285-2.1882-0.46875-2.3633 0-0.35022-0.31195-0.61396-0.93555-0.78906-0.62359-0.35022-1.0905-0.52539-1.4023-0.5254v-17.334c-0.3118-0.17511-0.77875-0.61403-1.4023-1.3144-0.4677-0.70043-0.77965-1.226-0.93555-1.5762 0-0.1751-0.078477-0.61207-0.23437-1.3125v-1.5762-2.1016c0.1559-0.87553 0.23437-1.4011 0.23437-1.5762 0-0.35021 0.155-1.2261 0.4668-2.627 0.4677-1.576 0.77965-2.3633 0.93555-2.3633 0-0.35021 0.078477-1.4879 0.23438-3.4141 0.3118-2.1013 0.54527-3.3275 0.70117-3.6777 0-0.17509 0.078477-0.35027 0.23438-0.52539l0.23242-0.26172c0-0.17509 0.078477-0.35027 0.23438-0.52539l0.46875-1.0508c0.1559-0.35021 0.38938-1.2261 0.70117-2.627 0.3118-1.576 0.4668-2.5385 0.4668-2.8887 0-0.17509 0.078477-0.61402 0.23438-1.3145 0.1559-0.87553 0.23438-1.7514 0.23438-2.627 0.1559-0.87553 0.3109-1.6629 0.4668-2.3633 0.1559-0.87553 0.23438-1.4011 0.23438-1.5762 0.1559-0.52532 0.38938-1.4878 0.70117-2.8887 0.3118-1.4008 0.54527-2.2767 0.70117-2.627 0.1559 0 0.31285-0.26179 0.46875-0.78711 0.3118-0.70042 0.4668-1.226 0.4668-1.5762 0.1559-0.35021 0.54633-1.0509 1.1699-2.1016 0.77949-1.0506 1.2464-1.7513 1.4023-2.1016 0-0.17509 0.15695-0.78724 0.46875-1.8379 0.3118-1.0506 0.4668-1.7513 0.4668-2.1016 0.3118-0.17509 0.54527-0.35027 0.70117-0.52539l0.70312-0.78906c0-0.17509 0.155-0.61206 0.4668-1.3125 0.3118-0.70042 0.54527-1.1374 0.70117-1.3125 0.1559-0.70042 0.85828-1.8401 2.1055-3.416 1.4031-1.7511 2.2605-2.8002 2.5723-3.1504l0.4668 0.52344c0.1559 0.17509 0.39133 0.35027 0.70312 0.52539 0.3118 0.17509 0.54527 0.26367 0.70117 0.26367h0.70117 0.4668c0.1559 0 0.31285-0.088579 0.46875-0.26367 0.3118-0.17509 0.70027-0.78724 1.168-1.8379 0.62359-1.0506 1.014-1.7513 1.1699-2.1016 0.1559-0.17509 0.54633-0.35027 1.1699-0.52539 0.77949-0.35021 1.2464-0.612 1.4023-0.78711 0.15589-0.17509 0.46784-0.61401 0.93555-1.3145 0.62359-0.87553 1.0905-1.3991 1.4023-1.5742 0.15589 0 0.54632 0.086626 1.1699 0.26172 0.62359 0 1.014-0.086626 1.1699-0.26172 0.3118 0 0.54527-0.52553 0.70117-1.5762 0.3118-1.2257 0.4668-2.015 0.4668-2.3652 0.77949 0.1751 2.0273-7.3e-5 3.7422-0.52539 1.7149-0.70042 2.8842-1.4011 3.5078-2.1016 0.3118-0.35021 0.62375-1.3127 0.93555-2.8887 0.3118-1.7511 0.39028-2.8887 0.23438-3.4141l0.4668-0.26367zm86.992 5.5176c-0.4677 0-0.70313 0.43697-0.70313 1.3125 0 0.87553 0.23543 1.3125 0.70313 1.3125 0.77949 0 1.168-0.43697 1.168-1.3125 0-0.87553-0.38848-1.3125-1.168-1.3125zm-111.08 64.088c-0.1559 0-0.46785 0.52553-0.93555 1.5762-0.3118 1.0506-0.4668 1.7514-0.4668 2.1016v0.78711 0.52539c0 0.17509 0.155 0.43884 0.4668 0.78906 0.4677 0.35022 0.77965 0.61201 0.93555 0.78711h0.23438 0.70117l0.70117-0.78711c0.1559-0.17509 0.31285-0.43883 0.46875-0.78906l-2.1055-4.9902zm68.518 60.674v1.5762h1.168l-1.168-1.5762zm-7.4551 2.8398c-0.17538 0.03283-0.26172 0.31258-0.26172 0.83789s0.155 0.70049 0.4668 0.52539c0.46769-0.17509 0.70117-0.35027 0.70117-0.52539 1e-6 -0.35022-0.23348-0.61201-0.70117-0.78711-0.077949-0.04378-0.14662-0.06173-0.20508-0.05078zm51.111 1.3144c-0.26308 0.03284-0.39453 0.31063-0.39453 0.83594 0 0.52532 0.23348 0.7005 0.70117 0.52539 0.77949-0.35021 0.77949-0.78718 0-1.3125-0.11692-0.04378-0.21895-0.05978-0.30664-0.04883zm-3.4356 2.6758c-0.62359 0-0.93554 0.43697-0.93554 1.3125s0.31195 1.3144 0.93554 1.3144c0.7795 0 1.1699-0.43892 1.1699-1.3144s-0.39043-1.3125-1.1699-1.3125zm22.449 0c-0.15589 0-0.38937 0.17518-0.70117 0.52539-0.15589 0.35022-0.23437 0.61201-0.23437 0.78711l-0.23243 0.78906c0 0.1751 0.07653 0.35028 0.23243 0.52539 0 0.1751 0.07848 0.43689 0.23437 0.78711 0.3118 0.35022 0.54527 0.52539 0.70117 0.52539s0.39132-0.17517 0.70313-0.52539c0.3118-0.35021 0.46679-0.612 0.46679-0.78711v-0.52539-0.26367c0.1559-0.17509 0.23438-0.35027 0.23438-0.52539 0-0.35021 0.07848-0.78718 0.23437-1.3125h-1.6387zm-24.787 1.3125-1.1699 2.627c0.15589 0 0.31285-0.17517 0.46875-0.52539 0.3118-0.35021 0.54528-0.612 0.70117-0.78711v-0.52539-0.78906zm-29.23 3.4141c-0.15589 0-0.6248 0.08858-1.4043 0.26368-0.62359 0.17509-1.0906 0.26171-1.4024 0.26171-0.77949 0.52532-1.1699 1.0508-1.1699 1.5762 0 0.35021 0.07848 0.87574 0.23438 1.5762 0.3118 0.52532 0.62375 0.87567 0.93554 1.0508 0.3118-0.17509 0.77875-0.52545 1.4024-1.0508 0.62359-0.70043 1.014-1.226 1.1699-1.5762 0.15589-0.1751 0.23437-0.52545 0.23437-1.0508v-1.0508zm6.7812 4.7285c-0.62359 0-0.93554 0.43892-0.93554 1.3144 0 0.70043 0.31195 1.0488 0.93554 1.0488 0.6236 0 0.93555-0.3484 0.93555-1.0488 0-0.87553-0.31195-1.3144-0.93555-1.3144zm24.086 0.78906c-0.15589 0-0.46785 0.08663-0.93555 0.26172-0.31179 0-0.54527 0.08858-0.70117 0.26367-0.15589 0.1751-0.38937 0.61207-0.70117 1.3125-0.31179 0.52532-0.46875 0.96229-0.46875 1.3125-0.15589 0.35021-0.31089 1.0509-0.4668 2.1016v2.1016h0.70118c0.46769 0 0.77965-0.08663 0.93554-0.26172 0.3118 0 0.54527-0.17518 0.70117-0.52539 0.3118-0.35021 0.46875-0.61396 0.46876-0.78906 0-0.35022 0.07652-1.3127 0.23242-2.8887 0.15589-1.576 0.23437-2.5385 0.23437-2.8887zm17.305 1.5742c-0.62359 0-0.93555 0.52553-0.93555 1.5762 0 0.87553 0.31196 1.3145 0.93555 1.3145 0.77949 0 1.1699-0.43893 1.1699-1.3145 0-1.0506-0.39043-1.5762-1.1699-1.5762zm-62.904 5.5176c0.15589 0.35021 0.54437 1.049 1.168 2.0996 0.62359 1.0506 1.014 1.6647 1.1699 1.8398 0 0.17509 0.078482 0.26172 0.23438 0.26172h0.4668 0.46875c0.15589 0 0.23242-0.08663 0.23242-0.26172 0.15589 0 0.31284-0.17518 0.46875-0.52539 0.3118-0.35021 0.4668-0.61395 0.4668-0.78906v-0.26172-0.26367c0.15589 0 0.23438-0.08663 0.23438-0.26172s-0.078482-0.26172-0.23438-0.26172c0-0.17509-0.31195-0.43884-0.93555-0.78906l-1.4023-0.78711h-0.93555-1.4023zm13.328 1.8379c-0.4677 0-0.93465 0.26179-1.4024 0.78711-0.15589 0.35021-0.38936 0.96431-0.70117 1.8398-0.15589 1.0506-0.31284 1.7514-0.46875 2.1016-0.15589 0.35022-0.23242 0.78719-0.23242 1.3125v1.3125h1.4023c0.1559 1e-5 0.31285-0.69875 0.46875-2.0996 0.3118-1.2258 0.54528-2.2768 0.70118-3.1524v-1.0508-0.78906c0.15589 0 0.23242-0.08663 0.23242-0.26172z" fill="#0077B6" fill-rule="evenodd"/>
</svg>
