<?xml version="1.0" encoding="UTF-8"?>
<svg width="50" height="50" version="1.1" viewBox="0 0 52.917 52.917" xmlns="http://www.w3.org/2000/svg">
 <path transform="scale(.26458)" d="m99.908 0a99.908 99.908 0 0 0-51.221 14.129c0.22336 0.15793 0.80678 0.31473 1.791 0.47266 1.0913 0.17511 1.7937 0.35028 2.1055 0.52539v0.52539 0.52539c0 0.17511-0.31195 0.87582-0.93555 2.1016-0.62359 1.2257-0.93555 2.0131-0.93555 2.3633-0.15589 0.17511-0.23438 0.35028-0.23438 0.52539v0.78906 0.52539c0 0.1751 0.078482 0.35028 0.23438 0.52539l1.8711 1.0508h0.4668 0.70117l1.8711-1.0508c1.0913-0.52532 1.7937-0.87567 2.1055-1.0508 0.15589-0.1751 0.46785-0.52546 0.93555-1.0508 0.4677-0.52532 0.77965-0.96424 0.93555-1.3145v-0.52344-0.78906l-0.93555-2.1016c1e-6 -0.35021 0.31196-0.87575 0.93555-1.5762 0.6236-0.87553 1.0121-1.4877 1.168-1.8379 0-0.17511-0.078482-0.61207-0.23438-1.3125 0-0.70042 0.078482-1.0508 0.23438-1.0508 0.15589-0.17511 0.6248-0.35028 1.4043-0.52539 0.77949-0.35021 1.2464-0.52539 1.4023-0.52539 0.15589-0.17511 0.62285-0.52546 1.4023-1.0508 0.93539-0.70042 1.4808-1.0508 1.6367-1.0508h1.1699 0.93555c0.3118-0.17511 0.62375-0.26367 0.93555-0.26367 0.15589 0 0.38937 0.088566 0.70117 0.26367h1.1699 1.168l0.93555 1.0508c0.15589 0 0.46785 0.17518 0.93555 0.52539 0.62359 0.17511 0.93555 0.35028 0.93555 0.52539v4.7266c0 0.1751 0.15695 0.35028 0.46875 0.52539s0.54527 0.35028 0.70117 0.52539c0.15589-0.35021 0.31089-0.70057 0.4668-1.0508 0.15589-0.52532 0.31284-0.96229 0.46875-1.3125l1.168-1.3125c0.4677-0.70042 0.77965-1.0508 0.93555-1.0508 0.15589-0.17511 0.46785 7.2e-5 0.93555 0.52539 0.46769 0.52532 0.77965 0.78711 0.93555 0.78711h0.93555 1.1699c0.15589 0 0.62285-0.17518 1.4023-0.52539 0.77949-0.52532 1.2484-0.78711 1.4043-0.78711 0.3118 0 0.70027 0.26179 1.168 0.78711 0.6236 0.35021 1.014 0.52539 1.1699 0.52539 0.15589 0 0.62285 0.088566 1.4023 0.26367 0.93539 0.17511 1.5593 0.26172 1.8711 0.26172 0 0.35021-0.078482 1.1375-0.23438 2.3633-0.15589 1.2257-0.23242 2.1902-0.23242 2.8906 0 0.52532-0.31196 0.78711-0.93555 0.78711h-1.1699v10.244c0.15589-0.17511 0.31089-0.52546 0.4668-1.0508 0.3118-0.52532 0.54722-0.87567 0.70312-1.0508 0.3118-0.17511 0.85723-0.70064 1.6367-1.5762 0.77949-0.87553 1.2464-1.4877 1.4023-1.8379 0.3118-0.35021 0.70223-1.2261 1.1699-2.627 0.46769-1.576 0.70117-2.5385 0.70117-2.8887 0-0.17511 0.078482-0.35028 0.23438-0.52539 0.15589-0.35021 0.31089-0.70057 0.4668-1.0508 0.15589-0.35021 0.31284-0.61396 0.46875-0.78906l0.4668-0.52539c0 0.17511 0.078482 0.61403 0.23438 1.3145 0.15589 0.70042 0.23438 1.226 0.23438 1.5762 0.4677 0.52532 0.7777 0.78711 0.93359 0.78711 0.3118-0.17511 0.85918-0.70064 1.6387-1.5762 0.77949-0.87553 1.3249-1.4011 1.6367-1.5762l0.4668-0.26172 0.23437 0.26172 0.4668 1.5762 0.46875 1.5762c0.15589 0.1751 0.38937 0.43885 0.70117 0.78906 0.3118 0.17511 0.54528 0.34833 0.70117 0.52344h0.93555 0.93555c0.31179 0.1751 0.77874 0.52546 1.4023 1.0508 0.77949 0.52532 1.3269 0.96424 1.6387 1.3145 0.3118 0.17511 0.54528 0.52546 0.70117 1.0508 0.1559 0.52532 0.23243 0.87568 0.23243 1.0508 0-0.17511 0.07848-0.52546 0.23437-1.0508 0.31179-0.52532 0.54527-0.87567 0.70117-1.0508v-1.3145c0.1559-0.1751 0.31285-0.52546 0.46875-1.0508 0.3118-0.52532 0.54528-0.96229 0.70118-1.3125 0 0.35021 0.23347 0.87575 0.70117 1.5762 0.46769 0.52532 0.85812 0.78711 1.1699 0.78711 0.46769 0.17511 1.1681 0.35028 2.1035 0.52539 1.0913 0.1751 1.7937 0.26367 2.1055 0.26367 0 0.70042-0.07848 1.226-0.23437 1.5762-0.15589 0.17511-0.3109 0.52546-0.4668 1.0508-0.15589 0.52532-0.23437 0.87568-0.23437 1.0508-0.1559 0.35021-0.23438 1.3127-0.23438 2.8887 0.15589 1.576 0.23438 2.5385 0.23438 2.8887 0 0.1751-0.155 0.61403-0.4668 1.3145-0.15589 0.52532-0.39132 1.2241-0.70313 2.0996-0.31179 0.70042-0.62375 1.4011-0.93554 2.1016-0.15589 0.70042-0.23242 1.1393-0.23242 1.3145v1.8379 1.5762c0.15589 0.17509 0.31089 0.70063 0.46679 1.5762 0.3118 0.87554 0.54527 1.4011 0.70117 1.5762 0 0.17509-0.07652 0.52545-0.23242 1.0508 0 0.52532 0.07653 0.87568 0.23242 1.0508 0 0.35021 0.15696 0.70057 0.46876 1.0508 0.31179 0.17509 0.54527 0.26172 0.70117 0.26172 0 0.17509 0.07848 0.26172 0.23437 0.26172h0.70117 0.4668c0.15589 0 0.23438-0.086625 0.23438-0.26172 0.15589 0 0.38936-0.52554 0.70117-1.5762 0.31179-1.0506 0.46875-1.6628 0.46875-1.8379 0-0.17509 0.31195-0.35027 0.93554-0.52539 0.6236-0.17509 1.0121-0.35027 1.168-0.52539 0.1559-0.17509 0.31285-0.70063 0.46875-1.5762 0.1559-0.87553 0.3109-1.4011 0.4668-1.5762 0-0.35021-0.07653-1.1375-0.23242-2.3633v-2.1016h-1.8711c0.3118-0.35021 0.77875-0.96431 1.4024-1.8398 0.77949-0.87553 1.3249-1.4877 1.6367-1.8379-0.1559 0-0.23438-0.086613-0.23438-0.26172v-0.52539-0.78906c-0.31179 0-0.6218 0.088566-0.93359 0.26367-0.3118 0.17511-0.54723 0.26172-0.70313 0.26172-0.15589 0-0.38937-0.17518-0.70117-0.52539l-0.4668-0.52539c-0.15589-0.17511-0.54632-0.35028-1.1699-0.52539-0.46769-0.35021-0.77964-0.612-0.93554-0.78711v-1.0508-1.0508c0.15589-0.17511 0.46784-0.4369 0.93554-0.78711s0.85813-0.52539 1.1699-0.52539h1.168 0.93555c0.3118 0 0.70223 0.17518 1.1699 0.52539 0.4677 0.35021 0.77965 0.612 0.93555 0.78711 0.15589 0.17511 0.23437 0.87582 0.23437 2.1016 0.1559 1.2257 0.3109 2.0131 0.4668 2.3633v1.3145 2.0996 2.1016 1.3145c0.15589 0.52532 0.31285 1.3126 0.46875 2.3633 0.3118 1.0506 0.6218 2.1883 0.93359 3.4141 0.4677 1.0506 0.85813 2.1017 1.1699 3.1523 0.31179 1.0506 0.54527 1.7514 0.70117 2.1016 0.15589 0 0.46785-0.088579 0.93555-0.26367 0.46769-0.35021 0.77964-0.612 0.93554-0.78711 0.15589 0 0.38937-0.17518 0.70117-0.52539 0.3118-0.35021 0.46875-0.612 0.46875-0.78711v-7.6172c0-0.70042 0.31196-1.0508 0.93555-1.0508l0.4668-0.26367 0.46875 0.26367c0.31179 0.1751 0.93375 0.70064 1.8691 1.5762 0.93539 0.70042 1.7162 1.3126 2.3398 1.8379 0 0.52532 0.31195 0.78711 0.93555 0.78711 0 0.35021 0.07653 0.78913 0.23242 1.3145 0.3118 0.52532 0.54723 0.87568 0.70313 1.0508 0 0.17509-0.07849 0.52545-0.23438 1.0508v1.0508h2.5723v2.625c0.15589 1.0506 0.38937 1.7513 0.70117 2.1016 0 0.35021 0.23347 0.78913 0.70117 1.3145 0.62359 0.52532 1.0925 0.87568 1.4043 1.0508 0 0.17509 0.31195 0.78724 0.93554 1.8379 0.3118 0.52532 0.6218 0.96229 0.9336 1.3125v2.8906 2.8887c0 0.35021-0.155 1.1375-0.4668 2.3633-0.3118 1.2257-0.4668 1.9265-0.4668 2.1016v1.0508c0.1559 0.52532 0.23243 0.87568 0.23243 1.0508 0 0.17509 0.07848 0.26172 0.23437 0.26172h0.4668l0.46875-0.52344c0.31179-0.35021 0.46679-0.61396 0.46679-0.78906h0.70313 0.4668c0 0.35021 0.07848 1.1375 0.23437 2.3633 0.3118 1.2257 0.54528 2.015 0.70117 2.3652 0.1559 0.35021 0.62285 1.1375 1.4024 2.3633 0.77949 1.0506 1.3249 1.7513 1.6367 2.1016-0.6236 0-0.9336 0.35036-0.9336 1.0508 0 0.35021 0.07653 1.1375 0.23242 2.3633 0.3118 1.0506 0.54528 1.7514 0.70118 2.1016 0 0.17509-0.07653 0.61206-0.23243 1.3125 0 0.70042 0.07653 1.0508 0.23243 1.0508l0.93554 1.0508 0.46875 0.26367c0.1559 0 0.3109-0.088579 0.4668-0.26367 0.15589-0.35021 0.31285-0.70057 0.46875-1.0508 0.3118-0.52532 0.4668-0.96229 0.4668-1.3125 0-0.35021-0.155-1.0509-0.4668-2.1016-0.15589-1.2257-0.31285-2.0131-0.46875-2.3633h0.46875 0.4668c0.46769 0.17509 1.0131 0.43688 1.6367 0.78711 0.7795 0.17509 1.2484 0.35027 1.4043 0.52539 0.3118 0.17509 0.77875 0.70063 1.4024 1.5762 0.77949 0.87553 1.3249 1.4011 1.6367 1.5762l-1.6367 3.6777c-0.6236 1.7511-1.0906 2.8887-1.4024 3.4141v0.78711 1.3145c0 0.17509 0.155 0.43688 0.4668 0.78711 0.3118 0.17509 0.46875 0.35027 0.46875 0.52539l0.23242 1.3145c0 0.35021-0.07653 0.70056-0.23242 1.0508v0.78711l-0.46875 0.52539c-0.15589 0.17509-0.23438 0.35027-0.23438 0.52539 0 0.17509-0.07653 0.26172-0.23242 0.26172v1.3145 1.8379c0.15589 0.35021 0.3109 0.96431 0.4668 1.8398 0.3118 0.87553 0.46875 1.4877 0.46875 1.8379v0.52539 0.26172c0 0.35021-0.15695 0.96431-0.46875 1.8398-0.15589 0.70042-0.3109 1.226-0.4668 1.5762 0 0.17509-0.15695 0.43688-0.46875 0.78711-0.15589 0.17509-0.31089 0.35027-0.46679 0.52539 0-0.1751-0.15696-0.43689-0.46876-0.78711-0.15589-0.35021-0.31089-0.52539-0.46679-0.52539-0.4677 0-0.77965 0.08662-0.93555 0.26172-0.31179 0.17509-0.54527 0.26367-0.70117 0.26367v8.666c-0.3118 0.1751-0.7807 0.52545-1.4043 1.0508l-0.93554 1.0508c-0.3118 0-0.54528 0.52553-0.70118 1.5762-0.15589 1.0506-0.23242 1.6647-0.23242 1.8398-0.15589 0-0.39132 0.17518-0.70312 0.52539-0.1559 0.17509-0.3109 0.35027-0.4668 0.52539-0.15589 0.1751-0.46785 0.43689-0.93555 0.78711-0.46769 0.35021-0.77965 0.61201-0.93554 0.78711l-5.1445 10.77-2.1055-1.0508c-0.1559 0.35021-0.62285 1.1395-1.4024 2.3652-0.62359 1.0506-1.0906 1.7494-1.4023 2.0996l-0.93555 1.0508c0 0.35021 0.07653 0.87574 0.23242 1.5762 0.3118 0.52532 0.54723 0.87567 0.70313 1.0508v0.26367 0.52539c-0.15589 0.17509-0.23438 0.35027-0.23438 0.52539l-0.23437 0.26172-0.4668 0.52539h-0.70117-0.46875c-0.3118-0.17509-0.85723-0.52545-1.6367-1.0508-0.62359-0.52532-1.0905-0.87568-1.4023-1.0508-0.1559 0-0.23438 0.08858-0.23438 0.26367s-0.15695 0.78724-0.46875 1.8379c-0.31179 1.0506-0.38832 1.7514-0.23242 2.1016 0.15589 0.35022 0.46785 0.70057 0.93555 1.0508 0.46769 0.35021 0.77965 0.43683 0.93554 0.26171 0 0.35022-0.07848 0.78914-0.23437 1.3145s-0.38937 0.78711-0.70117 0.78711c-0.3118 0.35021-0.62375 0.61395-0.93555 0.78906l-0.93555 0.52539c-0.15589 0.17509-0.38937 0.34832-0.70117 0.52344-0.3118 0.17509-0.46875 0.35027-0.46875 0.52539-0.15589 0.35021-0.62284 1.1395-1.4023 2.3652-0.77949 1.0506-1.2484 1.7514-1.4043 2.1016-0.31179 0.35022-0.85723 0.96237-1.6367 1.8379s-1.2464 1.4877-1.4023 1.8379c-0.15589 0-0.38937 0.35035-0.70117 1.0508-0.1559 0.35021-0.31285 0.61395-0.46875 0.78906 0 0.17509-0.155 0.43688-0.4668 0.78711l-0.46875 0.52539-0.4668 0.26367c-0.15589 0-0.31284-0.08858-0.46875-0.26367-0.15589-0.17509-0.38937-0.52545-0.70117-1.0508-0.15589-0.70043-0.31089-1.1374-0.4668-1.3125h-0.46875-0.46679c0 0.35021-0.15696 1.1375-0.46875 2.3633-0.3118 1.2257-0.54527 2.0131-0.70117 2.3633 0 0.70043-0.31196 1.0508-0.93555 1.0508-0.15589 0.35022-0.46785 0.96432-0.93555 1.8398-0.46769 0.70042-0.77965 1.1374-0.93555 1.3125 0-0.1751-0.23347-0.70063-0.70117-1.5762-0.46769-0.87553-0.93464-1.4011-1.4023-1.5762-0.15589 0-0.46785 0.17518-0.93555 0.52539-0.46769 0.1751-0.77965 0.35027-0.93554 0.52539-0.1559 0.1751-0.54633 0.61402-1.1699 1.3145-0.46769 0.52532-0.77965 0.78711-0.93554 0.78711-0.1559 0-0.3109-0.26179-0.4668-0.78711-0.15589-0.70043-0.31089-1.1394-0.4668-1.3145l-0.46875-0.52539-0.46679-0.52539c-0.1559 0-0.39133 0.17518-0.70313 0.52539-0.3118 0.35022-0.54527 0.52539-0.70117 0.52539 0 0.1751-0.23348 0.70063-0.70117 1.5762-0.4677 0.87553-0.85813 1.4896-1.1699 1.8398-0.1559 0.35021-0.62285 0.78718-1.4024 1.3125-0.77949 0.52532-1.3249 0.87567-1.6367 1.0508-0.15589-0.17509-0.31284-0.43688-0.46875-0.78711 0-0.17509-0.07653-0.35027-0.23242-0.52539l-0.46875-1.0508c-0.15589-0.35021-0.31089-0.61396-0.4668-0.78906-0.15589-0.1751-0.23437-0.35027-0.23437-0.52539h-0.70117-0.46875c0 0.17509-0.31195 0.61401-0.93555 1.3144-0.46769 0.70042-0.7777 1.0508-0.93359 1.0508-0.3118 0.17509-0.85918 0.35027-1.6387 0.52539-0.77949 0.35021-1.2464 0.612-1.4023 0.78711-0.3118 0.17509-1.3242 0.70063-3.0391 1.5762-1.559 0.87553-2.4948 1.4011-2.8066 1.5762 0 0.1751-0.078482 0.26172-0.23438 0.26172h-0.4668c-0.15589 0-0.31284-0.08662-0.46875-0.26172 0-0.17509-0.155-0.78919-0.4668-1.8398-0.15589-0.87553-0.38937-1.3125-0.70117-1.3125-0.15589-0.17509-0.6248-0.43688-1.4043-0.78711-0.77949-0.17509-1.2464-0.35027-1.4023-0.52539l-0.46875-0.52539c-0.46769-0.52532-0.70117-0.7005-0.70117-0.52539l-0.23438-0.26367c-0.15589 0-0.23242 0.08858-0.23242 0.26367h-0.23438-0.23438l-4.9102 7.8789c0 0.17509-0.46891 0.35027-1.4043 0.52539-0.77949 0.17509-1.3249 0.35027-1.6367 0.52539-0.3118 0.17509-0.62375 0.26172-0.93555 0.26172h-1.168-0.93555c-0.3118 0-0.54527-0.08663-0.70117-0.26172-0.62359 0-1.4045-0.35036-2.3398-1.0508-0.3118-0.35022-0.85723-0.78719-1.6367-1.3125-0.77949-0.52532-1.168-0.87568-1.168-1.0508-0.15589-0.17509-0.15589-0.78919 0-1.8398 0.15589-0.87553 0.15589-1.3125 0-1.3125-0.15589-0.35021-0.70132-0.612-1.6367-0.78711-0.77949-0.17509-1.2484-0.35027-1.4043-0.52539-0.62359 0-0.93555-0.35036-0.93555-1.0508 0-0.35021 0.078482-0.96431 0.23438-1.8398 0.3118-0.87553 0.54527-1.4011 0.70117-1.5762 0-0.17509-0.078482-0.69867-0.23438-1.5742 0-1.0506 0.078482-1.6647 0.23438-1.8398 0-0.17509 0.15695-0.52545 0.46875-1.0508 0.3118-0.70042 0.4668-1.1374 0.4668-1.3125 0-0.87553 0.078482-2.8025 0.23438-5.7793s0.23438-4.9018 0.23438-5.7773c0 0.17509 0.076529 0.26172 0.23242 0.26172l0.23438 0.26367c0.15589 0.17509 0.31089 0.5235 0.4668 1.0488 0.3118 0.52532 0.54723 0.87567 0.70312 1.0508l0.23242 0.26367 0.70313-0.26367 0.93359-1.0508c-0.15586-0.35019-0.4659-0.8738-0.93359-1.5742-0.46769-0.87553-0.77965-1.4896-0.93555-1.8398v-0.52539-0.5254c0.15589-0.17509 0.46785-0.70062 0.93555-1.5762 0.62359-1.0506 0.93359-1.6628 0.93359-1.8379 0-0.17509-0.076529-0.52545-0.23242-1.0508v-1.3125c-0.3118 0-0.62375 0.08663-0.93555 0.26172-0.3118 0.17509-0.54527 0.17509-0.70117 0-0.15589 0-0.39132-0.17518-0.70312-0.52539-0.3118-0.35021-0.4668-0.61201-0.4668-0.78711 0.3118-0.17509 0.62375-0.52545 0.93555-1.0508l1.1699-1.3145v-1.5742-1.8398c-0.15589-0.17509-0.31285-0.52545-0.46875-1.0508-0.15589-0.52532-0.31089-0.78711-0.4668-0.78711-0.15589-0.35021-0.54632-0.78913-1.1699-1.3144-0.6236-0.70043-0.93555-1.1374-0.93555-1.3125-0.3118-0.17509-0.54527-0.70063-0.70117-1.5762v-1.5762h1.4023v-3.4141c0.15589-1.9262 0.23438-3.0638 0.23438-3.4141s-0.155-1.5765-0.4668-3.6777c-0.15589-2.1013-0.31285-3.5893-0.46875-4.4648-0.15589 0-0.38937-0.6141-0.70117-1.8398-0.15589-1.4008-0.23438-2.1882-0.23438-2.3633v-0.52539-0.78711c0.15589-0.35022 0.6248-1.4898 1.4043-3.416 0.93539-1.9262 1.4808-2.9753 1.6367-3.1504v-0.52539-0.78906c-0.15589-0.1751-0.54632-0.35028-1.1699-0.52539-0.4677-0.1751-0.77965-0.35027-0.93555-0.52539-0.15589-0.1751-0.31089-0.52545-0.4668-1.0508-0.15589-0.52532-0.31285-0.87568-0.46875-1.0508v-0.78711-0.52539c0-0.17509 0.078482-1.051 0.23438-2.627 0.3118-1.7511 0.54527-2.8021 0.70117-3.1523v-1.0488-0.78906c-0.15589-0.17509-0.38937-0.52545-0.70117-1.0508-0.15589-0.70042-0.23438-1.1374-0.23438-1.3125 0-0.35021 0.078482-1.3147 0.23438-2.8906 0.3118-1.576 0.54527-2.4499 0.70117-2.625 0.15589-0.70042 0.31285-2.0152 0.46875-3.9414 0.15589-2.1013 0.31089-4.2015 0.4668-6.3027 0.3118-2.2764 0.54527-4.3785 0.70117-6.3047 0.3118-1.9262 0.46875-3.3256 0.46875-4.2012 0.15589 0 0.31089-0.26375 0.4668-0.78906 0.3118-0.52532 0.46875-0.96229 0.46875-1.3125-1e-6 -0.17509-0.15696-0.70063-0.46875-1.5762-0.3118-1.0506-0.4668-1.6647-0.4668-1.8398v-1.0488c0.15589-0.52532 0.23242-0.87568 0.23242-1.0508h-3.2734c0-0.17509 0.078482-0.52545 0.23438-1.0508 0.15589-0.52532 0.38937-0.96424 0.70117-1.3145 0-0.17509 0.078482-0.35027 0.23438-0.52539l0.70117-0.78711c0.15589 0 0.46784-0.088579 0.93555-0.26367 0.46769-0.17509 0.85812-0.43688 1.1699-0.78711 0.15589-0.17509 0.31089-0.52545 0.4668-1.0508 0.31179-0.52532 0.4668-0.96229 0.4668-1.3125v-0.52539-0.26367l-0.93359-0.52539c-0.62359-0.35021-0.93555-0.612-0.93555-0.78711-0.4677-0.1751-1.482-0.61403-3.041-1.3145-0.62359-0.35021-1.324-0.70057-2.1035-1.0508h-4.4434-4.4434c-0.3118 0.17509-1.0142 0.52545-2.1055 1.0508-1.0913 0.52532-1.7917 0.96424-2.1035 1.3145-0.62359 0-0.93555-0.35035-0.93555-1.0508 0-0.17509-0.15695-0.52545-0.46875-1.0508-0.3118-0.52532-0.4668-0.87568-0.4668-1.0508-0.3118-0.35021-0.70222-0.78718-1.1699-1.3125-0.3118-0.52532-0.62375-0.87567-0.93555-1.0508h-0.4668-0.46875c-0.15589 0-0.38937 0.17518-0.70117 0.52539-0.3118 0.17509-0.4668 0.43688-0.4668 0.78711-0.15589 0.35021-0.23438 0.70057-0.23438 1.0508v1.3125c0-0.17509-0.078482-0.26172-0.23438-0.26172-0.3118 0-0.4668-0.088579-0.4668-0.26367-0.3118 0-0.85722-0.43697-1.6367-1.3125-0.6236-0.87556-1.014-1.4877-1.1699-1.8379-0.3118-0.35021-0.85723-1.1395-1.6367-2.3652-0.77949-1.2257-1.3249-1.9265-1.6367-2.1016l-0.46875-0.52539c-0.1559-0.35021-0.3109-0.52344-0.4668-0.52344h-1.4023-1.4043c-0.1559 0-0.38938-0.17518-0.70117-0.52539-0.1559-0.35021-0.31285-0.61396-0.46875-0.78906l-0.23242-0.52539c0-0.1751 0.076524-0.35028 0.23242-0.52539 0.1559-0.35021 0.46785-0.52539 0.93555-0.52539 0.62359-0.1751 0.93555-0.35028 0.93555-0.52539v-0.78711-0.78906c0.071385-0.080181 0.12146-0.16005 0.16016-0.24024a99.908 99.908 0 0 0-30.527 71.889 99.908 99.908 0 0 0 99.908 99.908 99.908 99.908 0 0 0 99.908-99.908 99.908 99.908 0 0 0-99.908-99.908zm-12.248 15.127c-0.62359 0-0.93555 0.43892-0.93555 1.3145 0 0.70043 0.31196 1.0508 0.93555 1.0508 0.099514 0 0.17809-0.025132 0.26172-0.042969-0.009003-0.074048-0.027344-0.13654-0.027344-0.2207 0-0.59041 0.23466-0.91703 0.67774-1.0098-0.054607-0.71396-0.34899-1.0918-0.91211-1.0918zm0.91211 1.0918c0.005863 0.076668 0.023437 0.13776 0.023437 0.22266 0 0.58865-0.23338 0.91388-0.67383 1.0078 0.065925 0.54222 0.35954 0.83008 0.9082 0.83008 0.3118 0 0.4668-0.35036 0.4668-1.0508s-0.155-1.0508-0.4668-1.0508c-0.097949 0-0.17525 0.023735-0.25781 0.041016zm11.014 4.4238c0 0.17511-0.31196 0.52546-0.93555 1.0508-0.4677 0.52532-0.7777 0.96424-0.93359 1.3145v0.78711 0.26367c0.3118-0.17511 0.70027-0.52546 1.168-1.0508 0.46769-0.52532 0.70117-0.87567 0.70117-1.0508l0.23437-0.52539-0.23437-0.52539v-0.26367zm15.201 4.4668c-0.15589 0-0.31285 0.17518-0.46875 0.52539-0.15589 0.35021-0.31089 0.612-0.4668 0.78711h0.4668 0.46875c0.15589-0.17511 0.31089-0.35028 0.4668-0.52539 0.31179-0.35021 0.46875-0.612 0.46875-0.78711h-0.23438-0.70117zm-6.1543 3.3477c-0.26308 0-0.39453 0.19781-0.39453 0.5918 0 0.52532 0.23543 0.78711 0.70313 0.78711 0.31179-0.17511 0.46679-0.4369 0.46679-0.78711 0-0.35021-0.155-0.52539-0.46679-0.52539-0.11693-0.043777-0.2209-0.066407-0.3086-0.066407zm-68.209 3.4805v1.3145h1.168v-1.3145h-1.168zm63.139 0-0.93555 1.3145h0.93555v-1.3145zm9.3535 0c-0.1559 0.17511-0.54633 0.52546-1.1699 1.0508-0.46769 0.52532-0.77965 0.96229-0.93554 1.3125-0.1559 0-0.3109 0.26374-0.4668 0.78906-0.15589 0.52532-0.31089 0.96229-0.4668 1.3125v0.78906 0.52539c0.1559 0.35021 0.3109 0.96236 0.4668 1.8379 0.15589 0.70042 0.31089 1.226 0.4668 1.5762l0.46875 0.26172c0.15589 0 0.31089-0.086626 0.46679-0.26172 0.1559-0.35021 0.31285-0.96236 0.46875-1.8379 0.3118-0.87553 0.54528-1.4011 0.70118-1.5762 0-0.35021 0.23347-0.96431 0.70117-1.8398 0.62359-1.0506 1.014-1.5762 1.1699-1.5762l0.23437-0.52539c0-0.17511-0.07848-0.34833-0.23437-0.52344-0.46769-0.87553-0.77965-1.3145-0.93555-1.3145h-0.70117-0.23437zm-58.461 1.3145c-0.3118 0-0.46875 0.43697-0.46875 1.3125 0 0.70042 0.15695 1.0508 0.46875 1.0508 0.62359 0 0.93359-0.35036 0.93359-1.0508 0-0.87553-0.31-1.3125-0.93359-1.3125zm39.285 1.0488-4.9102 5.7793v3.1523l-2.1055 2.3633c-0.93539 1.0506-1.6358 1.7514-2.1035 2.1016-0.15589 0.17509-0.46785 0.26367-0.93555 0.26367-0.4677-0.17509-0.85813-0.26367-1.1699-0.26367 0 0.17509-0.155 0.35027-0.4668 0.52539-0.3118 0.17509-0.46875 0.35027-0.46875 0.52539v3.4141 3.4141c0.3118-0.17509 0.70223-0.34832 1.1699-0.52344 0.62359-0.17509 0.93555-0.35027 0.93555-0.52539l0.4668 0.26172h0.23438c0.15589 0 0.23438 0.086626 0.23438 0.26172v0.52539c-0.15589 0.35021-0.6248 1.1395-1.4043 2.3652-0.77949 1.2257-1.3249 1.9265-1.6367 2.1016v0.78711 0.26367c0.3118-0.17509 0.7807-0.35027 1.4043-0.52539 0.77949-0.35021 1.3249-0.52539 1.6367-0.52539 0.15589 0 0.38937 0.17518 0.70117 0.52539 0.3118 0.17509 0.4668 0.35027 0.4668 0.52539 0.15589 0.17509 0.23438 0.69868 0.23438 1.5742 0.15589 0.87554 0.31089 1.4896 0.4668 1.8398 0.3118 0.52532 0.54723 1.4012 0.70312 2.627 0.3118 1.0506 0.4668 1.7494 0.4668 2.0996v0.78906c0.15589 0.35021 0.23438 0.70057 0.23438 1.0508 0 0.17509-0.078482 0.35027-0.23438 0.52539v0.52539 0.52539c0 0.52532-0.39043 0.78711-1.1699 0.78711-0.15589 0.17509-0.46589 0.43884-0.93359 0.78906-0.46769 0.35021-0.77965 0.52539-0.93555 0.52539l-0.93555 1.0508v0.52344 0.78906c0 0.17509 0.155 0.43689 0.4668 0.78711 0.15589 0.17509 0.31284 0.26367 0.46875 0.26367 0.15589 0 0.46784-0.088579 0.93555-0.26367 0.46769-0.17509 0.7777-0.43689 0.93359-0.78711 0.77949-0.87554 1.1699-1.6629 1.1699-2.3633 0.15589 0.17509 0.23438 0.43688 0.23438 0.78711v0.78711c0 1.2257-0.078482 1.8398-0.23438 1.8398 0 0.35021-0.46695 0.96236-1.4023 1.8379-0.93539 0.87553-1.4808 1.4896-1.6367 1.8398v1.8379 2.3633c0 0.17509 0.155 0.43884 0.4668 0.78906 0.46769 0.17509 0.70117 0.35027 0.70117 0.52539l0.23438 0.52539-0.23438 0.26172c1e-6 0.35021-0.155 0.70057-0.4668 1.0508-0.3118 0.35021-0.54527 0.52539-0.70117 0.52539-0.15589 0-0.46785-0.17518-0.93555-0.52539-0.46769-0.35021-0.85813-0.70057-1.1699-1.0508v0.78906 0.78711c0.3118 0.17509 0.70223 1.051 1.1699 2.627 0.62359 1.576 0.93555 2.5385 0.93555 2.8887 0.15589 0.17509 0.15589 0.8758 0 2.1016v2.3633l0.4668 0.5254c0.3118 0.35021 0.54527 0.52539 0.70117 0.52539 0.3118 0 0.70223 0.17518 1.1699 0.52539 0.46769 0.17509 0.70117 0.35027 0.70117 0.52539v0.52539 0.52539c0 0.17509 0.078482 0.26367 0.23438 0.26367-0.15589 0.17509-0.23438 0.35027-0.23438 0.52539v0.52539c0 0.35021-0.31196 1.1375-0.93555 2.3633-0.62359 1.2258-0.93555 2.0131-0.93555 2.3633 0 0.1751 0.23348 0.70063 0.70117 1.5762 0.4677 0.87553 0.85813 1.4011 1.1699 1.5762v15.76c-0.15589 0.1751-0.38937 0.52545-0.70117 1.0508-0.3118 0.52532-0.46875 0.96228-0.46875 1.3125l0.46875 1.5762c0 0.35021 0.155 0.70056 0.4668 1.0508 0.15589 0.17509 0.23438 0.35027 0.23438 0.52539 0.15589 0.52532 0.38937 1.4012 0.70117 2.627 0.3118 1.0506 0.46875 1.6628 0.46875 1.8379v1.3145 1.0508c0 0.17509-0.078482 0.34831-0.23438 0.52343-0.15589 0-0.31089 0.17518-0.4668 0.52539l-0.46875 1.0508v5.2539 3.9395c0.15589 0.52531 0.7798 1.5764 1.8711 3.1523 1.0913 1.4008 1.7937 2.1882 2.1055 2.3633l0.4668 0.26367h0.4668c0.15589 0 0.23438-0.08858 0.23438-0.26367 0.15589 0 0.38937-0.35036 0.70117-1.0508 0.4677-0.70043 0.85813-1.0488 1.1699-1.0488h3.041c0.15589 0 0.31089-0.35036 0.4668-1.0508 0.15589-0.70042 0.31089-1.1394 0.4668-1.3144 0.23697 0 0.71338-0.20047 1.3105-0.50391 0.14481-0.35118 0.39998-0.54687 0.79492-0.54687 0.07124 0 0.1244 0.02568 0.1875 0.03711 0.81719-0.41983 1.4207-0.79258 1.6836-1.0879h0.70117 0.23438c0.15589 0.1751 0.38937 0.43884 0.70117 0.78907 0.3118 0.17509 0.54528 0.26172 0.70117 0.26172h0.93555 0.93555c0.15589 0 0.31089-0.26179 0.46679-0.78711 0.1559-0.70043 0.23438-1.226 0.23438-1.5762 0.15589-0.17509 0.54632-0.35026 1.1699-0.52539 0.62359-0.17509 1.0121-0.35027 1.168-0.52539 0.3118 0 0.85918-0.43696 1.6387-1.3125 0.77949-1.0506 1.2464-1.6647 1.4024-1.8398l0.93554 0.52539c0.3118 0.17509 0.62375 0.26367 0.93555 0.26367 0.3118 0.17509 0.85723 0.26172 1.6367 0.26172 0.77949-0.17509 1.3249-0.26172 1.6367-0.26172 0.15589 0.35022 0.46784 0.78719 0.93554 1.3125 0.6236 0.52532 1.0906 0.87568 1.4024 1.0508v-7.0918c0.31179 0 0.85723 0.08662 1.6367 0.26171 0.93539 0.1751 1.5593 0.1751 1.8711 0 0.15589 0 0.46785-0.08662 0.93555-0.26171 0.62359-0.35021 1.014-0.61201 1.1699-0.78711 0.15589-0.1751 0.23437-0.70063 0.23437-1.5762 0.1559-1.0506 0.3109-1.6647 0.4668-1.8398 0-0.17509 0.15695-0.35027 0.46875-0.52539 0.3118-0.17509 0.54527-0.26172 0.70117-0.26172 0.1559-0.17509 0.46785-0.43883 0.93555-0.78906 0.62359-0.35021 1.0121-0.52539 1.168-0.52539 0.15589-0.35021 1.0133-1.2242 2.5723-2.625s2.6518-2.3653 3.2754-2.8906c0.3118-0.35021 0.70028-0.78718 1.168-1.3125 0.4677-0.52532 0.77965-0.78906 0.93555-0.78906 0.15589-0.35021 0.46785-1.4879 0.93555-3.4141 0.46769-1.9262 0.85812-3.1524 1.1699-3.6777 0-0.35021 0.07653-1.2242 0.23242-2.625 0.3118-1.576 0.54723-2.5404 0.70313-2.8906 0-0.17509 0.23347-0.70063 0.70117-1.5762 0.62359-0.87553 1.0121-1.4877 1.168-1.8379 0.15589-0.1751 0.31284-0.43689 0.46875-0.78711 0.31179-0.35021 0.54527-0.52539 0.70117-0.52539 0.15589-0.1751 0.46784-0.35027 0.93554-0.52539 0.4677-0.1751 0.85813-0.26368 1.1699-0.26368 0.15589-0.35021 0.46784-0.78718 0.93554-1.3125 0.6236-0.70042 0.9336-1.1393 0.9336-1.3144v-1.5742-1.5762l-0.4668-0.52539c-0.15589 0-0.23437-0.17518-0.23437-0.52539 0-0.17509-0.07653-0.26367-0.23243-0.26367l-0.70312 0.78906c-0.15589 0.17509-0.23242 0.35027-0.23242 0.52539-0.1559 0-0.39132 0.35036-0.70313 1.0508-0.15589 0.70043-0.31089 1.1374-0.4668 1.3125h-0.46679-0.46875c-0.15589-0.17509-0.31089-0.35027-0.4668-0.52539-0.15589-0.35021-0.39132-0.70057-0.70312-1.0508l-0.70118-0.78711c-0.15589 0-0.15589-0.35035 0-1.0508 0.3118-0.70043 0.54528-1.1394 0.70118-1.3144v-0.78711-0.26367l-0.93555-0.52539-0.93359-0.52539c0.15589 0-0.00107-0.26179-0.46875-0.78711l-0.4668-0.52539c-0.3118-0.17509-0.70223-1.051-1.1699-2.627-0.4677-1.7511-0.77965-2.8021-0.93555-3.1523-0.3118-0.17509-0.70223-0.69867-1.1699-1.5742-0.4677-0.87553-0.7777-1.4896-0.9336-1.8398-0.15589 0-0.39132-0.26179-0.70312-0.78711-0.15589-0.70043-0.23242-1.1393-0.23242-1.3145-0.1559-0.35021-0.70328-1.1375-1.6387-2.3633-0.77949-1.2257-1.2464-1.8379-1.4024-1.8379-0.15589-0.35021-0.38936-0.78913-0.70117-1.3145-0.15589-0.70042-0.23437-1.1374-0.23437-1.3125-0.1559-0.70042-0.38938-2.1885-0.70118-4.4648-0.15589-2.2764-0.23437-3.853-0.23437-4.7285l-0.93555-0.78711c-0.15589 0.35021-0.54437 0.78718-1.168 1.3125-0.46769 0.52532-0.85812 0.87568-1.1699 1.0508h-0.23437-0.4668c-0.15589-0.35021-0.38937-0.70057-0.70117-1.0508-0.3118-0.52532-0.46875-0.96229-0.46875-1.3125l-1.8711 0.78711c-0.31179-0.35021-0.85722-1.2261-1.6367-2.627-0.77949-1.4008-1.3249-2.3634-1.6367-2.8887 0-0.52532-0.31196-0.78906-0.93555-0.78906-0.15589 0-0.70132-0.17518-1.6367-0.52539-0.77949-0.35021-1.2464-0.612-1.4023-0.78711-0.1559-0.35021-0.38937-1.2261-0.70118-2.627-0.31179-1.576-0.39027-2.627-0.23437-3.1523-0.3118 0.35022-1.0142 0.78913-2.1055 1.3145-0.93539 0.52532-1.5593 0.87567-1.8711 1.0508h-0.4668-0.4668c0.3118-0.35021 0.54528-0.87575 0.70117-1.5762 0.1559-0.87553 0.23243-1.4896 0.23243-1.8398 0-0.70042-0.31001-1.0488-0.9336-1.0488-0.15589 0.17509-0.39132 0.35027-0.70312 0.52539-0.15589 0.17509-0.23242 0.34832-0.23242 0.52344-0.1559 0.17509-0.39133 0.61401-0.70313 1.3145-0.3118 0.52532-0.54527 0.78711-0.70117 0.78711l-0.23438-0.26172c-0.31179-0.35021-0.46679-0.61396-0.46679-0.78906-0.1559-0.17509-0.38937-0.52545-0.70117-1.0508-0.1559-0.52532-0.31285-0.87372-0.46875-1.0488-0.1559-0.17509-0.23243-0.61402-0.23243-1.3145v-1.3125h-0.23437c-0.15589 0-0.23438 0.086625-0.23438 0.26172-0.15589 0.17509-0.38936 0.61402-0.70117 1.3145-0.31179 0.52532-0.54527 0.87568-0.70117 1.0508 0 0.70042-0.31195 1.0488-0.93555 1.0488-0.15589 0-0.31284-0.086626-0.46875-0.26172 0-0.35021-0.07653-0.612-0.23242-0.78711v-1.5762c0.15589-0.87553 0.15589-1.4896 0-1.8398 0-0.17509-0.15695-0.52545-0.46875-1.0508-0.3118-0.52532-0.54527-0.96229-0.70117-1.3125 0-0.17509-0.155-0.70063-0.4668-1.5762-0.31179-0.87553-0.54722-1.4011-0.70312-1.5762h-0.93359c-0.15589 0-0.46785 0.17518-0.93555 0.52539-0.46769 0.17509-0.77965 0.26367-0.93555 0.26367h-1.1699c-0.15589 0.35021-0.46784 1.049-0.93555 2.0996-0.3118 0.87553-0.62375 1.3145-0.93555 1.3145l-0.70117 0.26172h-0.93555c-0.15589 0-0.31089-0.086626-0.4668-0.26172-0.15589 0-0.31285-0.088579-0.46875-0.26367-0.3118-0.35021-0.4668-0.612-0.4668-0.78711 0.3118-0.35021 0.62375-1.0509 0.93555-2.1016 0.46769-1.2257 0.85617-2.0131 1.168-2.3633 0.15589-0.17509 0.31285-0.70063 0.46875-1.5762 0.3118-0.87553 0.4668-1.4011 0.4668-1.5762l0.93555-1.0508c0.15589-0.35021 0.31284-0.78718 0.46875-1.3125 0.3118-0.52532 0.4668-0.87568 0.4668-1.0508l0.23438-0.52539c0-0.1751-0.078482-0.26367-0.23438-0.26367v-0.26172-0.26367c0-0.35021-0.23348-0.78718-0.70117-1.3125-0.46775-0.52534-0.85812-0.78906-1.1699-0.78906zm7.2031 117.18c-0.15191 0.07804-0.25082 0.14421-0.42188 0.22656-0.22448 0.12607-0.37198 0.18739-0.56054 0.2832-0.083839 0.20332-0.14062 0.44655-0.14063 0.76758 1e-6 0.70042 0.31196 1.0508 0.93555 1.0508s0.93555-0.35036 0.93555-1.0508c0-0.77551-0.2588-1.1888-0.74805-1.2773zm-17.258-115.87c-0.62359 0-0.93555 0.35036-0.93555 1.0508s0.31195 1.0508 0.93555 1.0508c0.46769 0 0.70117-0.35036 0.70117-1.0508s-0.23348-1.0508-0.70117-1.0508zm-25.021 2.1016-0.93555 1.0508h0.93555v-1.0508zm40.922 0 1.1699 1.0508v-1.0508h-1.1699zm-26.893 1.0508-0.4668 2.0996c-0.15589 0.52532-0.31089 1.1394-0.4668 1.8398 0 0.70042-0.078482 1.226-0.23438 1.5762v0.52539 0.78711c0.3118-0.17509 0.70028-0.52545 1.168-1.0508 0.6236-0.52532 0.93555-0.96229 0.93555-1.3125 0.15589-0.35021 0.31285-1.0509 0.46875-2.1016 0.15589-1.2257 0.23438-2.0131 0.23438-2.3633h-1.6387zm-10.99 1.3125c-0.4677 0-0.70117 0.35036-0.70117 1.0508 0 0.52532 0.23348 0.78711 0.70117 0.78711 0.46769 0 0.70117-0.26179 0.70117-0.78711 0-0.70042-0.23348-1.0508-0.70117-1.0508zm40.924 1.8379c-0.15589 0.17509-0.31284 0.43884-0.46875 0.78906 0 0.17509-0.07653 0.35027-0.23242 0.52539 0 0.17509-0.07848 0.61206-0.23437 1.3125-0.1559 0.52532-0.23438 0.87568-0.23438 1.0508h1.1699v-3.6777zm34.375 0c-0.31179 0-0.46679 0.26375-0.46679 0.78906 0 0.35021 0.155 0.52539 0.46679 0.52539 0.3118-0.35021 0.3118-0.78914 0-1.3145zm-23.15 1.3145c-0.62359 0-0.93554 0.35035-0.93554 1.0508 0 0.17509-0.07849 0.35027-0.23438 0.52539v0.26172 0.78906 1.0508c0 0.35021 0.07848 0.612 0.23438 0.78711 0 0.35021 0.23347 0.96236 0.70117 1.8379 0.46769 0.70043 0.85812 1.226 1.1699 1.5762v-1.5762c0.15589-0.87553 0.23437-1.4877 0.23437-1.8379 0-0.35021-0.07848-0.96236-0.23437-1.8379v-1.5762c0-0.70043-0.31195-1.0508-0.93555-1.0508zm-42.326 4.4648c-0.6236 0-0.93555 0.35036-0.93555 1.0508 0 0.70042 0.31195 1.0508 0.93555 1.0508 0.62359 0 0.93555-0.35036 0.93555-1.0508 0-0.70042-0.31196-1.0508-0.93555-1.0508zm-3.9766 2.1016v1.3125h1.1699v-1.3125h-1.1699zm53.318 0c0 0.17509-0.15696 0.43688-0.46875 0.78711-0.3118 0.35021-0.54527 0.52539-0.70117 0.52539l-0.93555 0.52539c-0.3118 0.17509-0.54528 0.35027-0.70117 0.52539-0.1559 0-0.38937 0.17518-0.70117 0.52539-0.3118 0.35021-0.46876 0.61395-0.46876 0.78906l-0.23242 0.26172v0.52539c0 0.17509 0.07653 0.26367 0.23242 0.26367 0.1559 0.35021 0.46785 0.96236 0.93555 1.8379 0.4677 0.87553 0.77965 1.3125 0.93555 1.3125 0 0.17509 0.07848 0.26367 0.23437 0.26367h0.4668c0.15589 0 0.23438-0.088579 0.23438-0.26367 0.15589-0.17509 0.38936-0.78724 0.70117-1.8379 0.31179-1.2257 0.46875-2.0131 0.46875-2.3633 0-0.35021 0.07848-0.96431 0.23437-1.8398 0.3118-0.87553 0.54528-1.4877 0.70117-1.8379h-0.46875-0.46679zm20.111 0c-0.1559 0.17509-0.39133 0.43688-0.70313 0.78711-0.15589 0.17509-0.23242 0.35027-0.23242 0.52539-0.15589 0.35021-0.31285 0.78913-0.46875 1.3145v1.0508h1.4043v-3.6777zm-12.395 7.8789v2.3652c0.1559 1.2257 0.3109 2.0131 0.4668 2.3633 0 0.17509 0.07848 0.43689 0.23438 0.78711 0.31179 0.35022 0.54527 0.52539 0.70117 0.52539 0.15589 0 0.31285-0.17518 0.46875-0.52539 0.15589-0.35021 0.31089-0.612 0.4668-0.78711 0.62359-1.0506 0.93554-1.838 0.93554-2.3633 0-0.17509-0.31195-0.52545-0.93554-1.0508-0.4677-0.52532-0.77965-0.96424-0.93555-1.3145h-1.4024zm-1.8711 6.8301v1.0508l1.1699-1.0508h-1.1699zm-57.994 2.3633c-0.62359 0-0.93555 0.43892-0.93555 1.3145 0 0.70042 0.31196 1.0488 0.93555 1.0488 0.62359 0 0.93555-0.3484 0.93555-1.0488 0-0.87553-0.31195-1.3145-0.93555-1.3145zm66.18 8.9316c-0.3118 0.17509-0.70223 0.52349-1.1699 1.0488-0.4677 0.52532-0.70118 0.96424-0.70118 1.3145-0.15589 0.35021-0.31284 0.87575-0.46875 1.5762-0.15589 0.52532-0.23242 0.87567-0.23242 1.0508h1.4024c0.62359-0.17509 1.014-0.26367 1.1699-0.26367 0.15589-0.17509 0.31089-0.35027 0.46679-0.52539 0.1559-0.35021 0.31285-0.612 0.46875-0.78711v-1.0508-1.0508c-0.15589-0.17509-0.31284-0.35027-0.46875-0.52539-0.15589-0.35021-0.31089-0.612-0.46679-0.78711zm11.225 2.3633v1.0508h0.93554v-1.0508h-0.93554zm-3.9766 3.6777c-0.62359 0-0.93554 0.35036-0.93554 1.0508 0 0.52532 0.31195 0.78711 0.93554 0.78711 0.3118 0 0.46875-0.26179 0.46875-0.78711 0-0.70042-0.15695-1.0508-0.46875-1.0508zm-56.357 30.205-1.168 1.3125h1.168v-1.3125zm-19.176 3.1523c0.15589 0 8.92e-4 0.26179-0.4668 0.78711l-0.4668 0.52539c-0.15589 0.35021-0.31285 1.1395-0.46875 2.3652-0.15589 1.2257-0.23438 1.9245-0.23438 2.0996h1.6367c0.6236 0 0.93555-0.35036 0.93555-1.0508 0.15589-0.35021 0.31285-1.1375 0.46875-2.3633 0.3118-1.2257 0.54527-2.0131 0.70117-2.3633h-1.1699-0.93555zm75.533 1.3125c-0.46769 0-0.70117 0.26375-0.70117 0.78906 0 0.35022 0.23348 0.52539 0.70117 0.52539 0.7795-0.87553 0.7795-1.3144 0-1.3144zm-71.09 1.8398c-0.4677 0-0.70117 0.17518-0.70117 0.52539 0.77949 0.87553 1.1699 0.87553 1.1699 0 0.3118-0.35021 0.15484-0.52539-0.46875-0.52539zm43.73 29.68c-0.46769 0-0.70117 0.43697-0.70117 1.3125 0 0.70043 0.23348 1.0508 0.70117 1.0508 0.4677 0 0.70117-0.35035 0.70117-1.0508 0-0.87553-0.23347-1.3125-0.70117-1.3125zm15.199 2.3633c-0.4677 0-0.70117 0.35036-0.70117 1.0508 0 0.70042 0.23347 1.0508 0.70117 1.0508 0.46769 0 0.70117-0.35036 0.70117-1.0508 0-0.70043-0.23348-1.0508-0.70117-1.0508zm-50.277 2.1016c-0.3118 0-0.4668 0.26374-0.4668 0.78906s0.155 0.7005 0.4668 0.52539c0.3118-0.17509 0.46875-0.35027 0.46875-0.52539 0-0.35021-0.15695-0.61396-0.46875-0.78906zm-6.0801 2.3652-0.93555 1.0488 0.93555 1.0508 0.93555-1.0508-0.93555-1.0488zm7.0156 0.52539v0.78711c0 0.17509 0.078482 0.43688 0.23438 0.78711 0 0.17509 0.078482 0.61402 0.23438 1.3144 0.3118 0.52532 0.4668 0.87568 0.4668 1.0508 0.15589 0.35022 0.15589 1.1375 0 2.3633v2.1016l0.93555 1.0508c0.3118-0.17509 0.54527-0.70063 0.70117-1.5762 0.31179-0.87554 0.46875-1.4877 0.46875-1.8379v-2.1016-2.3652l-0.46875-0.52539c-0.15589-0.17509-0.31089-0.26172-0.4668-0.26172l-0.23438-0.26367c-0.3118 0-0.62375-0.08663-0.93555-0.26172h-0.70117c-0.15589 0-0.23438-0.08663-0.23438-0.26172zm34.143 1.5742v2.3652h0.93555v-2.3652h-0.93555zm-44.898 1.3144c-0.15589 0.1751-0.38937 0.52545-0.70117 1.0508-0.15589 0.52532-0.31285 0.87568-0.46875 1.0508v0.52539 0.52539c0.15589 0.52532 0.31284 1.2241 0.46875 2.0996 0.3118 0.87553 0.54527 1.3144 0.70117 1.3144 0.15589 0.35021 0.38937 0.78718 0.70117 1.3125 0.4677 0.52532 0.77965 0.87567 0.93555 1.0508v-7.8789c0-0.17509-0.39043-0.52544-1.1699-1.0508h-0.23438-0.23242zm-3.2754 6.5664-0.93359 1.3125h0.93359v-1.3125zm25.023 9.1934-0.93555 1.0508h0.93555v-1.0508z" fill="#FDE74C" fill-rule="evenodd"/>
</svg>
