<?xml version="1.0" encoding="UTF-8"?>
<svg width="50" height="50" version="1.1" viewBox="0 0 52.917 52.917" xmlns="http://www.w3.org/2000/svg">
 <path transform="scale(.26458)" d="m99.908 0a99.908 99.908 0 0 0-99.908 99.908 99.908 99.908 0 0 0 99.908 99.908 99.908 99.908 0 0 0 99.908-99.908 99.908 99.908 0 0 0-63.359-92.982l3.6152 14.053 0.99609 1.3145v2.8887c0.13289 1.7511 0.20117 3.0639 0.20117 3.9395 0 2.9768-0.06828 5.9548-0.20117 8.9316 0 2.9768-0.33176 5.9529-0.99609 8.9297h-0.39844-0.59766l-1.9922-2.627-0.39843-0.26172-0.59961 0.26172c-0.26574 0.35022-0.92925 1.0509-1.9922 2.1016-1.0629 0.87553-1.7264 1.4877-1.9922 1.8379-0.53147-1.4009-1.396-2.3634-2.5918-2.8887-1.0629-0.70043-2.1265-1.0508-3.1895-1.0508v-1.8379c-0.66433 0-1.9933 0.17518-3.9863 0.52539-1.993 0.17509-3.32 0.17509-3.9844 0-0.13286 0-0.46657-0.17518-0.99805-0.52539-0.53147-0.35021-0.86323-0.52539-0.99609-0.52539-0.26574-0.17509-1.1946-0.43884-2.7891-0.78906-1.4615-0.35021-2.4588-0.612-2.9902-0.78711h-1.5938-1.3965c-0.13287 0-0.46462 0.26179-0.9961 0.78711-0.53147 0.52532-0.86322 0.78906-0.99609 0.78906h-1.1953-2.1934-2.1914-1.1953c-0.13286 0-0.66563 0.17518-1.5957 0.52539-0.7972 0.35021-1.2617 0.52539-1.3945 0.52539h-2.9902c-0.13286 0-0.46462 0.26179-0.99609 0.78711-0.53147 0.35021-1.1286 0.78913-1.793 1.3145-0.66434 0.35021-1.3298 0.78718-1.9941 1.3125-0.53147 0.35021-0.86323 0.52539-0.99609 0.52539h-2.9902c-1.7273 0.35021-3.3217 1.2261-4.7832 2.627-1.3287 1.2257-2.6557 2.5386-3.9844 3.9395-1.3287 1.2257-2.724 2.3634-4.1855 3.4141-1.3287 1.0506-2.7904 1.5762-4.3848 1.5762-0.26574 0-1.0639 0.088554-2.3926 0.26367-1.1958 0.17512-1.8593-0.35042-1.9922-1.5762-1.3287 1.2257-2.1932 2.889-2.5918 4.9902-0.26573 1.9262-1.0619 3.3276-2.3906 4.2031 0.26574-0.52532 0.26574-1.4012 0-2.627-0.26573-1.4008-0.59749-2.2767-0.99609-2.627h-0.59961-0.59766c-0.13289-0.17512-0.26559-0.26367-0.39844-0.26367-1.0629 0-2.0582 0.35035-2.9883 1.0508-0.79721 0.70042-1.1973 1.9267-1.1973 3.6777 0 1.9262 0.59911 3.239 1.7949 3.9395 1.1958 0.70042 2.3238 1.0508 3.3867 1.0508 0 0.35021-0.06633 0.61396-0.19922 0.78906-0.26574 0.35021-0.79655 0.87575-1.5938 1.5762-0.7972 0.52532-1.2617 0.96229-1.3945 1.3125-0.13289 0.17512-0.33194 0.61209-0.59766 1.3125-0.26574 0.70043-0.39844 1.1393-0.39844 1.3145-0.7972 1.4009-1.8608 2.5385-3.1895 3.4141-1.3287 0.70043-2.5913 1.226-3.7871 1.5762-0.79721 0.35021-1.5934 0.35021-2.3906 0-0.66434-0.35021-1.1971 0.086753-1.5957 1.3125-0.13286 0.35021-0.33192 1.0509-0.59766 2.1016-0.13289 1.0506-0.19922 1.6647-0.19922 1.8398 0 0.35021 0.2654 1.2241 0.79688 2.625 0.53147 1.4009 0.86323 2.1901 0.99609 2.3652l0.19922 0.78711c0 0.17512-0.06633 0.26367-0.19922 0.26367v0.26172 0.26367c-0.13286 0.17512-0.46462 0.3503-0.99609 0.52539-0.53147 0.17512-0.79688 0.35029-0.79688 0.52539-0.13289 0.35021-0.066558 1.049 0.19922 2.0996 0.3986 1.0506 0.59766 1.6647 0.59766 1.8398 0 0.35021-0.1327 1.0509-0.39844 2.1016-0.26574 1.0506-0.39844 1.6628-0.39844 1.8379-0.66434 2.9768-1.0624 5.1656-1.1953 6.5664v6.041 4.2031c0.13289 1.4008 0.531 2.8023 1.1953 4.2031 0.7972 1.4008 1.6617 2.6251 2.5918 3.6758 1.0629 0.87553 2.1246 1.7514 3.1875 2.627 1.1958 0.70043 2.3921 1.4878 3.5879 2.3633 1.1958 0.87553 2.3257 1.84 3.3887 2.8906 1.993 2.1013 3.9192 4.3766 5.7793 6.8281 1.993 2.4515 4.3173 4.0281 6.9746 4.7285v1.3125h-0.99609v1.0508c0 0.17512 0.066355 0.26367 0.19922 0.26367h0.39844 0.39844c0.26573-0.17512 0.73214-0.3503 1.3965-0.52539 0.7972-0.35021 1.328-0.61396 1.5938-0.78906v0.52539c0 0.87553-0.19906 1.6648-0.59766 2.3652-0.3986 0.70043-0.59766 1.4878-0.59766 2.3633v1.3125l2.9883 3.9414c1.4615-1.576 2.4588-3.3277 2.9902-5.2539 0.66434-1.9262 1.927-2.8887 3.7871-2.8887 0.13289 0 0.33194 0.0866 0.59766 0.26172h0.79687 0.79688c0.26573 0 0.59944 0.43892 0.99805 1.3145 0.53147 0.70042 0.86323 1.0508 0.99609 1.0508 0.13289 0.17511 0.73005 0.26171 1.793 0.26172 1.0629-0.17512 1.7284-0.26172 1.9941-0.26172 0.26574 0 0.59749 0.26179 0.99609 0.78711 0.53147 0.52531 0.92958 0.78711 1.1953 0.78711 0.13286 0 0.53097 0.08855 1.1953 0.26367 0.79721 0.17511 1.5954 0.35029 2.3926 0.52539 0.93007 0 1.7263 0.0866 2.3906 0.26172 0.7972 0.17511 1.3963 0.26367 1.7949 0.26367h2.3906c1.4615-0.17512 2.3261-0.17512 2.5918 0 0.53147 0 0.79688 0.35035 0.79688 1.0508h9.9648c0.13289 0 0.46465 0.26179 0.9961 0.78711 0.53146 0.52532 0.86322 0.78906 0.99609 0.78906h3.5879c3.1888 0 6.2449-0.70071 9.168-2.1016 3.056-1.4008 6.2447-2.1016 9.5664-2.1016 0.13287 0 0.26557 0.0866 0.39844 0.26172h0.39844 0.39844c0.3986 0.17511 1.1968 0.78921 2.3926 1.8398 1.3287 0.87553 2.1912 1.5762 2.5898 2.1016 0.66433-1.2258 1.4625-2.1902 2.3926-2.8906 0.93007-0.87554 1.7926-1.7495 2.5898-2.625 0.93007-0.87554 1.6619-1.84 2.1934-2.8906 0.66434-1.0506 0.99609-2.3635 0.99609-3.9394 0-1.7511-0.33175-3.1525-0.99609-4.2031-0.53147-1.2257-1.195-2.2748-1.9922-3.1504-0.7972-1.0506-1.5954-2.0151-2.3926-2.8906-0.79721-0.87554-1.3944-2.0132-1.793-3.4141-0.26574-0.35022-0.19941-1.0509 0.19921-2.1016 0.39861-1.0506 0.59766-1.7514 0.59766-2.1016-0.26573 0-0.9312-0.17518-1.9941-0.52539-0.93007-0.52532-1.5272-0.7005-1.793-0.52539-0.26573 0.17512-0.59749 0.87583-0.99609 2.1016-0.3986 1.0506-0.73036 1.6647-0.9961 1.8398-0.13286 0.17511-0.73198-6e-5 -1.7949-0.5254-1.0629-0.52531-1.7264-0.78906-1.9922-0.78906h-2.5918c-1.1958-0.17512-2.4584-0.26172-3.7871-0.26172h-3.9844c-1.1958-0.17511-2.0603-0.26367-2.5918-0.26367v-1.8379h-0.39844-0.39844c-0.13289 0-0.19922-0.08855-0.19922-0.26367 0 0.17512-0.1327 0.43886-0.39843 0.78906-0.26574 0.17512-0.46479 0.3503-0.59766 0.52539h-0.39844c-2.2587 0-4.5186-0.87589-6.7773-2.627-2.2588-1.7511-3.3887-4.3787-3.3887-7.8809h4.7832c-0.66434-1.7511-1.925-2.5384-3.7852-2.3633-1.7273 0.17512-3.0562 0.26367-3.9863 0.26367v3.6758c-1.5944 0-3.1224-0.0866-4.584-0.26172s-2.9232-0.61404-4.3848-1.3144v-3.6758c0-0.17512-0.19905-0.61404-0.59766-1.3144-0.26573-0.70043-0.39844-1.1374-0.39844-1.3125 0-0.17512 0.1327-0.3503 0.39844-0.5254 0.3986-0.35021 0.59766-0.61395 0.59766-0.78906v-2.0996c0-1.2257-0.3981-2.452-1.1953-3.6777-0.7972-1.2258-1.7281-1.4895-2.791-0.78906l1.9922-10.242c0-0.17512 0.26736-0.43886 0.79883-0.78906l1.1953-0.78711h0.39844 0.59766l1.1953 1.5762c0.53147 0.52532 0.79883 0.87568 0.79883 1.0508 0 0.35021-0.13466 0.8738-0.40039 1.5742-0.13286 0.52532-0.19922 0.96424-0.19922 1.3145h1.5957c0.26574-2.1013 0.46479-4.29 0.59766-6.5664 0.26574-2.2764 0.7302-4.4651 1.3945-6.5664h0.39844 0.19922c0-0.17512 0.06633-0.26367 0.19922-0.26367 0.93007 0 1.3965 0.52553 1.3965 1.5762s0.39811 1.5762 1.1953 1.5762l0.39844-0.26172c0.13289 0 0.46465-0.17518 0.99609-0.52539 0.53147-0.52532 0.86323-0.78906 0.9961-0.78906h0.59961c0.53147 0 0.99593 0.35036 1.3945 1.0508 0.3986 0.70043 0.73036 1.4878 0.99609 2.3633 0.26574 0.87553 0.46479 1.7514 0.59766 2.627 0.26573 0.87553 0.39844 1.4896 0.39844 1.8398 1.5944-0.87553 3.3215-1.6648 5.1816-2.3652 1.993-0.70043 3.521-2.0999 4.584-4.2012 0 0.35021 0.1327 0.87379 0.39844 1.5742 0.26573 0.52532 0.53309 0.87567 0.79883 1.0508 0 0.17512 0.06633 0.26367 0.19922 0.26367h0.59765c1.0629 0 1.9919-0.26374 2.7891-0.78906 0.79721-0.70043 1.7281-1.0488 2.791-1.0488v2.8887c0.13289 1.4009 0.19922 2.2767 0.19922 2.627 0.13286 0.17512 0.33192 0.43691 0.59765 0.78711 0.26574 0.17512 0.46479 0.26367 0.59766 0.26367 0.13289-0.35022 0.26559-0.96431 0.39844-1.8398 0.13289-0.87553 0.33194-1.4877 0.59765-1.8379 0-0.17512 0.13466-0.43886 0.40039-0.78906l0.39844-0.52539c0.26574 0 0.59749 0.17518 0.9961 0.52539 0.53147 0.17512 0.86322 0.43886 0.99609 0.78906-0.26573-1.4009-0.33206-2.5385-0.19922-3.4141 0.26574-0.87553 0.53114-1.6648 0.79688-2.3652 0.26573-0.87553 0.53114-1.6629 0.79687-2.3633 0.26573-0.87554 0.46479-2.0132 0.59766-3.4141 0.3986 0 1.1968 0.35036 2.3926 1.0508 1.1958 0.52532 1.7266 1.3993 1.5938 2.625 0 0.35021-0.33176 0.87575-0.9961 1.5762-0.53147 0.52532-0.86322 0.87568-0.99609 1.0508-0.13289 0.35021-0.06653 0.96431 0.19922 1.8398 0.26573 0.87553 0.39843 1.4877 0.39843 1.8379 1.0629 0 1.5938-1.2262 1.5938-3.6777h8.1719c0 1.576 0.33176 2.7136 0.99609 3.4141 0.79721 0.52532 1.1953 1.4898 1.1953 2.8906h1.1973c0.3986-1.0506 0.86306-2.3635 1.3945-3.9395s1.396-2.3652 2.5918-2.3652h0.99609c-0.26573 0.17512-0.53114 0.61404-0.79687 1.3145-0.13289 0.52532-0.19922 0.96229-0.19922 1.3125 0 0.17512 0.2654 0.43691 0.79687 0.78711 0.53147 0.35021 1.1286 0.70057 1.793 1.0508 0.66434 0.17512 1.2615 0.3503 1.793 0.52539 0.53147 0.17512 0.86518 0.26367 0.99805 0.26367h0.59766c0.93007-1.576 1.5272-3.2392 1.793-4.9902 0.39861-1.7511 0.59766-3.5895 0.59766-5.5156h2.5918v2.625h0.79687l1.9922-5.252c0.26574 0.52532 0.9312 1.4878 1.9941 2.8887 1.0629 1.2257 1.7264 2.0131 1.9922 2.3633 0.13289 0.17512 0.46659 0.26367 0.99804 0.26367 0.53147-0.17512 0.86323-0.26367 0.9961-0.26367 0.26573 0.35021 0.59749 1.2261 0.99609 2.627l0.9961 2.627h6.9766c0.13286 0.87553 0.39827 1.7514 0.79687 2.627 0.53147 0.87553 1.195 1.3125 1.9922 1.3125 1.3287 0 2.3259-0.87589 2.9902-2.627 0.7972-1.7511 1.9271-2.625 3.3887-2.625h0.39843c-0.13288 0.17512-0.33194 0.61208-0.59765 1.3125-0.13289 0.52532-0.20117 0.96229-0.20117 1.3125v2.627 3.9395c0.13288 1.2257 0.20117 2.452 0.20117 3.6777 0.13286 1.2258 0.19922 2.1016 0.19922 2.627 0.7972 0 1.328-0.35036 1.5938-1.0508 0.26573-0.70042 0.39843-1.5763 0.39843-2.6269 0.13289-1.0506 0.13289-2.1017 0-3.1523v-2.8887c0.79721 0 1.2617 1.0511 1.3945 3.1523 0.13286 1.9262 0.19921 3.3276 0.19921 4.2031 0 1.9262-0.2654 3.0638-0.79687 3.4141-0.3986 0.35021-0.92941 0.70056-1.5938 1.0508-0.53147 0.17512-1.0642 0.78726-1.5957 1.8379-0.39861 0.87553-0.59766 2.7139-0.59766 5.5156-0.93007 0-1.3945-0.52553-1.3945-1.5762 0.13286-1.0506 0.19922-1.9246 0.19922-2.625h-6.1777c-0.13286 1.2258-0.93103 2.5386-2.3926 3.9395-1.4616 1.4008-3.1223 2.7137-4.9824 3.9394-1.7273 1.0506-3.5207 2.0131-5.3809 2.8887-1.7273 0.70043-3.0562 1.0508-3.9863 1.0508v-0.78711c0-0.35021 0.06633-0.61396 0.19921-0.78906l0.79688-1.0488c0-1.9262-0.19906-3.4162-0.59766-4.4668-0.26573-1.2257-0.92925-1.8379-1.9922-1.8379 0 1.4008 0.06633 2.4519 0.19921 3.1524 0.26574 0.52531 0.39844 1.3126 0.39844 2.3633v0.78906c-0.13289 0.35021-0.33194 1.049-0.59765 2.0996-0.13289 1.0506-0.19922 1.6647-0.19922 1.8398-0.26574 0.17512-0.99756 0.61209-2.1934 1.3125-1.1958 0.52532-1.8593 0.96424-1.9922 1.3145-0.13286 0.35021-0.13286 1.1375 0 2.3633 0.13289 1.0506 0.13289 2.1883 0 3.4141 0 1.0506-0.19905 2.0131-0.59766 2.8887-0.26573 0.70043-0.99755 0.78898-2.1934 0.26368-0.66433 1.9262-0.99609 4.0264-0.99609 6.3027v6.5684 7.6172c0.26573 0 0.73215 0.17322 1.3965 0.52343 0.79721 0.35022 1.328 0.70057 1.5938 1.0508v0.26367c0 1.4008-0.26541 2.4519-0.79688 3.1523-0.3986 0.52532-0.86501 1.0508-1.3965 1.5762-0.39861 0.35022-0.86307 0.78718-1.3945 1.3125-0.3986 0.52532-0.59765 1.3126-0.59765 2.3633v1.5762c0.13286 0.70042 0.19922 1.1393 0.19922 1.3144 0 0.17512 0.1327 0.61208 0.39843 1.3125 0.39861 0.70042 0.59766 1.1374 0.59766 1.3125 0 1.2257-0.33176 2.452-0.99609 3.6777-0.53147 1.2258-1.195 2.1882-1.9922 2.8887h-0.99805c-0.53147-0.17512-0.86323-0.17512-0.99609 0-0.13289 0-0.33194 0.43892-0.59766 1.3144-0.26573 0.70043-0.39844 1.1374-0.39844 1.3125-0.3986 1.0506-0.86305 1.6647-1.3945 1.8398-0.53147 0.17512-1.0642 0.26172-1.5957 0.26172h-1.5938c-0.53147-0.17512-0.99593-0.08656-1.3945 0.26367 0 0.17512-0.26541 0.70065-0.79688 1.5762l-1.1973 2.3633c0 0.35021-0.26541 1.2261-0.79688 2.627s-0.86322 2.2748-0.99609 2.625h-0.99609c-0.26574-1.0506-0.6658-2.1883-1.1973-3.4141-0.3986-1.2258-0.99576-2.2768-1.793-3.1524-0.26573-0.17512-0.79654-0.61208-1.5938-1.3125-0.7972-0.52532-1.2636-0.96228-1.3965-1.3125 0.13289-0.17512 0.19922-0.35029 0.19922-0.52539 0-0.35021 0.06831-0.61395 0.20117-0.78906 0.13286-0.35021 0.33192-0.70057 0.59765-1.0508 0-0.52532-0.3337-1.0508-0.99804-1.5762h-0.39844-0.39844c-0.3986 0.17511-1.0621 0.52547-1.9922 1.0508-0.93008 0.35021-1.9273 0.70057-2.9902 1.0508s-2.0582 0.70057-2.9883 1.0508-1.5955 0.61396-1.9941 0.78906c-0.3986 1.4009-0.86306 1.8378-1.3945 1.3125-0.3986-0.52532-0.86306-0.43676-1.3945 0.26367-0.13287 0-0.46658 0.43697-0.99805 1.3125l-1.1953 2.3633c0 0.17511-0.19906 0.61403-0.59766 1.3144-0.26573 0.70042-0.39844 1.1374-0.39844 1.3125 0 0.17512-0.1327 0.43886-0.39843 0.78906-0.26574 0.35021-0.46479 0.52539-0.59766 0.52539-0.26573 0-0.6658-0.17518-1.1973-0.52539-0.3986-0.35021-0.664-0.61395-0.79687-0.78906 0.3986-0.35021 0.79866-1.2261 1.1973-2.627 0.53147-1.2258 0.79688-2.1016 0.79688-2.627 0-0.35021-0.26541-0.87379-0.79688-1.5742-0.3986-0.70042-0.79866-1.0508-1.1973-1.0508-0.66434 1.4008-1.5269 2.45-2.5898 3.1504-1.0629 0.87553-2.1265 1.5762-3.1894 2.1016 0.26574 0.70042 3.3e-4 1.5763-0.79687 2.627-0.3986 0.52532-0.79671 0.96424-1.1953 1.3144-0.66433-0.17512-1.0644-0.61404-1.1973-1.3144v-1.8379c0-0.52532-0.13271-1.0508-0.39844-1.5762-0.13286-0.35022-0.59732-0.52539-1.3945-0.52539h-0.79687c-0.26574 0.35021-0.53114 0.96236-0.79688 1.8379-0.26574 1.0506-0.39844 1.7514-0.39844 2.1016 0-0.17512-0.26736-0.43691-0.79883-0.78711-0.53146-0.35021-0.86322-0.52539-0.99609-0.52539-0.13289 0-0.33194 0.17518-0.59766 0.52539-0.26573 0.52532-0.46479 0.78711-0.59765 0.78711l-0.39844 0.26367c-0.3986 0-0.66401-0.43892-0.79687-1.3144-0.13286-0.70043-0.33192-1.5763-0.59766-2.627-0.26573-0.87553-0.6658-1.7514-1.1973-2.627-0.3986-0.87553-0.99576-1.3991-1.793-1.5742-0.13286 1.4008-0.46462 2.6252-0.99609 3.6758-0.3986 1.2258-1.0641 2.1902-1.9941 2.8906-0.26574-1.2257-0.7302-2.452-1.3945-3.6777-0.53147-1.0506-1.0623-2.0131-1.5938-2.8887-0.3986 0-0.99772 0.0866-1.7949 0.26172-0.79721 0.17512-1.6598 0.3503-2.5898 0.52539-0.93007 0.17512-1.8609 0.3503-2.791 0.52539-0.79721 0.17512-1.328 0.26367-1.5938 0.26367-0.13286 0-0.46462 0.08661-0.99609 0.26172-0.3986 0.35021-0.73231 0.612-0.99805 0.78711 0.26573-0.87553 0.13303-1.838-0.39844-2.8887-0.3986-1.2257-0.92942-1.9264-1.5938-2.1016-0.53147-0.17512-1.0623 6e-5 -1.5938 0.52539-0.53147 0.52532-1.1306 1.1394-1.7949 1.8398l-1.5938 1.5762c-0.53147 0.70043-0.99593 1.0488-1.3945 1.0488h-0.59961c-0.3986-0.17512-1.3275-0.61208-2.7891-1.3125-1.4615-0.52532-2.4588-0.96228-2.9902-1.3125l-0.19922-0.52539 0.19922-0.52539c0-0.35021 0.1327-0.61396 0.39844-0.78906 0.26573-0.35021 0.46479-0.52539 0.59766-0.52539l0.99805 1.3144v-3.416c-0.26573 0-0.9312 0.17517-1.9941 0.52539-1.0629 0.17511-1.7265 0.17511-1.9922 0-0.3986 0-0.73036-0.35036-0.99609-1.0508-0.66434-1.4008-1.5289-2.7137-2.5918-3.9395-0.93007-1.4008-1.9936-2.2767-3.1895-2.627-0.13289 0-0.46465 0.26374-0.99609 0.78906-0.53147 0.35021-0.86323 0.52539-0.99609 0.52539-0.26573 0-0.79654 0.0866-1.5938 0.26172h-1.3965v-4.2012c-0.3986-0.35021-1.2612-1.1395-2.5898-2.3652-1.3287-1.4008-2.1268-2.2767-2.3926-2.627-0.13289-0.17512-0.73005-0.08656-1.793 0.26367-1.0629 0.35022-1.5938 0.43682-1.5938 0.26172v-1.3125c0.13289-0.70042 0.26559-1.4878 0.39844-2.3633 0.13289-0.87553 0.19922-1.6648 0.19922-2.3652v-1.0508c-0.13289-0.17512-0.4666-0.17512-0.99805 0-0.53147 0.17511-1.195 0.35029-1.9922 0.52539-0.66434 0.17511-1.3278 0.35029-1.9922 0.52539-0.53147 0.17511-0.86518 0.17511-0.99805 0-0.66434-0.35022-0.99609-0.78718-0.99609-1.3125v-2.1016c0.13288-0.70042 0.19922-1.3126 0.19922-1.8379s-0.39811-0.87567-1.1953-1.0508c-0.26574-0.17512-0.92925-0.17512-1.9922 0s-1.7284 0.17512-1.9941 0c-0.26575-0.35021-0.46479-1.2261-0.59766-2.627-0.13287-1.4008-0.26557-2.1882-0.39844-2.3633-0.26574-0.87554-0.59749-1.4011-0.99609-1.5762-0.3986-0.17512-0.93137-0.26368-1.5957-0.26368-1.3287 0-2.1249 0.52554-2.3906 1.5762s-0.39844 2.5387-0.39844 4.4648c-0.53147 0-1.1969-0.43697-1.9941-1.3125-0.66435-0.8756-1.3279-1.838-1.9922-2.8887-0.66434-1.2258-1.2615-2.3654-1.793-3.416-0.3986-1.0506-0.59961-1.7514-0.59961-2.1016-0.13287-0.52532-0.19922-1.7496-0.19922-3.6758 0-2.1013 0.06635-3.4141 0.19922-3.9394-0.26573-0.17512-1.062-0.52548-2.3906-1.0508-1.1958-0.52532-1.793-1.3146-1.793-2.3652 0.53147 0 0.59782-0.87589 0.19922-2.627-0.3986-1.7511-0.73231-2.7136-0.99805-2.8887l-3.5859-0.78711 8.3691-8.668c-0.13287-0.17512-0.066518-0.52548 0.19922-1.0508 0.26574-0.52532 0.59944-1.0509 0.99805-1.5762 0.3986-0.70042 0.73036-1.226 0.99609-1.5762 0.26574-0.52532 0.26574-0.78711 0-0.78711-0.26574 0.17512-0.79655-0.2638-1.5938-1.3144-0.7972-1.2257-1.2636-1.6627-1.3965-1.3125 0.26573 0.17512 0.46479 0.61208 0.59766 1.3125 0.26574 0.52532 0.39844 0.96424 0.39844 1.3144 0 0.17512-0.2654 0.43691-0.79688 0.78711-0.3986 0.35021-0.92941 0.87575-1.5938 1.5762-0.53147 0.70043-1.0623 1.4878-1.5938 2.3633-0.53147 0.87554-0.86518 1.84-0.99805 2.8906-0.13287-0.17509-0.33192-0.35027-0.59766-0.52539-0.13287-0.35021-0.26557-0.52539-0.39844-0.52539h-0.39844-0.39844c-0.26574 0-0.79655 0.17518-1.5938 0.52539-0.7972 0.35021-1.33 0.52539-1.5957 0.52539h-0.39844-0.39844c-0.7972-0.87553-1.1953-2.0152-1.1953-3.416v-3.9394-2.8887c0-1.576 0.066351-3.1526 0.19922-4.7285 0.13287-1.576 0.33192-2.9774 0.59766-4.2031 0.3986-1.2257 0.92941-1.8379 1.5938-1.8379 0 0.52532 0.066351 1.7516 0.19922 3.6777 0.26573 1.7511 0.46674 2.8021 0.59961 3.1523 1e-7 0.35021 0.26541 1.049 0.79687 2.0996 0.53147 0.87554 0.92958 1.4896 1.1953 1.8398h0.39844 0.39844c0.3986-0.35021 0.93137-0.78914 1.5957-1.3144 0.66434-0.70043 1.1288-1.1374 1.3945-1.3125l0.19922-0.26172c0-1.2258-0.19906-2.1902-0.59766-2.8906-0.3986-0.87553-0.59766-1.9266-0.59766-3.1523 0-3.327 0.66351-6.3897 1.9922-9.1914l-6.9746 1.0508c0-0.87553 0.19905-2.1018 0.59766-3.6777 0.3986-1.576 0.59766-3.4143 0.59766-5.5156 0-1.0506 0.46446-2.1903 1.3945-3.416 0.93007-1.2257 1.3945-2.3634 1.3945-3.4141v-0.78711c0.26573-0.17512 0.7985-0.3503 1.5957-0.52539 0.7972-0.17512 1.2617-0.3503 1.3945-0.52539l2.9902-3.9395c0.13287-0.17512 0.26557-0.61404 0.39844-1.3145 0.26574-0.70042 0.46479-1.1374 0.59766-1.3125 0.7972-1.0506 1.6598-1.7514 2.5898-2.1016 1.0629-0.35021 1.9938-0.52539 2.791-0.52539h1.9922c0.66434-0.17512 1.1308-0.61404 1.3965-1.3145 0.13287-0.35021 0.33192-1.3993 0.59766-3.1504 0.26573-1.7511 0.39844-2.8021 0.39844-3.1523 0.66434 0.52532 1.2615 1.663 1.793 3.4141 0.53147 1.576 0.93153 2.5385 1.1973 2.8887l1.9922-6.3027c0.93007 0.35021 1.6599 0.26166 2.1914-0.26367 0.53147-0.52532 0.79883-1.3126 0.79883-2.3633v-1.3125c-0.13288-0.35021-0.53294-0.96431-1.1973-1.8398-0.53147-1.0506-0.79688-1.7513-0.79688-2.1016-0.13288-0.35021-0.066533-1.049 0.19922-2.0996 0.26574-1.0506 0.53114-1.5762 0.79688-1.5762 0-0.17509 0.40006-0.17509 1.1973 0h1.793l1.793-2.3652c1.0629-1.4009 1.7284-2.45 1.9941-3.1504 0.13289-0.1751 0.26559-0.61403 0.39844-1.3145 0.13289-0.87553 0.26559-1.6629 0.39844-2.3633 0.13289-0.70042 0.33194-1.3145 0.59766-1.8398 0.3986-0.70042 0.92941-1.0488 1.5938-1.0488 1.0629 0 1.7948 0.52358 2.1934 1.5742 0.3986 0.87553 1.1285 1.3145 2.1914 1.3145h1.5957l0.79688-0.52539c0.26573-0.17511 0.46479-0.35028 0.59766-0.52539 0.13289-0.17511 0.26559-0.26367 0.39844-0.26367 0.93007 0.17511 1.6619 1.1396 2.1934 2.8906 0.53147 1.7511 1.1286 2.8887 1.793 3.4141 0.26574 0 0.59749-0.35036 0.99609-1.0508 0.53147-0.70042 0.92958-1.1374 1.1953-1.3125v-0.78906c0-1.4009-0.2654-2.5385-0.79688-3.4141-0.53147-1.0506-0.79688-2.2769-0.79688-3.6777h3.3887v-3.1523c2.7902-2.1013 4.5837-3.0638 5.3809-2.8887 0.93007 0 1.3945 0.70071 1.3945 2.1016 0.13286 1.2257 0.066532 2.889-0.19922 4.9902-0.26574 1.9262-0.13303 3.6779 0.39844 5.2539 0.66434-1.0506 1.5289-1.8399 2.5918-2.3652 1.0629-0.52532 2.1246-0.52532 3.1875 0l-2.9883-5.252c0.26573-0.35021 0.53114-1.2261 0.79688-2.627 0.3986-1.576 0.73036-2.8022 0.99609-3.6777 0.3986-1.0506 0.79671-1.401 1.1953-1.0508 0.3986 0.35021 0.93137 2.2772 1.5957 5.7793v1.5762 2.3633c0.13286 0.70043 0.33192 1.4011 0.59766 2.1016 0.26574 0.52532 0.66384 0.78711 1.1953 0.78711h0.59766c0.26573 0 0.6658-0.086613 1.1973-0.26172 0.66434-0.1751 1.2615-0.35028 1.793-0.52539l1.9922-0.52539v-2.627h7.7734c-0.66434 1.576-0.99609 3.3277-0.99609 5.2539 0 1.2257 0.1327 2.1016 0.39844 2.627 0.26574 0.52532 0.79655 1.3126 1.5938 2.3633 0 0.17511 0.06633 0.26367 0.19922 0.26367h0.39844l0.39844-0.26367c0.26574 0 0.59944-0.43697 0.99805-1.3125v-0.52539-0.52539c0-0.35021-0.066356-1.1395-0.19922-2.3652-0.13289-1.4009-0.26559-2.8003-0.39844-4.2012 0-1.576-0.066356-2.9774-0.19922-4.2031s-0.20117-2.0131-0.20117-2.3633v-0.78906-0.52539c0.26574-0.17511 0.73215-0.4369 1.3965-0.78711 0.7972-0.35021 1.328-0.52539 1.5938-0.52539v-9.1934l1.1953-1.0508c0.79721-0.70043 1.3963-1.1374 1.7949-1.3125h0.39844c0.26574-0.17511 0.46479-0.26367 0.59766-0.26367 0 0.52532 0.2654 0.87567 0.79687 1.0508 0.66434 0.17511 1.3298 0.35028 1.9941 0.52539 0.66434 0.17511 1.2615 0.35028 1.793 0.52539 0.66434 0 0.99609 0.26179 0.99609 0.78711s-0.33175 1.5764-0.99609 3.1523l-1.9922 4.2031c-0.66433 1.4009-1.1971 2.7137-1.5957 3.9395-0.3986 1.0506-0.3986 1.5762 0 1.5762 1.0629 0 2.0602-0.78732 2.9902-2.3633 1.0629-1.576 1.7264-2.9774 1.9922-4.2031 0 0.70043 0.26541 2.0133 0.79688 3.9395 0.53147 1.9262 0.86518 3.239 0.99804 3.9395 0 0.1751 0.13271 0.43885 0.39844 0.78906 0.26574 0.17511 0.46479 0.35028 0.59766 0.52539 0.26573-0.87553 0.66384-1.3145 1.1953-1.3145 0.66434-0.17511 1.2615-0.26172 1.793-0.26172v3.6777c0.53147 0 1.1306 0.086614 1.7949 0.26172 0.79721 0.17511 1.1953-0.35043 1.1953-1.5762v-0.78711c-0.13289-0.17511-0.33192-0.35028-0.59765-0.52539-0.26574-0.35021-0.39844-0.61396-0.39844-0.78906 0-0.17511-0.26541-0.96243-0.79688-2.3633-0.3986-1.576-0.93136-3.2392-1.5957-4.9902-0.53147-1.7511-1.0623-3.3277-1.5938-4.7285-0.3986-1.576-0.5313-2.4518-0.39844-2.627l3.5879 4.7285c0.93008 1.2257 1.7263 2.3634 2.3906 3.4141 0.7972 1.0506 1.2617 1.4896 1.3945 1.3145l-0.59766-1.5762c-0.3986-1.2257-0.86306-2.452-1.3945-3.6777-0.3986-1.2257-0.7967-2.3634-1.1953-3.4141l-0.39844-1.8379c0.13287-1.0506 0.73003-1.6647 1.793-1.8398 1.1958-0.35021 2.4584-0.52539 3.7871-0.52539 1.4615 0 2.8569 0.088566 4.1856 0.26367 1.4615 0.17511 2.5232 0.26172 3.1875 0.26172 0 0.35021-0.06636 0.96431-0.19922 1.8398 0 0.70043 0.06636 1.4877 0.19922 2.3633 0.13286 0.70042 0.33387 1.4011 0.59961 2.1016 0.26573 0.70043 0.73019 1.0508 1.3945 1.0508h0.19922c0.26573-0.52532 0.46479-1.5764 0.59765-3.1523 0.26574-1.7511 0.46479-2.8887 0.59766-3.4141v-0.78906-0.26172c0.13289-0.17511 0.19922-0.35028 0.19922-0.52539l-0.19922-0.52539v-0.52539c-0.26575-0.35021-0.92925-0.78913-1.9922-1.3145-0.04165-0.031366-0.06684-0.04586-0.10742-0.076172a99.908 99.908 0 0 0-28.299-4.0918zm32.193 8.1094c0 1.7511 0.53081 2.625 1.5938 2.625s1.5938-0.87394 1.5938-2.625h-3.1875zm-41.256 1.3125v1.8379c0 0.70042-0.066356 1.8401-0.19922 3.416 0 1.4009-0.06633 2.8889-0.19922 4.4648-0.13289 1.576-0.3983 2.9774-0.79688 4.2031-0.26574 1.2257-0.6658 1.8379-1.1973 1.8379h-0.39844c-1e-6 -0.17511-0.066331-0.26367-0.19922-0.26367 0-0.70042-0.1327-2.0133-0.39844-3.9395-0.13286-1.9262-0.26558-3.239-0.39844-3.9395-0.13288-0.17511-0.46463-0.52546-0.99609-1.0508-0.53147-0.70042-0.92958-1.1374-1.1953-1.3125l-0.40039-0.26367c-1.7273 0-2.5898 1.0511-2.5898 3.1523 0 1.4009 0.19906 2.3634 0.59766 2.8887 0.53147 0.52532 0.99593 0.96424 1.3945 1.3145 0.53147 0.17511 0.99788 0.35028 1.3965 0.52539 0.53147 0 0.79688 0.26179 0.79688 0.78711 0 0.87553-0.59912 1.6629-1.7949 2.3633-1.0629 0.70043-1.7928 1.0508-2.1914 1.0508h-0.59766c-0.13283-0.17511-0.26556-0.26172-0.39844-0.26172-0.26573-0.52532-0.59749-1.663-0.99609-3.4141-0.26573-1.7511-0.59944-2.8021-0.99805-3.1523-0.66434-0.70043-0.99609-1.4011-0.99609-2.1016 0-0.70042 0.1327-1.3126 0.39844-1.8379 0.26573-0.52532 0.53114-0.96424 0.79688-1.3145 0.3986-0.52532 0.66596-0.96229 0.79883-1.3125 0-0.1751 0.26541-0.35028 0.79688-0.52539 0.53147-0.35021 0.92958-0.52539 1.1953-0.52539 0.26573-0.1751 0.79655-0.35028 1.5938-0.52539 0.93007-0.35021 1.8609-0.61396 2.791-0.78906 0.93007-0.35021 1.7926-0.612 2.5898-0.78711 0.79721-0.35021 1.3963-0.52539 1.7949-0.52539zm30.492 7.6172v2.627l1.1973-2.627h-1.1973zm8.3711 1.3125c-0.13286 0-0.39826 0.088567-0.79687 0.26367h-0.59766v2.8887h1.9922c1.0629-0.1751 1.662-0.78725 1.7949-1.8379-0.13289-0.70043-0.46659-1.0508-0.99804-1.0508-0.53147-0.1751-0.99593-0.26367-1.3945-0.26367zm5.5801 1.3145c-0.66434 0-0.99609 0.43697-0.99609 1.3125 0 0.87553 0.33175 1.3145 0.99609 1.3145 0.3986 0 0.59766-0.43892 0.59766-1.3145 0-0.87553-0.19906-1.3125-0.59766-1.3125zm-4.9824 4.9902c-0.26573 0-0.66384 0.17518-1.1953 0.52539-0.53147 0.1751-0.79688 0.52546-0.79688 1.0508 0 0.35021 0.26541 1.4879 0.79688 3.4141 0.53147 1.9262 0.92958 2.9772 1.1953 3.1523v-8.1426zm-25.51 0.26172v2.627h1.9922c0-1.7511-0.53081-2.627-1.5938-2.627h-0.39843zm18.535 0c-0.3986 0-0.59765 0.43892-0.59765 1.3145s0.19905 1.3125 0.59765 1.3125c0.53147 0 0.79688-0.43697 0.79688-1.3125s-0.26541-1.3145-0.79688-1.3145zm-59.99 3.9414v1.3125h0.99609v-1.3125h-0.99609zm72.346 1.0508c-0.93007 0-1.4609 0.61215-1.5938 1.8379-0.13286 1.0506-0.19922 1.9265-0.19922 2.627 0.66434 0 1.3278-0.088566 1.9922-0.26367 0.7972-0.35021 1.1973-1.0509 1.1973-2.1016v-0.52539c-0.13288-0.17511-0.33388-0.4369-0.5996-0.78711-0.13288-0.35021-0.26558-0.52539-0.39844-0.52539l-0.39844-0.26172zm-48.629 1.5742v1.3145h0.79688v-1.3145h-0.79688zm20.527 0v1.3145l0.99804-1.3145h-0.99804zm9.9648 0c-1.4615 0-2.8549 0.26374-4.1836 0.78906-1.1958 0.52532-2.5248 0.78711-3.9863 0.78711 0 1.576 0.72986 2.3652 2.1914 2.3652h0.99609l2.9902-0.78906c1.3287-0.35021 1.9922-0.612 1.9922-0.78711v-2.3652zm-34.877 2.168c-0.13287 0.043776-0.33192 0.19632-0.59766 0.45898-0.3986 0.52532-0.3986 0.96424 0 1.3145 0.26573 0.17511 0.53114 0.086539 0.79688-0.26367 0.26574-0.35021 0.26574-0.78718 0-1.3125 0-0.17511-0.066352-0.24104-0.19922-0.19726zm37.668 0.19726c-0.53147 0-0.79688 0.43697-0.79688 1.3125 0 0.87553 0.26541 1.3145 0.79688 1.3145 0.53147 0 0.79687-0.43892 0.79687-1.3145 0-0.87553-0.2654-1.3125-0.79687-1.3125zm-33.283 1.5762-0.99609 2.3633h0.99609v-2.3633zm-34.479 0.78711c-0.3986 0-0.99772 0.088566-1.7949 0.26367-0.66434 0-1.1288 0.43697-1.3945 1.3125l1.1953 1.5762h0.39844c0.66434 0 1.0644-0.35035 1.1973-1.0508 0.26573-0.70042 0.39844-1.4011 0.39844-2.1016zm74.738 1.5762c-0.53147 0-0.79883 0.43697-0.79883 1.3125 0 0.87553 0.26736 1.3145 0.79883 1.3145s0.79687-0.43892 0.79687-1.3145c0-0.87553-0.2654-1.3125-0.79687-1.3125zm7.373 0c-1.7273 0-2.5898 0.87589-2.5898 2.627v1.5762l3.9844-1.5762 0.19922-0.52539-0.19922-0.52539c0-0.35021-0.1327-0.61396-0.39844-0.78906-0.26573-0.35021-0.39844-0.612-0.39844-0.78711h-0.59765zm-88.092 1.5762-0.99609 1.0508h0.99609v-1.0508zm36.273 1.0508c-0.3986 0-0.59766 0.43697-0.59766 1.3125 0 0.87553 0.19905 1.3145 0.59766 1.3145 0.66434 0 0.99609-0.43892 0.99609-1.3145 0-0.87553-0.33176-1.3125-0.99609-1.3125zm-39.66 3.4141c-0.3986 0-0.53131 0.17518-0.39844 0.52539 0.13289 0.35022 0.26559 0.52539 0.39844 0.52539 0.26573 0 0.39844-0.17517 0.39844-0.52539 0.13289-0.35021 1.84e-4 -0.52539-0.39844-0.52539zm14.15 0.26367v2.8887c0.13289 0.87553 0.46464 1.7514 0.99609 2.627 0.26573-0.35021 0.46479-0.78913 0.59766-1.3145 0.13289-0.52532 0.26559-0.96229 0.39844-1.3125v-0.78906c0-0.87553-0.26541-1.3991-0.79688-1.5742-0.3986-0.35022-0.79671-0.52539-1.1953-0.52539zm9.7656 0.26172v2.627h1.1953v-2.627h-1.1953zm-25.512 2.627c-1.3287 0.87553-1.9922 2.1884-1.9922 3.9395v1.5762c0.13289 0.35021 0.46464 0.70057 0.99609 1.0508 0.26573-0.52532 0.46479-1.4012 0.59766-2.627 0.13286-1.4009 0.26557-2.2767 0.39844-2.627v-0.52539-0.78711zm8.9688 2.627v2.627h0.99805v-2.627h-0.99805zm6.7773 2.627v4.2012c0.66434 0 1.1288-0.35036 1.3945-1.0508 0.3986-0.70042 0.59766-1.3126 0.59766-1.8379 0-0.17512-0.1327-0.43886-0.39844-0.78906-0.13289-0.35021-0.33194-0.52344-0.59766-0.52344h-0.39844-0.59766zm-3.7871 1.3125v2.627h0.79688v-2.627h-0.79688zm-30.693 10.244c-0.13287 0.17512-0.46462 0.43691-0.99609 0.78711-0.3986 0.17512-0.73036 0.3503-0.99609 0.52539 0.66434 0.70043 1.3279 1.1393 1.9922 1.3145 0.7972 0.17512 1.5954 0.26172 2.3926 0.26172 0-0.70042-0.1327-1.3126-0.39844-1.8379-0.26573-0.70044-0.73019-1.0508-1.3945-1.0508h-0.59961zm-4.7832 10.238v7.8848l3.9863-1.3125 0.39844-1.0508c0-1.4008-0.39811-1.9264-1.1953-1.5762-0.66434 0.35021-1.3942-1.43e-4 -2.1914-1.0508-0.26573-0.35021-0.53309-0.96431-0.79883-1.8398-0.10677-0.42212-0.1568-0.74563-0.19922-1.0547zm27.504 1.3184c-0.26574 0-0.39844 0.26179-0.39844 0.78711s0.1327 0.78906 0.39844 0.78906c0.26573-0.17512 0.39844-0.43886 0.39844-0.78906 0-0.35021-0.1327-0.612-0.39844-0.78711zm123.77 9.7188c0 0.70042 0.06636 2.0999 0.19922 4.2012s0.59927 3.1523 1.3965 3.1523h0.39844c0.13286 0 0.19922-0.086601 0.19922-0.26172 0.26574 0 0.66384-0.17518 1.1953-0.52539l0.79688-0.52539v-0.78906c0-1.4009-0.46446-2.6251-1.3945-3.6758-0.79721-1.0506-1.7281-1.5762-2.791-1.5762zm-23.916 4.2012c-0.3986 0-0.59765 0.17518-0.59765 0.52539 0.13286 0.35021 0.33192 0.52539 0.59765 0.52539 0.26574 1e-6 0.4648-0.17518 0.59766-0.52539 0.13289-0.35021-0.06617-0.52539-0.59766-0.52539zm-128.35 2.8906c-0.53147 0-0.79688 0.43697-0.79688 1.3125 0 0.87553 0.2654 1.3145 0.79688 1.3145 0.53147 0 0.79688-0.43892 0.79688-1.3145 0-0.87553-0.26541-1.3125-0.79688-1.3125zm4.3848 1.0508c-0.7972-1e-6 -1.4607 0.35035-1.9922 1.0508-0.3986 0.52532-0.86502 1.2241-1.3965 2.0996l-0.19922 0.52539 0.19922 0.78906c0 0.17512 0.13466 0.43691 0.40039 0.78711 0.26574 0.17512 0.46479 0.26367 0.59766 0.26367l0.39844 0.26172c1.0629 0 1.6601-0.78732 1.793-2.3633 0.13287-1.576 0.19922-2.7136 0.19922-3.4141zm164.82 1.5762-1.793 2.8887c0 0.70042 0.2654 1.0508 0.79687 1.0508 0 0.17512 0.06633 0.26172 0.19922 0.26172h0.39844l0.39844-0.26172c0.13289 1e-6 0.33194-0.088553 0.59765-0.26367 0.26574-0.35021 0.39844-0.612 0.39844-0.78711l0.19922-0.78906c0-0.17512-0.06636-0.3503-0.19922-0.52539 0-0.17512-0.1327-0.43691-0.39844-0.78711l-0.59765-0.78711zm-16.143 1.3125c-0.13286 0-0.19922 0.086601-0.19922 0.26172h-0.19922-0.20117c-0.26574 0.17512-0.7302 0.78922-1.3945 1.8398-0.66434 1.0506-1.1288 1.7513-1.3945 2.1016-0.26574 0-0.39844 0.35036-0.39844 1.0508h5.3809c0-0.52532-0.1327-1.4898-0.39844-2.8906-0.13286-1.576-0.53097-2.3633-1.1953-2.3633zm-73.344 0.26172c-0.53147 0-0.79688 0.43892-0.79688 1.3145 0 0.70042 0.2654 1.0508 0.79688 1.0508 0.53147 1e-6 0.79688-0.35036 0.79688-1.0508 0-0.87553-0.26541-1.3145-0.79688-1.3145zm65.77 0c-0.53147 0.17512-0.86323 0.52548-0.99609 1.0508v1.3145 0.78711c0.13286 0.35021 0.19921 0.61396 0.19922 0.78906l0.79687-3.9414zm-48.031 2.3652v1.5762h0.99609v-1.5762h-0.99609zm-16.742 1.5762v2.3633c0.3986-0.17512 0.66401-0.52548 0.79688-1.0508 0.13289-0.52531 0.20117-0.96228 0.20117-1.3125h-0.99805zm6.9766 2.3633v1.3125h0.79687l-0.79687-1.3125zm70.752 0c-0.26574 0-0.46479 0.17517-0.59766 0.52539-0.13289 0.35021-0.26559 0.612-0.39844 0.78711 0.13287 0.35021 0.39827 0.70056 0.79688 1.0508 0.53147 0.17511 0.92958 0.26367 1.1953 0.26367 0.13286 0 0.33192-0.08856 0.59766-0.26367 0.26573-0.35022 0.39844-0.70057 0.39844-1.0508-0.13289-0.17512-0.33195-0.43691-0.59766-0.78711-0.13289-0.35022-0.26559-0.52539-0.39844-0.52539h-0.59765-0.39844zm-3.9863 6.5664c-0.53147 0.35022-0.86323 0.78718-0.99609 1.3125-0.13287 0.52532-0.19922 1.0508-0.19922 1.5762 0.7972 0 1.5271-0.52553 2.1914-1.5762l-0.99609-1.3125zm-7.7734 5.2539c-0.66434 0-0.99609 0.43697-0.99609 1.3125s0.33175 1.3144 0.99609 1.3144c0.3986 0 0.59766-0.43892 0.59766-1.3144s-0.19906-1.3125-0.59766-1.3125zm-25.709 7.6172v1.5762h0.99609v-1.5762h-0.99609zm10.961 3.9394 0.79687 1.3125v-1.3125h-0.79687zm5.7793 0c-0.66433 0.17512-0.99609 0.61209-0.99609 1.3125v2.1016c0 1.0506 0.06633 1.9265 0.19922 2.627 0.13286 0.70043 0.73198 1.3126 1.7949 1.8379l0.99609-2.625v-0.78907-0.52539c-0.13286-0.35021-0.46462-0.96236-0.99609-1.8379-0.3986-1.0506-0.73231-1.7514-0.99805-2.1016zm-6.7754 9.1934 0.9961 1.0508v-1.0508h-0.9961zm-127.95 2.627 0.79688 1.0488v-1.0488h-0.79688zm56.004 14.184c-0.53147 0-0.79688 0.43696-0.79688 1.3125 0 0.87553 0.2654 1.3125 0.79688 1.3125 0.53147-1e-5 0.79688-0.43697 0.79688-1.3125 0-0.87554-0.2654-1.3125-0.79688-1.3125zm-22.521 2.625-0.99609 1.3144h0.99609v-1.3144zm8.7695 0c-0.53147 0-0.79688 0.43892-0.79688 1.3144 0 0.70043 0.26541 1.0508 0.79688 1.0508 0.53147 0 0.79688-0.35035 0.79688-1.0508 0-0.87553-0.2654-1.3144-0.79688-1.3144zm85.699 1.3144c-0.26573 1.0506-0.59749 2.2769-0.99609 3.6777-0.26574 1.4008-0.39844 2.7137-0.39844 3.9395h1.3945v-7.6172zm-43.846 3.1523c-0.3986 0-0.59766 0.17518-0.59766 0.52539 0.13287 0.52532 0.33192 0.78711 0.59766 0.78711s0.46479-0.26179 0.59766-0.78711c0.13288-0.35021-0.06617-0.52539-0.59766-0.52539zm24.514 0c-0.3986 0-0.5313 0.17518-0.39844 0.52539 0.13289 0.52532 0.26559 0.78711 0.39844 0.78711 0.26573 0 0.39844-0.26179 0.39844-0.78711 0.26573-0.35021 0.13303-0.52539-0.39844-0.52539zm-59.654 4.416c-0.22421 0.03283-0.33594 0.31061-0.33594 0.83593s0.19906 0.7005 0.59766 0.5254c0.26573-0.17512 0.39844-0.43691 0.39844-0.78711 0-0.35022-0.1327-0.52539-0.39844-0.52539-0.09965-0.04378-0.18698-0.05978-0.26172-0.04883zm-15.482 2.6758v1.3125h0.79688v-1.3125h-0.79688zm93.871 0.78711c-0.39861 0-0.59766 0.17518-0.59766 0.52539 0.53147 1.0506 0.92958 1.0506 1.1953 0 0-0.35021-0.19905-0.52539-0.59765-0.52539zm-78.127 0.52539-0.99609 1.3125h0.99609v-1.3125zm63.977 2.627 1.9922 2.627c0.66434-0.52532 0.9961-1.4012 0.9961-2.627h-2.9883zm-33.482 0.52539c-1.4615 0-2.5915 0.70071-3.3887 2.1016-0.66434 1.2257-0.99609 2.7138-0.99609 4.4648 0.7972 0 1.2617-0.26374 1.3945-0.78906 0.26573-0.70043 0.46479-1.3126 0.59766-1.8379 0.13289-0.70043 0.33194-1.3126 0.59766-1.8379 0.26574-0.70043 0.86485-1.0508 1.7949-1.0508v-1.0508zm13.576 2.0352c-0.14947-1e-5 -0.22265 0.1978-0.22265 0.5918 0 0.52531 0.1327 0.70049 0.39844 0.52539 0.26573 0 0.39843-0.17518 0.39843-0.52539 0-0.35022-0.1327-0.5254-0.39843-0.52539-0.06644-0.04378-0.12596-0.06641-0.17579-0.06641zm11.934 1.1172c-0.26574 0-0.39844 0.26179-0.39844 0.78711 0 0.52531 0.1327 0.78711 0.39844 0.78711 0.26573-0.17512 0.39844-0.43691 0.39844-0.78711 0-0.35022-0.13271-0.61201-0.39844-0.78711zm17.738 4.2012c-0.53147 0-0.79688 0.43892-0.79688 1.3144 0 0.70043 0.26541 1.0508 0.79688 1.0508s0.79688-0.35035 0.79688-1.0508c0-0.87553-0.26541-1.3144-0.79688-1.3144zm-40.459 4.9902c-0.39861 0-0.59766 0.43892-0.59766 1.3145 0 0.87553 0.19905 1.3125 0.59766 1.3125 0.53147 0 0.79687-0.43697 0.79687-1.3125 0-0.87554-0.2654-1.3145-0.79687-1.3145z" fill="#B2EDEF" fill-rule="evenodd"/>
</svg>
