<?xml version="1.0" encoding="UTF-8"?>
<svg width="300" height="250" version="1.1" viewBox="0 0 79.375 66.146" xmlns="http://www.w3.org/2000/svg">
 <defs>
  <filter id="filter1659" x="-.00027417" y="-7.6809e-5" width="1.0005" height="1.0002" color-interpolation-filters="sRGB">
   <feGaussianBlur stdDeviation="0.00068408611"/>
  </filter>
 </defs>
 <g>
  <title>Staff</title>
  <g stroke="#000">
   <g stroke-width=".17851">
    <rect x="6.7038" y="18.61" width="65.967" height=".79706"/>
    <rect x="6.7038" y="39.777" width="65.967" height=".79706"/>
    <rect x="6.7038" y="23.902" width="65.967" height=".79706"/>
    <rect x="6.7038" y="29.193" width="65.967" height=".79706"/>
    <rect x="6.7038" y="34.485" width="65.967" height=".79706"/>
   </g>
   <path d="m13.796 35.386c-1.0071-0.50929-2.1825-1.185-2.7959-2.1084-0.1309-0.19705-0.20468-0.42185-0.30703-0.63278-0.1322 0.50532-0.20835-1.6578-0.14089-1.2451 0.07825 0.47853-0.06425 0.99732 0.13021 1.4468 0.07801 0.18031 0.15982-0.36075 0.26744-0.52761 0.2678-0.41517 0.47292-0.56089 0.84062-0.89897 0.56447-0.40636 1.1637-0.94436 1.9176-1.0195 0.4854-0.04834 0.68582 0.07088 1.1508 0.2138 0.22762 0.12857 0.47017 0.23702 0.68287 0.38571 0.7453 0.52101 1.4049 1.2415 1.8681 1.988 0.37964 0.61179 0.48058 0.96838 0.73176 1.625 0.17478-0.621 0.2238 2.1036 0.21296 1.5747-9e-3 -0.44034 0.05652-0.89023-0.04503-1.3206-0.047-0.19926-0.06807 0.40374-0.12477 0.60083-0.12961 0.45036-0.21062 0.5318-0.44621 0.9268-0.83773 0.99361-1.9407 1.3463-3.2157 1.6542-1.2362 0.22304-2.5276 0.22127-3.7132-0.21242-0.21754-0.07956-0.42181-0.18702-0.6327-0.28053-0.20747-0.12848-0.42845-0.24016-0.62242-0.38546-0.93127-0.6976-1.5801-1.7168-2.0161-2.7334-0.10348-0.24127-0.17579-0.49293-0.26368-0.73939-0.037453-0.2401-0.076857-0.96064-0.11237-0.72029-0.062946 0.42605-0.066236 0.86862 0.028234 1.2897 0.052148 0.23241 0.054428-0.47255 0.1028-0.70565 0.14024-0.67576 0.424-1.2761 0.74064-1.8932 0.66573-1.1406 1.4847-2.1977 2.3792-3.1939 0.72206-0.76581 1.5572-1.4297 2.3168-2.1619 0.12196-0.13365 0.25732-0.25781 0.36588-0.40093 0.71775-0.94624 1.0499-2.1139 1.3576-3.2154 0.34761-1.2939 0.6448-2.6011 0.8622-3.9191 0.1261-1.413 0.20795-2.8623-0.0586-4.2646-0.06822-0.35886-0.12109-0.51401-0.22088-0.86116-0.25951-0.76996-0.74755-1.4334-1.2697-2.0696-0.38288-0.49907-0.83986-0.7448-1.4751-0.87056-0.62086-0.01123-1.0104 0.05471-1.4829 0.43418-0.44959 0.43459-0.60561 1.0361-0.78933 1.5948-0.082261 0.28653-0.15779 0.50569-0.1905 0.8037-0.018356 0.16713-0.024104 0.3356-0.021366 0.50356 0.014172 0.86958 0.011678 1.7403 0.072084 2.6082 0.018616 0.26765 0.28948 1.0832 0.36521 1.3263 0.90265 2.4756 1.3638 5.0575 1.8668 7.6202 0.5079 2.8156 1.1149 5.6157 1.5517 8.4417 0.20934 1.3493 0.27641 2.7108 0.37318 4.0693 0.0099 0.16716 0.01728 0.33445 0.02957 0.50147 0.03909 0.53129 0.0937 1.0559 0.1025 1.5889 0.0033 0.20238 0.0033 0.80961 0.0038 0.6072 0.0011-0.45856-0.0013-0.91713-0.0021-1.3757-0.06953 1.001 0.03278 2.0586-0.33411 3.0227-0.06632 0.17422-0.16326 0.3372-0.24488 0.50579-0.25525 0.35255-0.37532 0.5921-0.76748 0.83837-0.82488 0.518-1.9116 0.60744-2.8739 0.69038-0.39311-0.01767-0.98986 0.0372-1.2906-0.28404-0.1167-0.12467-0.1163-0.35989-0.13248-0.50614l-0.30236 2.0518c0.034002 0.09121 0.050454 0.18966 0.10201 0.27356 0.3246 0.52823 1.0786 0.51025 1.6449 0.50872 0.98525-0.09182 2.1526-0.20247 3.015-0.69056 0.43506-0.24622 0.56248-0.47916 0.85464-0.84528 0.09385-0.17016 0.20371-0.33358 0.28155-0.51046 0.42143-0.95769 0.31707-2.0285 0.3941-3.0361 7.95e-4 -1.7935 0.03774-3.5839-0.14625-5.371-0.09843-1.3463-0.17571-2.6953-0.39674-4.031-0.4526-2.806-1.0569-5.5883-1.5678-8.3855-0.32494-1.6561-0.62593-3.3178-1.0416-4.9573-0.25546-1.0076-0.27536-1.0113-0.57288-1.937-0.08701-0.27071-0.17294-0.54171-0.25941-0.81256-0.06494-0.22557-0.13897-0.44907-0.19481-0.67669-0.05301-0.21604-0.08143-0.86998-0.1315-0.65334-0.10912 0.47216-0.02135 0.96554-0.05203 1.4475-0.01046 0.16429-0.01777-0.3293-0.0087-0.49366 0.0076-0.13888 0.03115-0.27692 0.0586-0.41365 0.02595-0.12926 0.06761-0.25543 0.1014-0.38315 0.17336-0.53685 0.30803-1.1136 0.67479-1.5713 0.08308-0.08005 0.20794-0.21064 0.31206-0.26912 0.27931-0.15689 0.63582-0.16036 0.94995-0.16173 0.58938 0.12914 0.96779 0.39078 1.3172 0.85274 0.50354 0.62969 0.95994 1.2922 1.1828 2.0562 0.09375 0.35729 0.13494 0.48255 0.19674 0.85158 0.0281 0.16789 0.04993 0.67455 0.06941 0.50562 0.05664-0.49141 0.02035-0.98825 0.04307-1.482 0.01815-0.39449-0.0071 1.5986-0.05034 1.1836-0.20201 1.3198-0.49799 2.6274-0.83922 3.9223-0.27411 1.0315-0.62092 2.2981-1.2607 3.1921-0.10208 0.14264-0.2347 0.26458-0.35206 0.39687-0.75198 0.74598-1.5979 1.4068-2.3298 2.1713-0.90854 1.0016-1.7383 2.0642-2.4318 3.2046-0.27172 0.5005-0.40576 0.70461-0.60156 1.2371-0.56669 1.541-0.54812 3.2615-0.18333 4.8398 0.096104 0.2458 0.17762 0.49688 0.28832 0.7374 0.5868 1.2749 1.4659 2.4454 2.7892 3.1433 0.22101 0.09362 0.43568 0.20118 0.66303 0.28088 1.2288 0.43077 2.5582 0.42971 3.8355 0.21105 0.24607-0.05641 0.49517-0.10255 0.7382-0.16919 1.0092-0.27675 1.9612-0.73854 2.6541-1.4813 0.09666-0.14419 0.20733-0.28116 0.28999-0.43256 0.64375-1.1791 0.43522-2.5651 0.42611-3.8294-0.0019-0.25763-0.02389-0.516-0.06869-0.77032-0.04792-0.27243-0.13906-0.53689-0.2086-0.80533-0.11212-0.27216-0.20779-0.55058-0.33636-0.8165-0.52685-1.0897-1.3586-2.1099-2.4118-2.8166-0.22897-0.15363-0.48822-0.26472-0.73233-0.39709-0.52843-0.15523-0.73012-0.27455-1.2791-0.22486-0.79529 0.072-1.4294 0.60783-2.0296 1.0341-0.32961 0.2846-1.1644 1.0066-1.2324 1.4375-0.13598 0.86089-0.14032 1.7355-0.17742 2.6048-0.0086 0.20195 0.0029 0.40605 0.04044 0.60517 0.04141 0.21968 0.13006 0.42952 0.1951 0.64429 0.11982 0.2119 0.21444 0.43764 0.35948 0.6357 0.69884 0.95436 1.8274 1.5469 2.8508 2.1551l0.13991-2.0763z" stroke-width=".25423"/>
  </g>
 </g>
 <g transform="rotate(180 34.745 24.182)" filter="url(#filter1659)">
  <title>Quarter Note Down Stem</title>
  <ellipse transform="rotate(155)" cx="-24.609" cy="-29.437" rx="3.1132" ry="2.3712" fill-rule="evenodd" stroke-width=".29447"/>
  <rect transform="rotate(-90)" x="-35.133" y="31.8" width="18.432" height=".70501" stroke="#000" stroke-width=".088744"/>
 </g>
</svg>
