<?xml version="1.0" encoding="UTF-8"?>
<svg width="200" height="200" version="1.1" viewBox="0 0 52.917 52.917" xmlns="http://www.w3.org/2000/svg">
 <path transform="scale(.26458)" d="m99.908 0a99.908 99.908 0 0 0-0.53125 0.0019531c0.11634 0.37474 0.27099 0.79312 0.48828 1.2812 0.6236 0.87553 1.0925 1.4011 1.4043 1.5762 0.3118 0.35021 0.9357 0.52539 1.8711 0.52539s1.5574-0.17518 1.8692-0.52539l12.863 5.7773c0 0.35021 0.155 0.78913 0.46679 1.3145 0.4677 0.35021 0.77965 0.70057 0.93555 1.0508 0 0.17511 0.07848 0.35028 0.23438 0.52539 0.15589 0.1751 0.31089 0.26172 0.46679 0.26172 0.3118 0.17511 1.0142 0.26367 2.1055 0.26367 1.0913-0.1751 1.7152-0.26367 1.8711-0.26367 0 0.17511 0.07653 0.35028 0.23243 0.52539 0.31179 0.35021 0.54527 0.52539 0.70117 0.52539 0.15589 0 0.23437 0.088566 0.23437 0.26367-0.31179 0-0.70222 0.086613-1.1699 0.26172-0.46769 0-0.77769 0.17518-0.93359 0.52539-0.3118 0-0.62375 0.26374-0.93555 0.78906-0.15589 0.52532-0.23437 0.87372-0.23437 1.0488-0.1559 0.35021-0.54633 0.96431-1.1699 1.8398-0.46769 0.70042-0.70117 1.1374-0.70117 1.3125s-0.07848 0.70064-0.23437 1.5762v1.5762 2.3633c0.15589 0.87553 0.23437 1.4011 0.23437 1.5762 0 0.35021 0.07848 0.96431 0.23438 1.8398 0.31179 0.87553 0.54527 1.4877 0.70117 1.8379 0.15589 0.1751 0.31089 0.4369 0.4668 0.78711 0.15589 0.17511 0.31284 0.35028 0.46875 0.52539h2.1035c0 0.35021 0.23543 1.2261 0.70313 2.627 0.46769 1.2257 0.85617 2.2768 1.168 3.1523 0.15589 0.1751 0.31284 0.52546 0.46875 1.0508 0.15589 0.52532 0.31089 0.87568 0.46679 1.0508 0 0.17509 0.15695 0.70063 0.46875 1.5762 0.4677 0.70043 0.77965 1.226 0.93555 1.5762l0.4668 0.78711c0 0.35021 0.15695 1.2261 0.46875 2.627 0.46769 1.2257 0.77769 2.2768 0.93359 3.1523v1.8379c0 0.35021 0.07848 1.2261 0.23437 2.627 0.3118 1.2257 0.46876 2.0131 0.46876 2.3633l0.23242 0.26367c0.15589 0.17509 0.23437 0.35027 0.23437 0.52539l0.23438 0.26172c0.15589 0.35021 0.38936 0.70057 0.70117 1.0508 0.15589 0.35021 0.31089 1.3127 0.4668 2.8887 0.15589 1.576 0.31284 2.5404 0.46875 2.8906 0 0.35021 0.31195 0.96236 0.93554 1.8379 0.62359 0.70042 0.93555 1.1374 0.93555 1.3125v6.041c0 0.17509 0.155 0.52545 0.4668 1.0508 0.31179 0.52532 0.54527 0.78906 0.70117 0.78906 0.15589 0.35021 0.7798 1.0509 1.8711 2.1016 1.2472 1.0506 1.9496 1.7513 2.1055 2.1016v0.52539 0.26172c-0.15589 0.17509-0.54632 0.35027-1.1699 0.52539-0.6236 0.17509-1.0121 0.35027-1.168 0.52539v0.78711 1.0508c0.15589 0.17509 0.31089 0.52545 0.4668 1.0508 0.31179 0.52532 0.62375 0.87568 0.93554 1.0508l0.4668 0.52539 0.46875 0.52539c0.15589 0.35021 0.38937 1.0509 0.70117 2.1016l0.93555 2.1016c0.15589 0 0.31089 0.086626 0.4668 0.26172 0.31179 0.35021 0.54722 0.52539 0.70312 0.52539 0.3118 0.35021 0.62375 0.61396 0.93555 0.78906 0.15589 0.35021 0.31089 1.3993 0.4668 3.1504 0.15589 1.7511 0.38936 2.8021 0.70117 3.1523 0 0.17509 0.54543 0.52545 1.6367 1.0508 1.0913 0.35021 1.7937 0.61396 2.1055 0.78906 0.1559 0.17509 0.23438 0.61206 0.23438 1.3125 0 0.35021-0.07848 0.78718-0.23438 1.3125 0 0.70042 0.38848 1.0508 1.168 1.0508h0.70313c0.15589 0.17509 0.31089 0.43884 0.46679 0.78906 0.3118 0.1751 0.46876 0.35027 0.46876 0.52539l-0.93555 0.52539c-0.4677 0.35022-1.0131 0.70057-1.6367 1.0508-0.62359 0.17509-1.2475 0.43688-1.8711 0.78711l-0.70118 0.52539c0 0.17509-0.07848 0.35027-0.23437 0.52539v0.52539 0.52539c0 0.17509 0.07848 0.35027 0.23437 0.52539l0.9336 1.0508c0.31179 0.17509 0.70223 0.61206 1.1699 1.3125 0.4677 0.70042 0.85813 1.226 1.1699 1.5762 0.15589-0.35021 0.38937-0.87575 0.70117-1.5762 0.4677-0.70043 0.85813-1.1374 1.1699-1.3125 0-0.17509 0.155-0.35027 0.46679-0.52539 0.3118-0.35021 0.54528-0.52539 0.70117-0.52539 0.3118-0.35022 0.62375-0.52539 0.93555-0.52539 0 0.35021-0.07848 0.96236-0.23437 1.8379v1.8398c-0.1559 0.17509-0.3109 0.43688-0.4668 0.78711-0.15589 0.17509-0.23438 0.43884-0.23438 0.78906v0.26172 0.78711 0.26367c0 0.35022 0.07849 0.70057 0.23438 1.0508 0.15589 0.35022 0.31089 0.61201 0.4668 0.78711v1.8398 2.1016c0 0.35021 0.4689 1.1375 1.4043 2.3633 0.9354 1.2258 1.2474 2.1882 0.93555 2.8887-0.15589 0-8.9e-4 0.26375 0.4668 0.78907 0.62359 0.35021 0.93554 0.612 0.93554 0.78711v0.78711 1.0508c0.1559 0.35021 0.46785 1.4013 0.93555 3.1523 0.46769 1.576 0.85813 2.8022 1.1699 3.6777 0 0.35022-0.46891 1.2261-1.4043 2.627-0.9354 1.4008-1.4024 2.2767-1.4024 2.627 0.3118 0 0.77875-0.08858 1.4024-0.26367 0.77948-0.35021 1.3249-0.52539 1.6367-0.52539 0.1559 0.17509 0.39133 0.52545 0.70313 1.0508 0.31179 0.52532 0.54527 0.87567 0.70117 1.0508 0 0.70043 0.31195 1.0508 0.93555 1.0508 0 0.35021 0.23348 0.61201 0.70117 0.78711l0.93555 0.52539c0 0.17509 0.07848 0.26367 0.23437 0.26367h0.4668c0.15589 0.1751 0.31089 0.26172 0.46679 0.26172 0 0.35022 0.15696 1.3147 0.46876 2.8906 0.46769 1.4008 0.85812 2.3634 1.1699 2.8887 0.15589 0.52532 0.38937 1.1375 0.70117 1.8379 0.31179 0.52532 0.4668 0.87567 0.4668 1.0508 0 0.52532 0.07848 1.3126 0.23437 2.3633 0.3118 1.0506 0.54527 2.1903 0.70117 3.416 0.3118 1.2257 0.54528 2.3634 0.70117 3.4141 0.1559 0.87553 0.23438 1.4877 0.23438 1.8379 0.15589 0.35021 0.15589 1.0509 0 2.1016v1.8398c0 0.17509 0.07848 0.52545 0.23437 1.0508 0.13271 0.22358 0.2432 0.37353 0.34766 0.50195a99.908 99.908 0 0 0 29.916-71.293 99.908 99.908 0 0 0-99.908-99.908zm-1.7207 0.015625a99.908 99.908 0 0 0-98.188 99.893 99.908 99.908 0 0 0 27.842 69.195v-4.1836c0-0.35021-0.31195-1.0509-0.93555-2.1016l-0.93555-2.1016v-1.8379-1.8379c0-0.35022 0.155-0.87575 0.4668-1.5762 0.3118-0.87553 0.46875-1.4896 0.46875-1.8398 0.1559-0.17509 0.3109-0.70063 0.4668-1.5762 0.3118-0.87553 0.46875-1.4877 0.46875-1.8379l1.168-0.26172 0.46875 0.26172h0.4668c0.3118 0 0.62375 0.17518 0.93555 0.52539 0.4677 0.17509 0.77965 0.26172 0.93555 0.26172 0.1559-0.35021 0.38938-1.1375 0.70117-2.3633 0.3118-1.2258 0.46875-2.0131 0.46875-2.3633 0-0.17509-0.23543-0.52544-0.70312-1.0508-0.3118-0.70042-0.4668-1.1393-0.4668-1.3144 0-0.17509 0.31195-0.78724 0.93555-1.8379 0.77949-1.2257 1.2464-1.9265 1.4023-2.1016 0-0.1751-0.155-0.61206-0.4668-1.3125-0.15598-0.87549-0.38938-1.4896-0.70117-1.8398-0.3118-0.17511-0.54723-0.34834-0.70312-0.52343l-0.4668-0.5254v-0.52539-1.0508c0-0.17509 0.155-0.35027 0.4668-0.52539 0.3118-0.17509 0.54723-0.26367 0.70312-0.26367 0.3118-0.17509 0.77875-0.35027 1.4023-0.52539 0.77949-0.35022 1.2464-0.612 1.4023-0.78711v-1.0508-1.0508c-0.1559-0.17512-0.46785-0.43691-0.93555-0.78711-0.4677-0.52532-0.70117-0.87568-0.70117-1.0508-0.1559-0.1751-0.23438-0.35027-0.23438-0.52539v-0.52539l0.23438-0.78907c0-0.35021 0.078477-1.0509 0.23438-2.1016s0.3109-1.7494 0.4668-2.0996c0-0.17509 0.078477-0.52545 0.23438-1.0508 0.3118-0.52532 0.54527-0.96424 0.70117-1.3144 0.15589 0.35021 0.6248 0.96431 1.4043 1.8398 0.93539 0.70043 1.5593 1.224 1.8711 1.5742h0.93359 0.93555c0-0.52532 0.078482-1.2241 0.23438-2.0996 0.3118-1.0506 0.54527-1.7514 0.70117-2.1016l0.70117-1.0508c0.77949-0.87553 1.1699-1.4011 1.1699-1.5762 0.15589-0.70042 0.23437-1.9267 0.23437-3.6777 1e-6 -1.7511-0.078482-2.8887-0.23437-3.4141 0.77949-0.35021 1.1699-0.78718 1.1699-1.3125 0.15589-0.17509 0.31089-0.35027 0.4668-0.52539 0.15589-0.35022 0.38937-0.70057 0.70117-1.0508 0.3118-0.35021 0.54723-0.70057 0.70312-1.0508 0-0.1751-0.15695-0.52545-0.46875-1.0508-0.15589-0.70042-0.23438-1.1393-0.23438-1.3144-0.15589-0.17509-0.38937-0.70063-0.70117-1.5762-0.3118-1.0506-0.4668-1.7494-0.4668-2.0996v-1.0508-0.78906c0 0.17509 0.155 0.35027 0.4668 0.52539 0.3118 0.17509 0.54527 0.26367 0.70117 0.26367 0.3118 0.35021 0.93571 0.87575 1.8711 1.5762 0.93539 0.70043 1.4808 1.1374 1.6367 1.3125h0.46875 0.93555c0.15589-0.35021 0.46785-0.70057 0.93555-1.0508 0.4677-0.35022 0.85617-0.612 1.168-0.78711 0-0.35021-0.076529-1.1395-0.23242-2.3652-0.15589-1.4008-0.079364-2.2767 0.23242-2.627 0-0.17509 0.078482-0.43689 0.23438-0.78711 0.15589-0.52532 0.23438-0.87568 0.23438-1.0508v-0.52539c0.15589-0.35021 0.23438-0.612 0.23438-0.78711l-0.23438-0.78906-0.46875-0.78711c-0.3118-0.17509-0.4668-0.43884-0.4668-0.78906h2.1035c0.3118-0.17509 0.62375-0.52545 0.93555-1.0508 0.4677-0.70043 0.77965-1.1374 0.93555-1.3125 0-0.17509 0.23348-1.051 0.70117-2.627 0.46769-1.7511 0.70312-2.8021 0.70312-3.1523 1e-6 -0.35022 0.155-0.96236 0.4668-1.8379 0.46769-1.0506 0.85813-1.7513 1.1699-2.1016l0.4668-0.52539c0.15589-0.17509 0.23438-0.35027 0.23438-0.52539l2.3379 3.1523 1.6367-2.1016v-11.031l1.4043-1.0508c0.6236 0 0.93555 0.35036 0.93555 1.0508 0.15589 0.35021 0.31089 1.1375 0.4668 2.3633 0.3118 1.2257 0.46875 2.1016 0.46875 2.627v3.9395c0 0.70042 0.31195 1.0508 0.93555 1.0508h0.23242 0.93555c0.15589-0.17509 0.31284-0.52545 0.46875-1.0508 0.15589-0.52532 0.23242-0.87567 0.23242-1.0508 0.15589-0.35021 0.23438-1.1375 0.23438-2.3633 0-1.4008-0.078482-2.2767-0.23438-2.627 0.3118 0 0.70223-0.17518 1.1699-0.52539 0.4677-0.35021 0.77965-0.52539 0.93555-0.52539 0.46769-0.52532 0.85812-0.78711 1.1699-0.78711v-0.52539-0.52539c-0.3118-0.17509-0.70223-0.35027-1.1699-0.52539-0.46769-0.35021-0.85812-0.52539-1.1699-0.52539 0-0.17509-0.155-0.35027-0.4668-0.52539-0.15589-0.17509-0.31285-0.35027-0.46875-0.52539-0.15589-0.35021-0.70132-0.96236-1.6367-1.8379-0.77949-1.0506-1.168-1.6647-1.168-1.8398l-0.93555-1.0508v-1.3125-1.8379c0-0.17509 0.076529-0.26367 0.23242-0.26367 0.3118-0.17509 0.54722-0.35027 0.70312-0.52539 0.15589-0.35021 0.70133-0.87574 1.6367-1.5762 1.0913-0.87553 1.7917-1.4877 2.1035-1.8379 0.3118 0 0.54527-0.26179 0.70117-0.78711 0.3118-0.52532 0.46875-0.87568 0.46875-1.0508 0.15589 0 0.31089-0.088579 0.4668-0.26367 0.3118-0.35021 0.54722-0.52539 0.70312-0.52539 0-0.35021 0.155-0.87574 0.4668-1.5762 0.3118-0.87553 0.4668-1.4011 0.4668-1.5762v-1.3125c0.15589-0.52532 0.23438-0.87568 0.23438-1.0508 0.62359 0 1.0925-0.17518 1.4043-0.52539 0.46769-0.35021 1.0896-0.70057 1.8691-1.0508 0.93539-0.52532 1.4043-0.87567 1.4043-1.0508v-7.8789c0-0.70042 0.23348-1.0508 0.70117-1.0508 0.3118-0.1751 0.85723-0.1751 1.6367 0 0.77949 0.17511 1.2464 0.26172 1.4023 0.26172v-4.7266c0.77949 0 1.4034-0.26374 1.8711-0.78906 0.46769 0 0.85812-0.35036 1.1699-1.0508 0.46773-0.70043 0.77965-1.226 0.93555-1.5762l-0.46875-1.8379c-0.15589-0.1751-0.23242-0.52546-0.23242-1.0508 0.15589 0 0.54437-0.086613 1.168-0.26172 0.77949-0.35021 1.2484-0.61396 1.4043-0.78906 0-0.17511 0.155-0.61208 0.4668-1.3125 0.3118-0.87553 0.62375-1.4896 0.93555-1.8398v-0.52539-0.52539c0-0.17511-0.155-0.61208-0.4668-1.3125-0.15589-0.70042-0.31285-1.4011-0.46875-2.1016-0.15589-0.87553-0.31089-1.6629-0.4668-2.3633v-1.3145c0-0.35021 0.31196-0.96236 0.93555-1.8379 0.6236-0.87553 1.0121-1.4877 1.168-1.8379h2.1055c0-0.35021 0.078482-0.70057 0.23438-1.0508s0.38937-0.70057 0.70117-1.0508l1.4023-0.78906c0.7795-0.52532 1.2484-0.96229 1.4043-1.3125 0.3118 0 0.6218-0.17518 0.93359-0.52539 0.077273-0.086794 0.12034-0.13478 0.19336-0.2168zm-9.0781 22.018 1.4023 0.78711v-0.78711h-1.4023zm14.498 19.699c-0.15589 0-0.23437 0.088579-0.23437 0.26367-0.1559 0.35021-0.46785 1.1375-0.93555 2.3633-0.3118 1.0506-0.4668 1.7514-0.4668 2.1016v0.78711 0.52539c0 0.17509 0.23348 0.52545 0.70118 1.0508 0.46769 0.35021 0.70117 0.61396 0.70117 0.78906 0 0.35021-0.07653 0.96236-0.23243 1.8379 1e-5 0.70042 0.07653 1.1374 0.23243 1.3125 0 0.35021 0.07848 0.70057 0.23437 1.0508l0.4668 1.0508v3.4141 3.6777c-0.15589-0.17509-0.62285-0.35027-1.4023-0.52539l-1.4024-0.78711h-1.4043v1.0508c0 0.35021 0.078482 0.612 0.23438 0.78711 0.3118 0.35021 0.62375 0.87575 0.93555 1.5762 0.46769 0.70042 0.77965 1.226 0.93554 1.5762h-0.23437-0.4668c-0.3118-0.17507-1.0142-0.52546-2.1055-1.0508-1.0913-0.52532-1.7917-0.87567-2.1035-1.0508h-0.46875-0.4668l-0.46875 0.52539c-0.15589 0.17509-0.23438 0.35027-0.23438 0.52539h-0.70117-0.4668c-0.3118-0.17509-0.54527-0.52545-0.70117-1.0508-0.15589-0.52532-0.23438-0.87567-0.23438-1.0508h-3.041l0.93555 3.1523c0.15589 0.17509 0.85828 0.52545 2.1055 1.0508 1.2472 0.35021 1.9476 0.612 2.1035 0.78711v3.1523c0 0.35021 0.15695 0.87575 0.46875 1.5762 0.46769 0.70042 0.85812 1.1374 1.1699 1.3125l-0.46875 0.52539-0.4668 0.52539c0 0.35021-0.23543 1.4013-0.70312 3.1523-0.4677 1.576-0.85617 2.5385-1.168 2.8887l-0.46875 0.52539-0.4668 0.52539c-0.15589 0.35021-0.31284 0.61396-0.46875 0.78906-0.15589 0.35021-0.31089 0.612-0.4668 0.78711-0.15589 0-0.23438 0.088579-0.23437 0.26367-0.15589 0.35021-0.38937 0.87575-0.70117 1.5762-0.15589 0.70042-0.23438 1.1374-0.23438 1.3125-0.4677 0-0.70117-0.35036-0.70117-1.0508-0.15589-0.35021-0.23438-1.1375-0.23438-2.3633 0.15589-1.2257 0.23438-2.015 0.23438-2.3652 0-0.35022-0.23348-0.70057-0.70117-1.0508-0.3118-0.52532-0.54527-0.78711-0.70117-0.78711-0.15589 0.17509-0.46785 0.52545-0.93555 1.0508-0.3118 0.35022-0.62375 0.612-0.93555 0.78711-0.15589 0.17509-0.31285 0.52545-0.46875 1.0508v0.78906c-0.15589 0.35021-0.23242 0.78718-0.23242 1.3125v2.3652 1.8379c0.15589 0.87553 0.23242 1.4011 0.23242 1.5762v2.3633c0.15589 1.2257 0.31285 2.0131 0.46875 2.3633l1.8711-3.9395h0.93555c0 0.17509 0.076529 0.52545 0.23242 1.0508 0.15589 0.35021 0.23438 0.70057 0.23438 1.0508-0.15589 0.35021-0.46785 1.0509-0.93555 2.1016-0.3118 0.87553-0.4668 1.4011-0.4668 1.5762v0.78711 0.52539c0.46769 0.52532 0.85617 0.87567 1.168 1.0508 0.3118 0.35021 0.62375 0.61396 0.93555 0.78906h8.8867c0 0.17509 0.15695 0.35027 0.46875 0.52539 0.3118 0.17509 0.54527 0.26172 0.70117 0.26172 0.3118 0 0.62375-0.086627 0.93555-0.26172 0.62359-0.35021 1.0121-0.52539 1.168-0.52539 0.15589 0.17509 0.38937 0.35027 0.70117 0.52539 0.31179 0.17509 0.62375 0.26172 0.93555 0.26172 0.15589 0.17509 0.39132 0.35027 0.70312 0.52539 0.46769 0 0.85617 0.08663 1.168 0.26172 0.4677 0.17509 0.9366 0.26367 1.4043 0.26367h3.0391 3.9766c0.15589 0 1.0133-0.17518 2.5723-0.52539 1.559-0.35021 2.5714-0.52539 3.0391-0.52539 0.3118 0 1.2477 0.17518 2.8066 0.52539 1.7149 0.35021 2.6507 0.52539 2.8066 0.52539h2.1035c0-0.35021-0.07849-1.2261-0.23438-2.627 0-1.576-0.155-2.5385-0.4668-2.8887 0-0.52532-0.46695-1.4878-1.4023-2.8887-0.77949-1.576-1.4034-2.627-1.8711-3.1523 0-0.17509-0.23348-0.52545-0.70118-1.0508-0.46769-0.52532-0.85812-0.87567-1.1699-1.0508-0.15589-0.35021-0.46784-0.96236-0.93554-1.8379-0.3118-1.0506-0.62375-1.7513-0.93555-2.1016-0.3118-0.17509-0.54527-0.61402-0.70117-1.3145-0.1559-0.87553-0.23438-1.4011-0.23438-1.5762-0.15589-0.17509-0.54632-0.61206-1.1699-1.3125-0.62359-0.87553-0.93359-1.4011-0.93359-1.5762-0.1559-0.17509-0.46785-0.78724-0.93555-1.8379-0.3118-1.0506-0.7807-2.1903-1.4043-3.416-0.46769-1.2257-1.0131-2.45-1.6367-3.6758-0.46769-1.4009-0.85812-2.4519-1.1699-3.1523 0-0.35021-0.46695-1.4879-1.4023-3.4141-0.77949-2.1013-1.2464-3.5913-1.4023-4.4668-0.1559-0.35021-0.31285-0.78718-0.46876-1.3125l-0.46679-1.5762-0.46875-1.0508c-0.15589-0.35021-0.23242-0.70057-0.23242-1.0508 0-0.35021-0.15696-1.2242-0.46875-2.625-0.3118-1.4008-0.4668-2.1901-0.4668-2.3652-0.15589-0.17509-0.38937-0.61206-0.70117-1.3125-0.1559-0.35021-0.39132-0.61396-0.70313-0.78906v-1.8379c-0.15589-0.35021-0.46785-0.70057-0.93554-1.0508-0.3118-0.35021-0.62375-0.612-0.93555-0.78711l-0.4668-0.26367zm-28.998 9.7188c-0.46769 0-0.70117 0.35036-0.70117 1.0508 0 0.70042 0.23348 1.0508 0.70117 1.0508 0.3118 0 0.46875-0.35036 0.46875-1.0508 0-0.70042-0.15695-1.0508-0.46875-1.0508zm7.7188 2.1016c-0.4677 0-0.70312 0.35036-0.70312 1.0508 0 0.70042 0.23543 1.0508 0.70312 1.0508 0.46769 0 0.70117-0.35036 0.70117-1.0508 0-0.70043-0.23348-1.0508-0.70117-1.0508zm11.926 1.3125v0.78906l1.168-0.78906h-1.168zm-20.578 27.58v1.8379h1.168c-0.15589 0-0.23438-0.086626-0.23438-0.26172v-0.52539l-0.93359-1.0508zm5.8457 0c0 0.17509-0.15695 0.52545-0.46875 1.0508-0.15589 0.52532-0.38937 0.78711-0.70117 0.78711-0.3118 0.52532-1.2477 1.5764-2.8066 3.1523-1.4031 1.576-2.4155 2.5385-3.0391 2.8887v2.1016 1.8379c0 0.17509 0.078482 0.70063 0.23438 1.5762 0.3118 0.70042 0.62375 1.226 0.93555 1.5762l0.4668 0.52539c0.15589 0.17509 0.31089 0.26367 0.4668 0.26367h1.8711 1.8711c0.15589-0.17509 0.31285-0.43884 0.46875-0.78906 0.15589-0.35021 0.31089-0.52539 0.4668-0.52539 0.15589-0.17509 0.23438-0.43688 0.23438-0.78711 0-0.17509 0.078482-0.96437 0.23438-2.3652 0.3118-1.4009 0.4668-2.2748 0.4668-2.625l1.1699-1.5762v-1.5762-1.5762c-0.15589-0.17509-0.39132-0.61206-0.70312-1.3125-0.15589-0.70042-0.31089-1.226-0.4668-1.5762 0-0.70042-0.23348-1.0508-0.70117-1.0508zm-21.514 11.818c0 0.17509-0.23543 0.43884-0.70312 0.78906-0.4677 0.17509-0.70117 0.35027-0.70117 0.52539-0.15589 0-0.23242 0.086626-0.23242 0.26172s-0.078482 0.26367-0.23438 0.26367h1.8711v-1.8398zm26.189 0-0.4668 0.52539c-0.3118 0.35021-0.4668 0.61396-0.4668 0.78906v2.3633 2.1016c0.62359 0 0.93359-0.26179 0.93359-0.78711 0-0.35021 0.15695-0.96431 0.46875-1.8398 0.3118-1.0506 0.4668-1.6628 0.4668-1.8379 0-0.17509-0.155-0.43884-0.4668-0.78906l-0.46875-0.52539zm17.773 5.7793c-0.31179 0-0.46875 0.35036-0.46875 1.0508 0 0.52532 0.15696 0.78711 0.46875 0.78711 0.7795 0 1.1699-0.26179 1.1699-0.78711 0-0.70042-0.39042-1.0508-1.1699-1.0508zm27.828 2.8887c-0.4677 0-0.70117 0.43892-0.70117 1.3144 0 0.70043 0.23347 1.0508 0.70117 1.0508 0.46769 0 0.70117-0.35036 0.70117-1.0508 0-0.87553-0.23348-1.3144-0.70117-1.3144zm-82.08 2.3652c-0.46769 0-0.70312 0.35035-0.70312 1.0508 0 0.52532 0.23543 0.78711 0.70312 0.78711 0.62359 0 0.93359-0.26179 0.93359-0.78711 0-0.70043-0.31-1.0508-0.93359-1.0508zm66.879 0.26171c-0.4677 0-0.70118 0.26375-0.70118 0.78907 0.4677 0.52532 0.93661 0.52532 1.4043 0 0-0.52532-0.23543-0.78907-0.70312-0.78907zm14.732 0c-0.3118 0-0.4668 0.26375-0.4668 0.78907 0.3118 0.35021 0.62375 0.35021 0.93555 0 0.15589-0.52532-0.00106-0.78907-0.46875-0.78907zm-80.443 1.5762v3.1523c0-0.17509 0.078482-0.35027 0.23438-0.52539l0.4668-0.52539 0.23438-0.52539-0.23438-0.78711c-0.15589 0-0.31089-0.08858-0.4668-0.26367-0.15589-0.1751-0.23438-0.35027-0.23438-0.52539zm70.154 9.9805c-0.3118 0.1751-0.85723 0.52545-1.6367 1.0508-0.62359 0.52531-1.0906 0.78906-1.4024 0.78906-0.15589 0-0.77979 0.08662-1.8711 0.26172h-2.3379-2.8066c-0.6236 0-1.169-0.08663-1.6367-0.26172-0.3118 0-0.9357-0.17518-1.8711-0.52539-0.77949-0.35022-1.2484-0.52539-1.4043-0.52539-0.15589 0-0.54437 0.17517-1.168 0.52539-0.4677 0.35021-0.77965 0.52539-0.93555 0.52539-0.15589 0.17509-0.9348 0.26172-2.3379 0.26172-1.4031-0.1751-2.2605-0.26172-2.5723-0.26172-0.15589 0-0.6248 0.17518-1.4043 0.52539-0.62359 0.17509-1.0905 0.26172-1.4023 0.26172-0.3118 0.17509-1.0142 0.26367-2.1055 0.26367-0.93539-0.17509-1.4808-0.26367-1.6367-0.26367-0.62359 0.17509-1.8714 0.43884-3.7422 0.78906-1.8708 0.35021-3.0382 0.52539-3.5059 0.52539-0.15589 0-0.6248-0.17518-1.4043-0.52539-0.77949-0.35021-1.3249-0.61396-1.6367-0.78906h-0.4668-0.23438l-0.70117 0.78906-0.46875 0.52539c-0.3118 0.17509-0.85723 0.17509-1.6367 0-0.77949-0.17509-1.2464-0.17509-1.4023 0-0.3118 0.17509-0.85723 0.52545-1.6367 1.0508-0.62359 0.35021-1.014 0.69862-1.1699 1.0488-0.15589 0.17509-0.31285 0.70063-0.46875 1.5762-0.15589 0.87553-0.23242 1.4896-0.23242 1.8398h-0.23438c0.15589-0.1751 0.077411-0.26368-0.23437-0.26368-0.3118-0.35021-0.70028-0.70056-1.168-1.0508-0.3118-0.52532-0.46875-0.87567-0.46875-1.0508-0.15589-0.17509-0.23438-0.52545-0.23438-1.0508 0-0.70042 0.078482-1.0488 0.23438-1.0488-0.15589 0-0.54437 0.17323-1.168 0.52344-0.46769 0.35021-0.77965 0.52539-0.93555 0.52539l-0.46875-0.52539-0.4668-0.52344-0.46875-1.0508c-0.3118-0.70042-0.4668-1.1394-0.4668-1.3144-0.15589 0-0.31285 0.08858-0.46875 0.26367h-0.23242c-0.15589 0.17509-0.39132 0.26172-0.70313 0.26172 1e-6 0.35021 0.078483 0.70057 0.23438 1.0508 0.15589 0.35021 0.07741 0.61395-0.23438 0.78906 0 0.17509-0.076528 0.34832-0.23242 0.52344-0.3118 0.35021-0.54723 0.52539-0.70312 0.52539-0.3118 0.35021-1.0907 1.0509-2.3379 2.1016-1.0913 0.87554-1.8702 1.4896-2.3379 1.8398v0.52539 0.52539l0.4668 1.5742c0.15589 0.52532 0.31284 0.96424 0.46875 1.3144v0.78711 0.26367c0 0.17509-0.31195 0.52545-0.93555 1.0508-0.46769 0.52532-0.70117 0.87568-0.70117 1.0508 0 0.35022-0.15695 1.0509-0.46875 2.1016-0.3118 0.87553-0.4668 1.4877-0.4668 1.8379-0.3118 0-0.46875-0.08858-0.46875-0.26368-0.6236-0.35021-0.93555-0.70056-0.93555-1.0508v-2.625l-4.6758-4.9902h-0.93555-0.46875l-0.4668 0.52344-0.23438 0.26367c-0.3118 0.35021-0.54527 1.2261-0.70117 2.627-0.15589 1.4008-0.31089 2.2767-0.4668 2.627-0.15589 0.1751-0.39132 0.78724-0.70312 1.8379-0.15589 0.87554-0.23242 1.4877-0.23242 1.8379l0.4668 0.26367c0.15589 0 0.31285-0.08858 0.46875-0.26367 0.15589 0 0.31089-0.08663 0.4668-0.26172 0.15589-0.35022 0.38937-0.61396 0.70117-0.78907 0-0.35021 0.31195-0.96235 0.93555-1.8379 0.62359-0.87553 1.014-1.4877 1.1699-1.8379 0.15589 0.1751 0.31089 0.61207 0.4668 1.3125 0.15589 0.70043 0.23438 1.1374 0.23438 1.3125-0.15589 0.35022-0.54632 1.0509-1.1699 2.1016l-0.93555 2.1016v3.4141 4.4668c0 0.35021 0.23543 1.3993 0.70312 3.1504 0.46769 1.576 0.70117 2.5404 0.70117 2.8906v0.78711 1.3145c-0.46769 0-1.2466 0.17517-2.3379 0.52539-0.93539 0.17509-1.5593 0.26172-1.8711 0.26171-0.3118 0.1751-0.85723 0.52545-1.6367 1.0508-0.62359 0.52532-1.0925 0.87567-1.4043 1.0508v-2.8887l-0.4668 0.52539c-0.15589 0.17509-0.31284 0.26172-0.46875 0.26171h-0.23242l-0.93555 0.5254c-0.3118 0.17509-0.54723 0.26171-0.70312 0.26171-0.15589 0.52533-0.38937 1.3146-0.70117 2.3652-0.15589 1.0506-0.23242 1.7514-0.23242 2.1016 0.15589-0.17509 0.54437-0.26367 1.168-0.26367 0.77949 0 1.2484 0.08858 1.4043 0.26367 0.3118 0 0.77875 0.26179 1.4023 0.78711 0.6236 0.35021 0.93555 0.70057 0.93555 1.0508 0 0.35022-0.39043 0.96236-1.1699 1.8379-0.62359 0.70043-1.0121 1.0508-1.168 1.0508 0 0.35022-0.23543 1.0509-0.70312 2.1016-0.4677 1.0506-0.77965 1.6647-0.93555 1.8398-0.15589 0.35021-0.54437 0.69861-1.168 1.0488-0.4677 0.52532-0.70117 0.87567-0.70117 1.0508h-0.93555-1.1699c-0.15589-0.17509-1.0133-0.35027-2.5723-0.52539-1.4031-0.17509-2.2605-0.35027-2.5723-0.52539h-0.23438a99.908 99.908 0 0 0 68.326 27.018 99.908 99.908 0 0 0 58.547-18.953c-0.0761-0.02395-0.12696-0.07416-0.12696-0.18359-0.31179-0.1751-0.54527-0.35027-0.70117-0.52539-0.31179-0.1751-0.62375-0.61402-0.93554-1.3145-0.1559-0.17509-0.39133-0.52349-0.70313-1.0488-0.31179-0.35022-0.54527-0.61396-0.70117-0.78907v-0.52539-1.0508c0.15589 0 0.39132-0.08662 0.70312-0.26172 0.3118-0.17509 0.54528-0.26367 0.70118-0.26367v-0.52539-0.52539c-0.1559-0.17509-0.38937-0.35027-0.70118-0.52539-0.31179-0.17509-0.54722-0.35027-0.70312-0.52539-0.15589-0.17509-0.54437-0.17509-1.168 0-0.46769 0.17509-0.70312 0.17509-0.70312 0s-0.07653-0.43688-0.23243-0.78711c-0.15589-0.35021-0.31284-0.70057-0.46875-1.0508-0.15589-0.1751-0.38937-0.78724-0.70117-1.8379-0.3118-1.2258-0.46679-1.9265-0.46679-2.1016-0.3118-0.35021-0.85723-1.4013-1.6367-3.1523-0.6236-1.7511-1.0925-2.8021-1.4043-3.1523 0-0.1751-0.23348-0.61207-0.70117-1.3125-0.3118-0.87554-0.4668-1.4011-0.4668-1.5762 0-0.17509-0.15695-0.61206-0.46875-1.3125-0.3118-0.87553-0.62375-1.6648-0.93555-2.3652-0.31179-0.87553-0.62374-1.6628-0.93554-2.3633-0.1559-0.87553-0.3109-1.4011-0.4668-1.5762-0.15589-0.35022-0.38937-1.1375-0.70117-2.3633-0.3118-1.2258-0.70222-2.5386-1.1699-3.9395-0.3118-1.4008-0.70223-2.7157-1.1699-3.9414l-0.70117-3.1524c-0.15589 0-0.38937-0.61215-0.70117-1.8379l-0.46875-1.5762c0-0.35021-0.155-0.87574-0.4668-1.5762-0.15589-0.87554-0.31284-1.4877-0.46875-1.8379v-0.78711c-0.15589 0-0.38937-0.08858-0.70117-0.26367-0.15589-0.35022-0.31089-0.61201-0.4668-0.78711-0.15589-0.35021-0.31284-0.96431-0.46874-1.8398-0.1559-1.0506-0.23243-1.7514-0.23243-2.1016v-2.0996c-0.15589-0.35021-0.70132-0.87575-1.6367-1.5762-0.77949-0.70043-1.3269-1.226-1.6387-1.5762s-1.0122-0.70057-2.1035-1.0508c-0.93539-0.52532-1.4808-0.78907-1.6367-0.78907-0.3118 0-1.3261 0.35036-3.041 1.0508-1.559 0.52531-2.4164 0.78906-2.5723 0.78906h-0.70117-0.70118c-0.15589 0-0.46784-0.26375-0.93554-0.78906-0.3118-0.52532-0.62375-0.87568-0.93555-1.0508h-0.93555-0.93554zm-36.713 0.78907v1.0508h0.93555v-1.0508h-0.93555zm-33.441 1.0508c0 0.52532 0.23348 0.78711 0.70117 0.78711 0.15589 0.17509 0.46784 0.26367 0.93555 0.26367h0.46875v-1.0508h-2.1055zm13.797 2.1016c-0.46769 0-0.70117 0.35036-0.70117 1.0508 0 0.70043 0.23348 1.0488 0.70117 1.0488 0.3118 0 0.46875-0.3484 0.46875-1.0488 0-0.70042-0.15695-1.0508-0.46875-1.0508zm-14.965 3.1504v2.1016c0.15589-0.17509 0.31089-0.35027 0.4668-0.52539 0.15589-0.35021 0.38937-0.70057 0.70117-1.0508v-0.52539h-1.168zm5.8457 0v2.8906c0.77949-0.35022 1.168-1.1395 1.168-2.3652-0.15589 0-0.31089-0.08662-0.4668-0.26172h-0.4668c0-0.17509-0.078482-0.26367-0.23438-0.26367zm7.248 15.498c0 0.52532-0.155 0.96229-0.4668 1.3125 0 0.52532-0.23348 0.78906-0.70117 0.78906-0.15589 0.17509-0.70132 0.43688-1.6367 0.78711-0.93539 0.17509-1.4043 0.35027-1.4043 0.52539-0.77949 0-1.4034 0.26374-1.8711 0.78906-0.15589 0.1751-0.38937 0.34832-0.70117 0.52344-0.15589 0.17509-0.31089 0.35027-0.4668 0.52539v0.52539 0.78906c0.15589 0.1751 0.31089 0.61206 0.4668 1.3125 0.3118 0.70043 0.54527 1.1394 0.70117 1.3145h-0.4668-0.70117c0-0.1751-0.078482-0.43884-0.23438-0.78906-0.15589-0.52532-0.23438-0.96229-0.23438-1.3125-0.15589-0.1751-0.23242-0.35027-0.23242-0.5254-0.15589-0.17509-0.23438-0.43883-0.23438-0.78906 0-0.17509 0.078482-0.43688 0.23438-0.78711 0.15589-0.35021 0.23242-0.61395 0.23242-0.78906l0.23438-0.26172v-0.26172c0.15589 0 0.23438-0.08858 0.23438-0.26367 0.3118-0.35021 0.77875-0.70057 1.4023-1.0508 0.7795-0.52532 1.3249-0.87568 1.6367-1.0508 0-0.17509 0.39043-0.35027 1.1699-0.52539 0.93539-0.35022 1.5593-0.52539 1.8711-0.52539h0.4668c0.3118-0.1751 0.54527-0.26172 0.70117-0.26172zm-20.812 17.336c-0.46769 0-0.70117 0.26179-0.70117 0.7871 0 0.52532 0.23348 0.78711 0.70117 0.78711 0.4677 0 0.70312-0.26179 0.70312-0.78711 0-0.52531-0.23543-0.7871-0.70312-0.7871zm-4.209 2.8887v5.2539l1.1699-0.26367c0.62359 0 0.93555-0.35035 0.93555-1.0508l0.23438-0.78711c0-0.17509-0.078482-0.26367-0.23438-0.26367v-0.52539-0.26172c0-0.35021-0.31195-0.70057-0.93555-1.0508-0.62359-0.52532-1.014-0.87568-1.1699-1.0508zm0 9.9805v1.0508h1.1699v-1.0508h-1.1699z" fill="#03045e" fill-rule="evenodd"/>
</svg>
