<?xml version="1.0" encoding="UTF-8"?>
<svg width="200" height="200" version="1.1" viewBox="0 0 52.917 52.917" xmlns="http://www.w3.org/2000/svg">
 <path transform="scale(.26458)" d="m99.908 0a99.908 99.908 0 0 0-99.908 99.908 99.908 99.908 0 0 0 99.908 99.908 99.908 99.908 0 0 0 99.908-99.908 99.908 99.908 0 0 0-99.908-99.908zm11.533 7.7891c0.15589 0.17511 0.46784 0.70064 0.93554 1.5762 0.4677 0.87553 0.70117 1.4877 0.70117 1.8379 0.1559 0.35021 0.07742 1.0509-0.23437 2.1016-0.3118 1.0506-0.4668 1.7513-0.4668 2.1016 0 0.17511 0.07653 0.26172 0.23243 0.26172h0.46874 0.70118c0.15589-0.17511 0.31089-0.26172 0.46679-0.26172 0.3118-0.17511 0.54723-0.35028 0.70313-0.52539 0.3118-0.35021 0.70027-1.0509 1.168-2.1016 0.46769-1.2257 0.85812-2.015 1.1699-2.3652h0.70117v2.3652c0 1.0506-0.07848 1.7514-0.23437 2.1016 0 0.35021 0.15695 1.1375 0.46875 2.3633 0.31179 1.2257 0.46679 2.0131 0.46679 2.3633 0.3118-0.35021 0.85723-0.70057 1.6367-1.0508 0.77949-0.52532 1.3269-0.96229 1.6387-1.3125 0.3118 0.1751 0.6218 0.26172 0.9336 0.26172h0.93554c0.1559 0 0.31285-0.086613 0.46875-0.26172 0.1559-0.35021 0.3109-0.612 0.4668-0.78711 0.15589-0.1751 0.38937-0.52546 0.70117-1.0508 0.3118-0.70042 0.54723-1.1393 0.70313-1.3145 0.15589-0.17511 0.54437-0.4369 1.168-0.78711 0.77949-0.52532 1.3249-0.87568 1.6367-1.0508h0.70312 0.4668c0.15589 0.17511 0.38937 0.61207 0.70117 1.3125 0.46769 0.70042 0.85813 1.0508 1.1699 1.0508h2.1035c0.15589 0 0.39132 0.43892 0.70312 1.3145 0.4677 0.70042 0.77965 1.1374 0.93555 1.3125 0.31179 0 0.93375 0.17518 1.8691 0.52539 1.0913 0.17511 1.7937 0.26172 2.1055 0.26172l-0.23438 2.3652c0.3118 0 0.85723-0.088566 1.6367-0.26367 0.77949-0.35021 1.2484-0.43682 1.4043-0.26172 0.15589 0.1751 0.46784 0.61207 0.93555 1.3125 0.46769 0.70042 0.85617 1.0508 1.168 1.0508 0 0.17511 0.23544 0.35028 0.70313 0.52539 0.62359 0.1751 1.0121 0.35028 1.168 0.52539 0 0.35021 0.07848 0.612 0.23437 0.78711v0.26367c0.1559-1e-6 0.23438 0.086613 0.23438 0.26172 0 0.17511 0.07653 0.26367 0.23242 0.26367 0.15589 0.35021 0.39132 0.70057 0.70313 1.0508 0.46769 0.35021 0.85617 0.78718 1.168 1.3125 0.4677 0.70042 0.85813 1.3145 1.1699 1.8398l-0.23438 1.0508v1.3125c0 0.35021-0.23347 0.96236-0.70117 1.8379-0.3118 0.87553-0.46875 1.4011-0.46875 1.5762v1.0508 1.3145l0.46875 0.52539c0.15589 0.1751 0.31089 0.26172 0.4668 0.26172l0.93554 0.26367c0.3118 0.35021 0.93571 1.1375 1.8711 2.3633 1.0913 1.2257 1.7937 2.1016 2.1055 2.627 0.1559-0.17509 0.54437-0.35027 1.168-0.52539 0.77949-0.35021 1.3249-0.61396 1.6367-0.78906h0.70313 0.23242c0.3118 0.35021 0.70222 0.70057 1.1699 1.0508 0.62359 0.17509 0.93555 0.35027 0.93555 0.52539 0 0.17509 0.23347 0.70063 0.70117 1.5762 0.62359 0.87553 1.014 1.4877 1.1699 1.8379l0.4668 1.3145c0.15589 0.35021 0.15589 1.1375 0 2.3633v2.1016c-0.15589 0.17509-0.07741 0.78724 0.23437 1.8379 0.3118 0.87553 0.54528 1.4011 0.70118 1.5762v0.26367 0.52539c0.15589 0 0.23437 0.086626 0.23437 0.26172-0.15589 0.17509-0.23437 0.35027-0.23437 0.52539 0 0.17509-0.07849 0.35027-0.23438 0.52539-0.15589 0.35021-0.38937 0.78913-0.70117 1.3145-0.15589 0.35021-0.3109 0.69862-0.4668 1.0488l-0.70117 0.52539c-0.15589 0.35021-0.46784 0.78913-0.93555 1.3145-0.31179 0.52532-0.46875 0.87568-0.46875 1.0508 0 0.35021-0.155 1.1375-0.46679 2.3633-0.3118 1.2257-0.46875 1.9265-0.46875 2.1016-0.3118 0.52532-1.1692 1.4878-2.5723 2.8887-1.2472 1.2257-2.0261 2.015-2.3379 2.3652l0.23437-3.6777c-0.31179-0.17509-0.54527-0.35027-0.70117-0.52539h-0.23437c0-0.17509-0.07848-0.26367-0.23438-0.26367-0.15589 0-0.23437-0.086625-0.23437-0.26172-0.3118 0.17509-0.54528 0.61206-0.70117 1.3125-0.1559 0.70042-0.38937 1.0508-0.70118 1.0508-0.15589 0.17509-0.70132 0.35027-1.6367 0.52539-0.7795 0.17509-1.2484 0.35027-1.4043 0.52539-0.15589 0-0.38937 0.17518-0.70117 0.52539l-0.23242 0.26367 1.8691 3.6758h-1.4024c-0.77949-0.17509-1.3249-0.26172-1.6367-0.26172-0.31179 0.17509-0.85722 0.35027-1.6367 0.52539-0.77949 0.17509-1.2484 0.43688-1.4043 0.78711-0.3118 0-0.70027 0.26374-1.168 0.78906-0.4677 0.35021-0.70117 0.70057-0.70117 1.0508-0.1559 0-0.23438 0.086626-0.23438 0.26172-0.15589 0.17509-0.23437 0.35027-0.23437 0.52539l0.23437 0.26367 0.4668 0.52539v0.26172c0.15589 1e-6 0.23437 0.086626 0.23437 0.26172s0.07849 0.26367 0.23438 0.26367v0.52539 0.26172c0 0.17509-0.07848 0.43884-0.23438 0.78906-0.15589 0.17509-0.31089 0.43688-0.46679 0.78711l-0.46875 1.0508c-0.1559 0-0.23438 0.35035-0.23438 1.0508 0.15589 0.70042 0.23438 1.1393 0.23438 1.3145h0.93554c0.3118-0.17509 0.62375-0.26367 0.93555-0.26367 0.3118 0.17509 1.1692 0.61206 2.5723 1.3125 1.559 0.52532 2.6498 1.0509 3.2734 1.5762 0.1559 0 0.46785 0.088579 0.93555 0.26367 0.46769 0.17509 0.77965 0.43688 0.93555 0.78711 0.31179 0 0.85722 0.35035 1.6367 1.0508 0.77949 0.70042 1.1699 1.1393 1.1699 1.3145 0.31179 0.17509 1.0122 0.61206 2.1035 1.3125 1.0913 0.70042 1.7937 1.1374 2.1055 1.3125 0 0.17509 0.31196 0.96437 0.93555 2.3652 0.77949 1.2257 1.2464 1.9265 1.4023 2.1016 0.3118 0.35022 1.0927 1.3127 2.3398 2.8887 1.2472 1.576 2.1046 2.627 2.5723 3.1524h1.168c0 0.17509 0.23348 0.61206 0.70117 1.3125 0.4677 0.52531 0.85813 0.87567 1.1699 1.0508 0 0.17509 0.39043 0.43689 1.1699 0.78711 0.77949 0.17509 1.2464 0.35027 1.4023 0.52539 0.15589 0.17509 0.31285 0.43884 0.46875 0.78906 0.3118 0.70043 0.54527 1.1374 0.70117 1.3125 0.3118 0.87553 0.62375 2.1018 0.93555 3.6777 0.4677 1.4008 0.70117 2.1882 0.70117 2.3633v2.1016c0 0.35021-0.07848 0.61396-0.23437 0.78906v0.52539 0.78711c-0.1559 0.35022-0.54632 0.78719-1.1699 1.3125-0.46769 0.52532-0.77769 0.78906-0.93359 0.78907-0.15589 0.17509-0.31284 0.35026-0.46875 0.52539-0.15589 0-0.31089 0.17518-0.4668 0.52539l-0.46875 1.0508c0 0.17509-0.07848 0.61206-0.23437 1.3125v1.3144 2.0996c0 0.17509 0.15695 0.43884 0.46875 0.78906 0.31179 0.1751 0.54527 0.26172 0.70117 0.26172 0.15589 0 0.46785-0.08662 0.93555-0.26172 0.46769-0.35021 0.85812-0.52539 1.1699-0.52539h2.5723c1e-5 0.35022-0.31195 1.5765-0.93554 3.6777l-0.93555 4.2012c0 0.17509-0.31195 0.52545-0.93555 1.0508-0.62359 0.35021-1.326 0.78913-2.1055 1.3144s-1.4799 1.0509-2.1035 1.5762c-0.62359 0.52533-1.014 0.78711-1.1699 0.78711l-0.70117 0.78711c-0.1559 0.1751-0.23438 0.35027-0.23438 0.52539-0.15589 0.35021-0.38937 1.3147-0.70117 2.8906-0.15589 1.576-0.23438 2.627-0.23438 3.1523h-0.23242c0-0.17509-0.15695-0.26367-0.46875-0.26367-0.15589-0.17509-0.46784-0.43688-0.93554-0.78711-0.4677-0.52532-0.77965-0.78906-0.93555-0.78906h-0.70117-0.4668c-0.15589 0.17509-0.31284 0.43884-0.46875 0.78906-0.15589 0.35021-0.23438 0.8738-0.23438 1.5742-0.15589 0.35021-0.38936 1.1395-0.70117 2.3652-0.31179 1.2258-0.54527 1.7513-0.70117 1.5762-0.15589 0.35021-0.62285 0.78717-1.4023 1.3125-0.77949 0.52531-1.3249 0.87567-1.6367 1.0508-0.3118 0.17509-0.70223 0.26367-1.1699 0.26367-0.4677-0.17509-0.70118-0.35027-0.70118-0.52539-0.15589 0.35021-0.38936 1.1375-0.70117 2.3633-0.31179 1.0506-0.62375 1.7514-0.93554 2.1016 0 0.70043-0.31196 1.0508-0.93555 1.0508l-0.46875-0.52539c-0.3118-0.35021-0.4668-0.61395-0.4668-0.78906-0.15589 0-0.31284-0.26179-0.46875-0.78711-0.15589-0.70042-0.31089-1.0508-0.46679-1.0508 0-0.35021-0.31195-0.78913-0.93555-1.3144-0.4677-0.70043-0.70117-1.1374-0.70117-1.3125-0.3118 0.17509-0.54528 0.43883-0.70117 0.78906-0.1559 0.17509-0.31285 0.26172-0.46876 0.26172l-0.46679 1.0508-0.46875 1.0508c0 0.17509 0.07848 0.78724 0.23437 1.8379 0.1559 0.87553 0.3109 1.4896 0.4668 1.8398 0.3118 0.70042 0.70223 1.0508 1.1699 1.0508 0.15589 0.17509 0.31285 0.26172 0.46875 0.26172h0.4668l-0.23438 1.8379h-1.6367c-0.62359-0.1751-1.0905-0.26172-1.4023-0.26172-0.15589 0-0.54632 0.26179-1.1699 0.78711-0.46769 0.35021-0.77965 0.52539-0.93555 0.52539-0.3118-0.1751-0.62375-0.43689-0.93554-0.78711-0.1559 0-0.38938-0.17518-0.70118-0.52539l-0.23437-0.26367c-0.3118 0-0.62375 0.17517-0.93555 0.52539-0.15589 0.35021-0.23242 0.61395-0.23242 0.78906l-0.46875 7.8789c-0.15589-0.17509-0.31089-0.43688-0.4668-0.78711 0-0.35021-0.07848-0.52539-0.23437-0.52539-0.15589-0.17509-0.3109-0.26367-0.4668-0.26367-0.31179 0-0.46875-0.08662-0.46875-0.26172h-0.4668c0 0.1751-0.07848 0.26172-0.23437 0.26172h-0.23438c-0.15589 0-0.38937 0.17518-0.70117 0.52539-0.3118 0.35022-0.46679 0.61396-0.46679 0.78907 0 0.17509 0.15499 0.52544 0.46679 1.0508 0.3118 0.52532 0.4668 0.96228 0.4668 1.3125v2.3633c-0.15589 0-0.54437-0.08663-1.168-0.26172-0.62359 0-1.014-0.08663-1.1699-0.26172 0-0.17509-0.07848-0.35027-0.23438-0.52539l-0.46679-0.52539c-0.1559 0-0.38937-0.43892-0.70118-1.3144-0.15589-0.70043-0.23437-1.1374-0.23437-1.3125h-0.93555-1.168c-0.46769 0.52532-0.70312 1.0508-0.70312 1.5762 0 0.17509 0.07848 0.35027 0.23437 0.52539l0.46875 0.52539v0.52539l-0.23437 0.26172c-0.15589 0.35021-0.6248 0.87575-1.4043 1.5762-0.62359 0.87553-1.0906 1.4877-1.4023 1.8379-0.15589-0.35021-0.54632-0.96236-1.1699-1.8379-0.4677-0.87553-0.70117-1.4877-0.70118-1.8379l-0.46679-0.26367h-0.46875c-0.3118 0.35021-0.62375 0.96236-0.93555 1.8379-0.15589 0.87553-0.23242 1.4896-0.23242 1.8398-0.15589 0.35022-0.39132 0.78718-0.70313 1.3125-0.31179 0.52532-0.54527 0.78906-0.70117 0.78907-0.31179 0.35021-1.0122 1.0509-2.1035 2.1016-0.93539 1.2257-1.5593 2.0131-1.8711 2.3633-0.31179 0-0.85723 0.08662-1.6367 0.26172-0.77949 0.17509-1.3249 0.35027-1.6367 0.52539-0.06677 0-0.42042-0.07921-0.60157-0.11133-0.09437 0.06885-0.20283 0.11133-0.33398 0.11133-0.20206 0-0.35203-0.0983-0.4668-0.26172 0.44414 0.09974 0.55953 0.10762 0.80078 0.15039 0.24217-0.17667 0.36719-0.57116 0.36719-1.2012 0.15589-0.70043-0.00106-1.0508-0.46875-1.0508-0.4677 0-0.77965 0.35035-0.93555 1.0508 0 0.4964 0.08403 0.83582 0.23438 1.0508h-1.4024-2.1055c-0.3118-0.17509-0.93571-0.96437-1.8711-2.3652-0.93539-1.2258-1.5573-2.0997-1.8691-2.625-0.31179-0.35022-0.54723-1.3147-0.70312-2.8906-0.1559-1.4008-0.1559-2.2748 0-2.625l-1.168-0.26367c0.15589 0.35021 0.07741 1.0509-0.23438 2.1016-0.31179 1.2258-0.62375 2.0131-0.93554 2.3633 0 0.17509-0.46695 0.35027-1.4024 0.52539-0.77949 0.1751-1.3249 0.26367-1.6367 0.26367-0.15589 0-0.7798-0.08857-1.8711-0.26367h-1.8711c-0.62359 0-0.93555 0.43893-0.93555 1.3145-0.15589 0-0.38937 0.26179-0.70117 0.78711-0.3118 0.70042-0.54527 1.226-0.70117 1.5762l-0.46875 0.52539-0.4668 0.52539c-0.15589-0.17509-0.31285-0.61402-0.46875-1.3144-0.15589-0.70043-0.31089-1.1374-0.4668-1.3125-0.15589-0.35022-0.31285-0.70058-0.46875-1.0508 0-0.35021-0.155-0.70057-0.4668-1.0508-0.3118-0.52532-0.62375-0.96228-0.93555-1.3125-0.15589 0-0.62285-0.26374-1.4023-0.78906-0.77949-0.35021-1.2484-0.52539-1.4043-0.52539-0.3118-0.35021-0.62375-0.612-0.93555-0.78711-0.3118-0.17509-0.62375-0.26367-0.93555-0.26367-0.15589-0.35021-0.54437-0.8738-1.168-1.5742l-0.93555-1.0508c-0.15589 0.35021-0.46784 0.78718-0.93555 1.3125-0.46769 0.52532-0.85813 0.87567-1.1699 1.0508-0.15589 0-0.31089 0.08663-0.4668 0.26172-0.15589 0.17509-0.31285 0.26367-0.46875 0.26367 0-0.35021-0.076528-1.2261-0.23242-2.627s-0.31285-2.2767-0.46875-2.627c-0.15589 0-0.54632-0.17518-1.1699-0.52539-0.46769-0.35021-0.7777-0.52539-0.93359-0.52539 0-0.35021 0.076529-0.78718 0.23242-1.3125s0.15589-0.87567 0-1.0508c0-0.17509-0.31195-0.43688-0.93555-0.78711-0.62359-0.35021-0.93555-0.61396-0.93555-0.78906-0.15589-0.17509-0.15589-0.8758 0-2.1016 0.15589-1.2257 0.23438-2.0131 0.23438-2.3633 0-0.1751-0.155-0.43689-0.4668-0.78711-0.3118-0.52532-0.46875-0.96424-0.46875-1.3145 0-0.17509-0.31195-0.52544-0.93555-1.0508-0.62359-0.52532-0.93555-0.87567-0.93555-1.0508v-1.8379-0.78906-0.52344c0.15589-0.17509 0.23438-0.35027 0.23437-0.52539 0.3118 0.35021 0.77875 0.78718 1.4023 1.3125 0.62359 0.52532 1.0925 0.87568 1.4043 1.0508l0.4668 0.26172h0.70312l0.93359-0.52539c0.3118-0.17509 0.54723-0.26172 0.70312-0.26172 0.15589 0 0.31089-0.08858 0.4668-0.26367h0.70117c0.15589-0.17509 0.46785-0.35027 0.93555-0.52539 0.62359-0.1751 1.014-0.34832 1.1699-0.52344 0.15589 0.35021 0.31089 0.78718 0.4668 1.3125 0.15589 0.52532 0.31285 0.87568 0.46875 1.0508h0.4668 0.23438 1.1699c0.62359-0.17509 1.0121-0.43884 1.168-0.78906 0 0.35021 0.078482 0.78913 0.23438 1.3144 0.3118 0.35021 0.54527 0.70057 0.70117 1.0508 0.15589 0.35022 0.23438 1.6631 0.23437 3.9395 0 2.1013 0.078483 3.3275 0.23438 3.6777 0.15589 0.17509 0.31089 0.61206 0.4668 1.3125 0.15589 0.52532 0.31285 0.96424 0.46875 1.3144 0.46769 0.52532 0.85617 0.78711 1.168 0.78711v-2.8887c0.15589-1.7511 0.23438-2.9773 0.23438-3.6777 0-0.1751 0.078482-0.52545 0.23438-1.0508 0.3118-0.52532 0.54527-0.87568 0.70117-1.0508 0-0.17509 0.155-0.70062 0.4668-1.5762 0.46769-1.0506 0.70117-1.6628 0.70117-1.8379h0.46875c0.15589 0.17509 0.31089 0.26172 0.4668 0.26172 0.3118 0 1.0927 0.26374 2.3398 0.78906 1.4031 0.35021 2.2605 0.612 2.5723 0.78711h0.93555 0.23242c0-0.17509 0.07848-0.43688 0.23437-0.78711 0.3118-0.35021 0.54528-0.52539 0.70118-0.52539h0.46875c0.15589 0 0.31089 0.08663 0.46679 0.26172 0.3118 0 0.70223 0.43892 1.1699 1.3144 0 0.1751 0.07849 0.52545 0.23438 1.0508 0.3118 0.52531 0.4668 0.87567 0.4668 1.0508 0.15589-0.1751 0.46784-0.52545 0.93554-1.0508 0.6236-0.70043 1.014-1.0508 1.1699-1.0508h0.70117l0.46679 0.26172c0.1559 0 0.46785 0.17518 0.93555 0.52539 0.4677 0.1751 0.85813 0.26368 1.1699 0.26368h0.23438 0.46679l2.248-4.041c0.01935-0.06042 0.04754-0.11459 0.08985-0.16211l-0.08985 0.16211c-0.05193 0.16221-0.02374 0.36982 0.08985 0.625 0.31179 0.17509 0.54722 0.35027 0.70312 0.52539l0.4668 0.26367h0.46679c0.1559 0 0.23438-0.08858 0.23438-0.26367 0.62359-0.17509 1.9499-0.70063 3.9766-1.5762 2.1826-1.0506 3.5854-1.7494 4.209-2.0996 0.31179 0.17509 0.77875 0.43688 1.4023 0.78711 0.77949 0.17509 1.3249 0.26172 1.6367 0.26172l0.46875 0.52539 0.46679 0.52539c0.1559 0 0.31285-0.08663 0.46876-0.26172l0.46679-0.52539 0.4668-1.0508c0.15589-0.35021 0.23437-0.612 0.23437-0.78711 0-0.17509 0.07849-0.35027 0.23438-0.52539 0.15589 0 0.38937-0.08858 0.70117-0.26367l0.70117-0.78711c0.3118 0 0.93571-0.08858 1.8711-0.26368 0.93539-0.35021 1.5593-0.52539 1.8711-0.52539 0.15589-0.17509 0.46785-0.35027 0.93555-0.52539 0.62359-0.17509 1.014-0.35027 1.1699-0.52539 0.15589 0 0.62285-0.08662 1.4023-0.26172 0.9354-0.35021 1.4808-0.52539 1.6367-0.52539 0.4677 0 0.85812-0.08858 1.1699-0.26367s0.54528-0.35027 0.70118-0.52539c0.31179-0.35021 0.70222-0.96236 1.1699-1.8379 0.62359-0.87553 1.0121-1.4011 1.168-1.5762 0.46769-0.52532 1.482-1.5764 3.041-3.1523 1.7149-1.7511 2.8842-2.8888 3.5078-3.4141l1.6367-0.78711c0.1559 0 0.3109-0.08858 0.4668-0.26367 0.3118-0.35021 0.54527-0.52539 0.70117-0.52539 0.3118-0.52532 0.85723-1.3126 1.6367-2.3633 0.93539-1.2258 1.5593-2.0131 1.8711-2.3633 0-0.35021 0.07849-0.61396 0.23438-0.78906 0.3118-0.35022 0.46875-0.61201 0.46875-0.78711 0.31179-0.35022 0.54527-0.87575 0.70117-1.5762 0.15589-0.70042 0.38937-1.4011 0.70117-2.1016s0.62375-1.4011 0.93555-2.1016c0.15589-0.35021 0.15589-0.87575 0-1.5762-0.15589-0.87554-0.23438-1.4877-0.23438-1.8379h-0.23437c0.15589-0.1751 0.15589-0.26367 0-0.26367-0.3118 0.17509-0.77875 0.52544-1.4023 1.0508-0.4677 0.35021-0.70118 0.43879-0.70118 0.26367-0.46769-0.35022-1.0131-0.96432-1.6367-1.8398-0.62359-0.87553-1.0925-1.4877-1.4043-1.8379l-1.8711 1.8379c-0.31179 0-0.85722-0.43696-1.6367-1.3125-0.6236-0.87553-1.0906-1.4011-1.4024-1.5762-0.15589-0.35021-0.31089-0.78718-0.46679-1.3125-0.1559-0.70042-0.23438-1.1394-0.23438-1.3144 0.15589 0 0.46785-0.08663 0.93555-0.26172 0.46769-0.17509 0.77965-0.43884 0.93554-0.78906l0.23243-0.78711c-0.1559 0-0.23243-0.08858-0.23243-0.26367v-0.52539-0.52344c0-0.35021-0.15695-1.2261-0.46875-2.627-0.15589-0.70043-0.23437-1.3145-0.23437-1.8398l-1.8691-0.26172c0.15589-0.35021 0.15589-1.0509 0-2.1016v-2.3633c0.15589-0.52532 0.07741-1.665-0.23438-3.416-0.15589-1.7511-0.23437-2.8887-0.23437-3.4141l-0.4668-0.26172-0.46875 0.26172c-0.46769 0.52532-0.85617 0.78906-1.168 0.78906-0.3118 0.52532-0.54722 1.4878-0.70312 2.8887s-0.38937 2.3634-0.70117 2.8887c0 0.52532-0.07849 1.8382-0.23438 3.9394v3.9414l-0.93359 1.0508c-0.3118-0.35022-0.70223-1.1395-1.1699-2.3652-0.4677-1.2257-0.70118-2.0131-0.70118-2.3633 0-0.17509-0.15695-0.43883-0.46875-0.78906-0.15589-0.35021-0.31089-0.52344-0.46679-0.52344 0 0.1751-0.15696 0.61206-0.46875 1.3125-0.3118 0.52532-0.54528 0.87568-0.70118 1.0508-0.15589 0.35022-0.38936 1.1375-0.70117 2.3633-0.31179 1.0506-0.46679 1.7514-0.46679 2.1016-0.3118-0.1751-0.85918-0.70063-1.6387-1.5762-0.62359-1.0506-0.93554-1.7514-0.93554-2.1016-0.3118-0.52532-0.23332-1.5744 0.23437-3.1504 0.4677-1.576 0.70117-2.627 0.70117-3.1523-0.15589 0-0.46784-0.08858-0.93554-0.26367-0.3118-0.1751-0.6218-0.1751-0.9336 0-0.31179 0.17509-0.85918 0.70063-1.6387 1.5762-0.77949 0.70042-1.2464 1.1394-1.4023 1.3144l-0.93555 0.52539c-0.15589 0.1751-0.31089 0.26172-0.4668 0.26172l-0.23437 0.26172-0.23438 0.26367c-0.31179 0.17509-0.77875 0.78724-1.4023 1.8379-0.4677 1.0506-0.85813 1.8399-1.1699 2.3652v0.52539l-0.23438 0.52539c0.1559 0.17509 0.39132 0.96241 0.70313 2.3633 0.3118 1.2257 0.38833 2.0131 0.23242 2.3633 0.15589 0 0.23437 0.26374 0.23437 0.78906 0.1559 0.52532 0.23438 0.87568 0.23438 1.0508h-2.8066c0-0.17509-0.07848-0.52545-0.23438-1.0508-0.15589-0.70042-0.31089-1.0508-0.46679-1.0508 0-0.35021-0.15696-0.70057-0.46875-1.0508-0.3118-0.35021-0.54528-0.52539-0.70117-0.52539l-0.23243 3.4141c-0.31179 0-0.7807-0.08662-1.4043-0.26172-0.4677-0.35021-0.85618-0.70056-1.168-1.0508-0.15589 0-0.31285-0.08858-0.46875-0.26367-0.15589-0.35021-0.31089-0.52539-0.4668-0.52539 0.15589-0.35021 0.07741-0.96236-0.23437-1.8379-0.1559-0.87553-0.31285-1.4877-0.46875-1.8379-0.1559-0.17509-0.62285-0.87581-1.4024-2.1016-0.62359-1.2258-1.0905-2.1016-1.4023-2.627l-0.93555-1.0508h-0.46875-0.70117c-0.3118 0-0.85723 0.17518-1.6367 0.52539-0.62359 0.1751-1.014 0.26172-1.1699 0.26172-0.3118 0.35021-0.70027 0.78914-1.168 1.3144-0.4677 0.35022-0.77965 0.70057-0.93555 1.0508 0 0.17509-0.23347 0.70062-0.70117 1.5762-0.31179 0.70042-0.46875 1.224-0.46875 1.5742 0 0.17509-0.155 0.52544-0.46679 1.0508-0.3118 0.52531-0.46875 0.96424-0.46876 1.3144-0.15589 0-0.38937 0.17518-0.70117 0.52539-0.15589 0.17509-0.38937 0.26172-0.70117 0.26172v-0.78711-0.26367c0.15589-0.17509 0.23438-0.35027 0.23438-0.52539v-1.5762c0-0.1751 0.155-0.5235 0.46679-1.0488 0.4677-0.70043 0.77965-1.1394 0.93555-1.3145-0.15589-0.35021-0.46785-0.87574-0.93555-1.5762-0.46769-0.87553-0.85812-1.4877-1.1699-1.8379-0.31179 0.1751-0.85723 0.70063-1.6367 1.5762-0.62359 0.70043-1.0121 1.226-1.168 1.5762-0.15589 0.17509-0.39132 0.61206-0.70312 1.3125-0.3118 0.52532-0.4668 0.87567-0.4668 1.0508-0.3118 0-0.85723 0.26179-1.6367 0.78711-0.7795 0.52532-1.3249 0.96424-1.6367 1.3144-0.15589 0-0.31285 0.08663-0.46875 0.26172-0.15589 0.17509-0.38937 0.35027-0.70117 0.52539-0.3118 0.35021-0.62375 0.61395-0.93555 0.78906h-0.4668-0.46875c-0.3118 0.17509-1.0122 0.35027-2.1035 0.52539-1.0913 0.1751-1.7152 0.26172-1.8711 0.26172h-0.46875-0.4668c-0.3118 0-1.0142-0.35036-2.1055-1.0508-1.0913-0.70042-1.7917-1.1374-2.1035-1.3125-0.15589 0-0.6248-0.17518-1.4043-0.52539-0.62359-0.35021-1.0905-0.52539-1.4023-0.52539-0.15589-0.35022-0.31089-0.96236-0.4668-1.8379-0.15589-0.87553-0.23438-1.4896-0.23438-1.8398 0-0.17509-0.46891-0.8758-1.4043-2.1016-0.77949-1.4008-1.2464-2.2748-1.4023-2.625-0.15589-0.17509-0.38937-0.43883-0.70117-0.78906-0.15589-0.52532-0.23438-0.96229-0.23438-1.3125-0.15589-0.35021-0.31089-1.0509-0.4668-2.1016 0-1.2258-0.078482-2.015-0.23438-2.3652v-2.3633c-0.15589 0-0.31089-0.35036-0.4668-1.0508-0.15589-0.70042-0.31284-1.0508-0.46875-1.0508-0.15589-0.35022-0.31089-1.3127-0.4668-2.8887v-2.8887-2.1016-0.78906c0-0.17509 0.076529-0.35027 0.23242-0.52539 0.15589-0.17509 0.6248-0.5235 1.4043-1.0488 0.77949-0.52532 1.2464-0.87568 1.4023-1.0508 0.3118-0.35021 0.70223-0.70057 1.1699-1.0508 0.6236-0.35021 0.93555-0.61396 0.93555-0.78906 0.15589-0.35022 0.54437-1.3127 1.168-2.8887 0.77949-1.576 1.2484-2.4518 1.4043-2.627 0-0.52532 0.23348-1.0508 0.70117-1.5762l0.4668 0.26367h0.93555c0 0.17509 0.23348 0.43688 0.70117 0.78711 0.62359 0.35021 0.93555 0.61395 0.93555 0.78906h0.93555c0.15589 0 0.23438 0.086626 0.23438 0.26172h0.4668 0.46875c0.3118-0.17509 0.9357-0.52545 1.8711-1.0508 1.0913-0.52532 1.7917-0.87567 2.1035-1.0508 0.15589-0.17509 0.46785-0.17509 0.93555 0 0.4677 0.17509 0.77965 0.17509 0.93555 0 0.3118-0.17509 0.85723-0.52545 1.6367-1.0508 0.77949-0.52532 1.3249-0.87567 1.6367-1.0508 0.15589 0 0.46785 0.17518 0.93555 0.52539 0.62359 0.17509 1.014 0.35027 1.1699 0.52539h0.4668c0.15589 0.17509 0.31285 0.26367 0.46875 0.26367 0.15589-0.17509 0.31089-0.70063 0.4668-1.5762 0.15589-0.87553 0.39132-1.3145 0.70312-1.3145 0-0.35021 0.54543-0.35021 1.6367 0 1.0913 0.17509 1.7917 0.26367 2.1035 0.26367 0-0.17509 0.07849-0.35027 0.23438-0.52539l0.23438-0.26367c0-0.17509 0.07652-0.35027 0.23242-0.52539l0.46875-1.0488 2.1035-2.3652c0.1559 0 0.6248-0.086626 1.4043-0.26172 0.77949-0.35021 1.3249-0.52539 1.6367-0.52539h0.4668l0.46874 0.26172c0.1559 0 0.3109 0.35036 0.4668 1.0508 0.15589 0.52532 0.38937 0.87568 0.70117 1.0508 0 0.52532 0.23543 0.52532 0.70313 0 0.15589-0.17509 0.38937-0.35027 0.70117-0.52539l0.23438-3.4141c0.15589 0 0.46784 0.086626 0.93554 0.26172 0.6236 0 1.0906-0.17518 1.4024-0.52539 0.31179-0.17509 0.70222-0.52545 1.1699-1.0508 0.46769-0.70042 0.77769-1.1374 0.93359-1.3125 0.15589 0 0.6248-0.086626 1.4043-0.26172 0.93539-0.17509 1.5593-0.35027 1.8711-0.52539 0.1559 0 0.7798-0.43892 1.8711-1.3145 1.0913-1.0506 1.7917-1.6628 2.1035-1.8379 0.3118-0.17509 1.0142-0.52545 2.1055-1.0508 1.0913-0.52532 1.7917-0.87568 2.1035-1.0508 0.15589 0 0.62479 0.086626 1.4043 0.26172 0.93539 0.17509 1.4808 0.17509 1.6367 0 0.15589 0 0.46785-0.61214 0.93555-1.8379 0.62359-1.2257 1.0906-2.0131 1.4023-2.3633 0-0.35021 0.07848-0.61396 0.23438-0.78906 0.15589-0.17509 0.31089-0.17509 0.46679 0h0.93555l0.70117-0.78711 0.46875-0.52539 0.4668-8.9297-0.4668-0.52539c-0.15589-0.17509-0.31284-0.26367-0.46875-0.26367l-0.23242-0.26172c0-0.17509-0.31195-0.17509-0.93555 0-0.46769 0-0.70312-0.088579-0.70312-0.26367-0.3118-0.17509-0.70027-0.52545-1.168-1.0508-0.46769-0.52532-0.70117-0.96229-0.70117-1.3125-0.3118 0.35021-0.9357 0.87575-1.8711 1.5762-0.77948 0.70042-1.2484 1.226-1.4043 1.5762-0.3118 0.17509-0.70028 0.70063-1.168 1.5762-0.3118 0.87554-0.62375 1.3991-0.93555 1.5742-0.3118 0.35021-0.70223 0.61396-1.1699 0.78906-0.46769 0.17509-0.77965 0.26172-0.93555 0.26172 0-0.17509-0.15499-0.52545-0.46679-1.0508-0.1559-0.52532-0.31285-0.87568-0.46875-1.0508h-0.23242-0.46876c-0.3118 0.17509-0.62375 0.52545-0.93554 1.0508-0.15589 0.52532-0.38937 0.78906-0.70117 0.78906-0.1559 0.17509-0.3109 0.26172-0.4668 0.26172h-0.70313-0.93554c-0.3118-0.17509-0.54527-0.26172-0.70117-0.26172-0.3118-0.17509-0.77876-0.52545-1.4024-1.0508-0.62359-0.52532-1.0906-0.96424-1.4023-1.3145-0.15589 0-0.39133-0.3484-0.70313-1.0488-0.15589-0.70042-0.23242-1.1393-0.23242-1.3145h-0.23437-0.46875c-0.1559 0-0.23243-0.086626-0.23243-0.26172-0.31179 0.35021-0.62374 0.612-0.93554 0.78711l-0.93555 0.52539h-2.1055-0.4668c-0.15589-0.17509-0.38936-0.26172-0.70117-0.26172h-0.93554c-0.1559 0-0.6248-0.26374-1.4043-0.78906-0.77949-0.52532-1.3249-0.78711-1.6367-0.78711h-3.9746c-2.0267-0.17509-3.353-0.35027-3.9766-0.52539 0-0.17509-0.07653-0.52545-0.23242-1.0508-0.1559-0.52532-0.31285-0.87567-0.46875-1.0508-0.15589 0-0.23242-0.088578-0.23242-0.26367s-0.078482-0.26172-0.23438-0.26172v-0.26172l-0.46875-0.52539h-0.93555-0.70117c-0.15589 0-0.31089-0.088578-0.4668-0.26367l-1.6367 1.8379c-0.77949 0.70042-1.2484 1.226-1.4043 1.5762 0.15589-0.35021-0.077585-0.78718-0.70117-1.3125-0.62359-0.70042-1.0905-1.0508-1.4023-1.0508l-0.23438-0.26367-0.46875 0.26367c-0.3118 0-0.70028 0.26179-1.168 0.78711-0.4677 0.35021-0.77965 0.70057-0.93555 1.0508l-6.7812-0.26172c0 0.17509-0.23348 0.43688-0.70117 0.78711-0.3118 0.35021-0.54722 0.43879-0.70312 0.26367h-2.5723-1.168c-0.3118 0-0.62375-0.088579-0.93555-0.26367-0.15589 0-0.38937-0.17518-0.70117-0.52539-0.15589-0.35021-0.31285-0.612-0.46875-0.78711-0.15589 0-0.46784-0.088579-0.93555-0.26367-0.3118-0.35021-0.62375-0.612-0.93555-0.78711-0.15589-0.17509-0.46785-0.26172-0.93555-0.26172-0.3118 0-0.54527 0.086626-0.70117 0.26172 0 0.17512 0.078482 0.70065 0.23438 1.5762 0.3118 0.70042 0.3118 1.226 0 1.5762 0 0.17509-0.39043 0.52545-1.1699 1.0508-0.77949 0.52532-1.3249 0.87567-1.6367 1.0508-0.3118 0.35021-0.77875 0.96236-1.4023 1.8379-0.46769 0.70042-0.70117 1.1374-0.70117 1.3125-0.15589 0.17509-0.23438 0.43884-0.23438 0.78906v1.3125 1.3145 1.0508 2.0996c0.15589 1.0506 0.38937 1.8399 0.70117 2.3652 0 0.35021 0.078482 0.96236 0.23438 1.8379 0.3118 0.87554 0.4668 1.4896 0.4668 1.8398l0.23437 0.78711c0 0.17509-0.078482 0.26172-0.23437 0.26172v0.26367 0.52539c-0.15589 0.35021-0.54437 0.96236-1.168 1.8379-0.46769 0.87553-0.77965 1.4011-0.93555 1.5762l2.1035 18.123c0 0.35021 0.078482 0.78914 0.23437 1.3145 0.3118 0.35021 0.54527 0.70057 0.70117 1.0508v12.344c0 0.35022-0.078482 1.0509-0.23438 2.1016-0.15589 1.0506-0.31089 2.1883-0.4668 3.4141 0 1.2258-0.078482 2.452-0.23437 3.6777-0.15589 1.0506-0.23242 1.6647-0.23242 1.8398-0.15589 0-0.23438 0.08663-0.23438 0.26172v0.52539 0.52539c0 0.52532 0.078482 1.0508 0.23438 1.5762l0.4668 1.5762c0 0.35022-0.078482 1.1375-0.23437 2.3633v2.1016 2.8887 5.2539 4.9902c0.15589 1.4008 0.23437 2.2767 0.23437 2.627 0 0.1751-0.078482 0.70063-0.23437 1.5762v2.3633c0 0.87553-0.076529 1.7514-0.23242 2.627v1.3125c0 0.17509 0.076529 0.70063 0.23242 1.5762 0.3118 0.70043 0.54527 1.3145 0.70117 1.8398 0.15589 0.17509 0.31285 0.52349 0.46875 1.0488 0.15589 0.52532 0.23438 0.87568 0.23438 1.0508 0.3118 0.52531 0.54527 1.4012 0.70117 2.627 0.3118 1.2257 0.4668 1.9265 0.4668 2.1016 0 0.17509-0.23348 0.52545-0.70117 1.0508-0.3118 0.52532-0.54527 0.78711-0.70117 0.78711 0 0.35021-0.31195 1.3147-0.93555 2.8906-0.46769 1.576-0.85812 2.5385-1.1699 2.8887-0.3118 0.35021-1.0122 1.0509-2.1035 2.1016-1.0913 1.0506-1.7937 1.7514-2.1055 2.1016-0.3118 0.35022-0.62375 1.1375-0.93555 2.3633-0.15589 1.0506-0.23242 1.7513-0.23242 2.1016l-2.1055-0.26367c0-0.70043-0.078482-2.1885-0.23438-4.4648-0.15589-2.2764-0.23242-3.7644-0.23242-4.4648 0-0.17509-0.46891-0.70063-1.4043-1.5762-0.7795-0.87554-1.7154-1.7514-2.8066-2.627-1.0913-1.0506-2.1037-1.9246-3.0391-2.625-0.7795-0.87553-1.1699-1.4011-1.1699-1.5762-0.15589-0.35021-0.31089-1.0509-0.4668-2.1016-0.15589-1.2257-0.23438-2.015-0.23438-2.3652v-2.3633c0.15589-1.2257 0.23438-1.9264 0.23438-2.1016 0-0.35021-0.15695-1.3127-0.46875-2.8887-0.15589-1.576-0.15589-2.5385 0-2.8887v-1.8398-3.1504c0.15589-1.2257 0.23438-2.2768 0.23438-3.1523 0.15589-1.0506 0.23438-1.6647 0.23438-1.8398s-0.078482-0.61207-0.23438-1.3125c0-0.87554-0.078482-1.7514-0.23438-2.627 0-0.87553-0.076529-1.6628-0.23242-2.3633-0.15589-0.87553-0.23438-1.4896-0.23438-1.8398l0.23438-1.0488v-0.78906c0.15589-0.35022 0.54437-0.70057 1.168-1.0508 0.6236-0.52531 0.93555-0.87567 0.93555-1.0508v-1.3125l-1.6367-0.26367v-3.1504c0.15589-1.9262 0.15589-3.0658 0-3.416 0-0.1751-0.155-0.35027-0.4668-0.52539-0.15589-0.35022-0.31284-0.61201-0.46875-0.78711-0.15589 0-0.46785-0.08858-0.93555-0.26368-0.46769-0.35021-0.77965-0.52539-0.93555-0.52539v-0.78711-0.52539c0.15589-0.17509 0.38937-0.61206 0.70117-1.3125l0.93555-2.1016c0.4677-0.70043 0.85813-1.4011 1.1699-2.1016 0.3118-0.70042 0.46875-1.1374 0.46875-1.3125 0-0.17509 0.076529-0.35027 0.23242-0.52539v-0.26367c0.15589 0 0.23438-0.086626 0.23438-0.26172l-0.23438-0.52539v-0.52539c-0.15589 0.17509-0.46785 0.35027-0.93555 0.52539-0.46769 0.17509-0.77965 0.35027-0.93555 0.52539-0.15589 0.17509-0.31089 0.26172-0.4668 0.26172h-0.70117l-0.93555-0.52539c0.3118-0.35021 0.70028-1.3127 1.168-2.8887 0.62359-1.7511 1.014-2.8887 1.1699-3.4141 0-0.35021-0.078482-0.78913-0.23438-1.3145 0-0.52532 0.078482-0.87567 0.23438-1.0508l-2.1035-0.26172v-0.52539c0-0.35021 0.076529-0.52539 0.23242-0.52539 0.15589-0.35021 0.6248-1.4013 1.4043-3.1523 0.93539-1.7511 1.5593-2.8021 1.8711-3.1523 0.15589-0.35021 0.15589-0.612 0-0.78711-0.15589-0.35021-0.15589-0.61396 0-0.78906h-2.3398v-2.0996c0.15589-1.2257 0.31284-2.452 0.46875-3.6777 0.15589-1.4008 0.23242-2.6271 0.23242-3.6777 0.15589-1.2257 0.23438-2.1016 0.23438-2.627 0-0.17509 0.23348-0.70063 0.70117-1.5762 0.4677-0.87553 0.70117-1.4877 0.70117-1.8379v-2.1016c0.15589-0.35021 0.23438-0.78718 0.23438-1.3125v-1.0508c-0.15589-0.17509-0.54437-1.051-1.168-2.627-0.4677-1.576-0.70312-2.5385-0.70312-2.8887-0.15589-0.17509-0.23242-0.43884-0.23242-0.78906 0-0.52532 0.076529-0.87568 0.23242-1.0508h1.1699c0.62359-0.17509 1.014-0.26172 1.1699-0.26172 0-0.17509 0.076529-0.35027 0.23242-0.52539 0.3118-0.35021 0.54723-0.61395 0.70312-0.78906v-0.52539-0.26172c0.15589 0 0.23242-0.088579 0.23242-0.26367l-0.23242-0.52344v-0.52539c0-0.17509-0.078482-0.61401-0.23438-1.3145-0.15589-0.70042-0.38937-1.4011-0.70117-2.1016-0.15589-0.87553-0.31284-1.5762-0.46875-2.1016-0.15589-0.70042-0.23438-1.1374-0.23438-1.3125 0-0.35021 0.078482-1.0509 0.23438-2.1016 0.3118-1.2257 0.46875-2.0131 0.46875-2.3633h-2.1055c-0.1559-0.35027-0.3109-1.1395-0.4668-2.3652s-0.39133-2.0131-0.70312-2.3633l-0.4668-1.5762c-0.1559-0.52532-0.23437-1.0509-0.23437-1.5762v-2.625-1.3145c0-0.35021 0.078482-0.612 0.23437-0.78711 0.15589-0.17511 1.0918-0.26367 2.8066-0.26367 1.7149-0.17511 2.6507-0.26172 2.8066-0.26172 0.15589 0 0.54437 0.086613 1.168 0.26172h1.8711c0.7795 0 1.4034 0.088566 1.8711 0.26367h1.168c0.15589-0.35021 0.54632-1.1395 1.1699-2.3652 0.62359-1.4008 1.014-2.1016 1.1699-2.1016 0.15589-0.17511 0.38937-0.34833 0.70117-0.52344 0.6236-0.35021 1.014-0.52539 1.1699-0.52539l0.70117-0.26367 0.23438 0.26367c0.3118 0.35021 0.77875 0.96236 1.4023 1.8379 0.62359 0.87553 1.0905 1.4877 1.4023 1.8379l7.4844-7.3535 0.93555 0.52539c0.4677 0.1751 0.70117 0.35028 0.70117 0.52539h1.6367c0.93539 0 1.4808 0.086613 1.6367 0.26172 0 0.17511 0.078482 0.35028 0.23438 0.52539l0.4668 0.52539c0.15589 0.35021 0.31285 0.78913 0.46875 1.3145 0.3118 0.52532 0.54527 0.87372 0.70117 1.0488 0.15589 0.1751 0.31089 0.26367 0.4668 0.26367h0.93555 1.4043c0.15589-0.17511 0.31089-0.35028 0.4668-0.52539 0.3118-0.35021 0.54527-0.52539 0.70117-0.52539v-1.5762c0-0.87553 0.078482-1.4877 0.23438-1.8379 0.15589-0.52532 0.38937-1.1394 0.70117-1.8398 0.46769-0.70042 0.85813-1.1374 1.1699-1.3125 0.3118-0.35021 1.0122-0.52539 2.1035-0.52539h2.1055l-0.46875 5.2539c0.3118-0.35021 1.0142-0.87575 2.1055-1.5762 1.0913-0.70042 1.8702-1.1393 2.3379-1.3145 0.3118-0.35021 1.0927-0.70057 2.3398-1.0508 1.2472-0.52532 2.1811-0.87372 2.8047-1.0488 0-0.17511 0.23543-0.26367 0.70312-0.26367-0.15589 0.35021-0.23437 0.96236-0.23437 1.8379 0.15589 0.70042 0.23437 1.226 0.23437 1.5762 0 0.35021 0.07653 0.78913 0.23243 1.3145 0.15589 0.52532 0.31284 0.87568 0.46875 1.0508l0.46679 0.26172h0.70117c0.1559-0.1751 0.6248-0.52546 1.4043-1.0508l1.8711-1.0508 0.70117-0.78711c0.15589-0.35021 0.23437-0.96431 0.23437-1.8398 0.15589-0.87553 0.15589-1.4877 0-1.8379 0.3118 0.17511 0.6218 0.43885 0.9336 0.78906l0.93554 0.52344c0 0.17511 0.07848 0.26367 0.23438 0.26367h0.46875l0.23242-0.26367c0.3118-0.17511 0.62375-0.52351 0.93555-1.0488 0.31179-0.52532 0.46875-0.87567 0.46875-1.0508zm-12.16 6.041c-0.3118 0.17511-0.7807 0.35028-1.4043 0.52539-0.4677 0-0.77965 0.086613-0.93555 0.26172h-1.4023c0 0.87553 0.15696 1.6629 0.46875 2.3633l0.93359 1.0508c0 0.35021 0.078482 1.0509 0.23438 2.1016 0.3118 1.0506 0.46875 1.7514 0.46875 2.1016l1.168 0.26367 0.46875-8.668zm29.465 2.8887v1.0508h1.168v-1.0508h-1.168zm-36.246 2.1016v1.0508l1.4023 0.26172-1.4023-1.3125zm2.3379 3.4141 0.70117 1.5762 0.23438-1.5762h-0.93555zm22.684 1.3145-0.23437 1.5742 1.4023-1.3125-1.168-0.26172zm-51.682 13.92v2.1016h1.1699v-2.1016h-1.1699zm60.523 0.73828c-0.43846 0.032838-0.6582 0.31258-0.6582 0.83789 0 0.52532 0.39043 0.87568 1.1699 1.0508 0.10341 0 0.18284-0.039867 0.25195-0.097656 0.02586-0.39151 0.09356-0.66312 0.20703-0.80859-0.01863-0.61385-0.16709-0.93164-0.45898-0.93164-0.19487-0.043773-0.36556-0.061727-0.51172-0.050781zm0.9707 0.98242c0.00128 0.041861 0.00782 0.072472 0.00782 0.11719 0 0.35108-0.07558 0.57496-0.21485 0.69141-0.00763 0.11554-0.01757 0.2224-0.01757 0.35938 0 0.70043 0.155 1.0508 0.46679 1.0508 0.62359 0 0.93555-0.35035 0.93555-1.0508 0-0.87553-0.31196-1.3125-0.93555-1.3125-0.09773 0-0.17509 0.058509-0.24219 0.14453zm-3.9668 4.0586c-0.4677 0-0.70117 0.43697-0.70117 1.3125 0 0.70042 0.23347 1.0508 0.70117 1.0508 0.62359 0 0.93554-0.35036 0.93554-1.0508 0-0.87553-0.31195-1.3125-0.93554-1.3125zm0 2.3633c-0.4677 0-0.77965 0.35035-0.93555 1.0508 0 0.70042 0.23348 1.0508 0.70117 1.0508 0.62359 0 0.93555-0.35036 0.93555-1.0508 0.15589-0.70043-0.07759-1.0508-0.70117-1.0508zm22.449 7.8789c-0.3118 0-0.4668 0.26375-0.4668 0.78906 0 0.35021 0.155 0.52539 0.4668 0.52539 0.31179 0 0.46679-0.17518 0.46679-0.52539 0-0.35021-0.155-0.61396-0.46679-0.78906zm-8.0098 7.0098c-0.23385-0.03283-0.2927 0.083064-0.17578 0.3457 0 0.52532 0.07848 0.78711 0.23437 0.78711 0.3118 0 0.54528-0.17518 0.70118-0.52539 0.15589-0.35021 8.9e-4 -0.52539-0.4668-0.52539-0.11692-0.043773-0.21502-0.071088-0.29297-0.082031zm-5.3203 1.1328c-0.15589 0.17509-0.38937 0.61401-0.70117 1.3145-0.1559 0.52532-0.23438 0.96229-0.23438 1.3125 0 0.35021 0.07848 0.70057 0.23438 1.0508 0.15589 0.52532 0.31284 0.78906 0.46875 0.78906 0.15589 0 0.46784-0.088579 0.93554-0.26367 0.62359-0.17509 1.0906-0.35027 1.4024-0.52539l0.70117-0.78711-2.8066-2.8906zm-4.209 3.1523-0.93554 1.0508c0 0.17509-0.07653 0.43884-0.23242 0.78906v1.0488 0.78906 0.52539c0 0.17509 0.07652 0.26172 0.23242 0.26172 0.46769 0 0.70312-0.35036 0.70312-1.0508v-0.78711c0.15589-0.35021 0.23242-0.70057 0.23242-1.0508v-1.5762zm-7.4238 4.0059c-0.11693 0.043773-0.21502 0.19633-0.29297 0.45898 0 0.52532 0.15695 0.87568 0.46875 1.0508 0.46769-0.35021 0.70117-0.612 0.70117-0.78711 0-0.35021-0.15696-0.52539-0.46875-0.52539-0.1559-0.17511-0.29128-0.24104-0.4082-0.19726zm6.0215 5.9746v1.5762h1.8711v-1.5762h-1.8711zm-18.941 1.0508-0.23437 2.8906 1.1699-0.52539c0.15589-0.17509 0.31089-0.52545 0.4668-1.0508 0.3118-0.52532 0.46875-0.87568 0.46875-1.0508l-1.8711-0.26367zm0.4668 7.8809c0 0.17509-0.155 0.35027-0.4668 0.52539-0.31179 0.17509-0.46875 0.35027-0.46875 0.52539-0.15589 0.35022-0.31089 0.96236-0.46679 1.8379-0.1559 0.70042-0.23438 1.226-0.23438 1.5762h1.4043l0.23242-4.4648zm-12.861 1.3125c-0.62359 0-1.014 0.43892-1.1699 1.3145 0 0.70042 0.31195 1.0508 0.93555 1.0508 0.46769 0.17509 0.70312-0.088651 0.70312-0.78906 0.15589-0.87553-0.001061-1.4011-0.46875-1.5762zm-12.16 0.52539c-0.3118 0-0.54527 0.35036-0.70117 1.0508 0 0.70042 0.155 1.0508 0.4668 1.0508 0.77949 0.17509 1.1699-0.086698 1.1699-0.78711 0.15589-0.70042-0.15606-1.1393-0.93555-1.3145zm32.738 1.8398v1.3125c0 0.17509 0.07848 0.61206 0.23437 1.3125 0.3118 0.52532 0.54528 0.87568 0.70117 1.0508l1.1699 1.3145v-1.5762-1.8398c0-0.70042-0.31196-1.0488-0.93555-1.0488-0.15589 0-0.31089-0.088579-0.4668-0.26367h-0.46875c-0.15589 0-0.23437-0.086626-0.23437-0.26172zm3.5078 10.506v3.4141l2.3398 0.26367c0-0.70042-0.07848-1.1393-0.23437-1.3144-0.15589-0.35021-0.54632-0.78718-1.1699-1.3125l-0.93555-1.0508zm33.674 4.4648-0.23242 2.3633h1.168l0.23437-2.3633h-1.1699zm-65.711 1.5762c-0.3118-1e-5 -0.70027 0.26179-1.168 0.7871-0.15589 0.1751-0.39132 0.52545-0.70312 1.0508-0.15589 0.52531-0.31089 0.87567-0.4668 1.0508l2.1055 0.26367 0.23242-3.1523zm7.9512 0.26171c-0.77949 0-1.4799 0.35036-2.1035 1.0508-0.15589 0.17509-0.31285 0.43883-0.46875 0.78906-0.15589 0.35021-0.31089 0.612-0.4668 0.78711-0.15589 0.17509-0.23438 0.35027-0.23438 0.52539-0.15589 0.17509-0.23438 0.35027-0.23438 0.52539v0.78906h2.3379l1.1699-4.4668zm55.67 2.3164c-0.20461 0.03284-0.36549 0.31063-0.48242 0.83594 0 0.52532 0.15696 0.70049 0.46875 0.52539 0.77949-0.52532 0.85798-0.96229 0.23438-1.3125-0.07795-0.04378-0.1525-0.05978-0.22071-0.04883zm-27.141 0.83594c0 0.17509 0.15695 0.43883 0.46875 0.78906 0.3118 0.17509 0.54527 0.35027 0.70117 0.52539h0.70117v-1.3144h-1.8711zm-31.102 4.4648c-0.15589 0-0.31089 0.08858-0.4668 0.26367h-0.46875v2.1016h3.041v-1.0508c-0.15589-0.17509-0.31284-0.35027-0.46875-0.52539-0.15589-0.35021-0.31089-0.52539-0.4668-0.52539h-0.46875-0.4668c0-0.17509-0.078482-0.26367-0.23438-0.26367zm61.736 2.8906-0.23437 3.4141 0.4668-0.52539 0.46875-0.52539c0.15589-0.1751 0.31089-0.52545 0.46679-1.0508 0.1559-0.52532 0.23438-0.96229 0.23438-1.3125h-1.4024zm-95.645 36.51v3.6758h1.1699c0-0.35021-0.078482-0.78718-0.23438-1.3125v-1.3125l-0.93555-1.0508zm36.246 14.709v3.6758c0-0.1751 0.15695-0.35028 0.46875-0.52539 0.3118-0.35022 0.4668-0.70057 0.4668-1.0508v-0.78711c0.15589-0.52532 0.23438-0.96229 0.23438-1.3125h-1.1699zm32.973 0-0.23242 2.0996h1.168l0.23438-2.0996h-1.1699zm-43.963 1.3125c-0.62359 0-1.014 0.43697-1.1699 1.3125 0 0.70042 0.31196 1.0508 0.93555 1.0508 0.3118 0 0.46875-0.35036 0.46875-1.0508 0.15589-0.87553 0.077411-1.3125-0.23438-1.3125zm23.619 3.9394c-0.46769 0-0.70117 0.35036-0.70117 1.0508 0 0.70043 0.23348 1.0508 0.70117 1.0508 0.6236 0 0.93555-0.35035 0.93555-1.0508 0-0.70042-0.31195-1.0508-0.93555-1.0508zm1.6367 5.7793-0.23437 3.1523 1.4043 0.26172v-1.3125c-0.15589-0.17509-0.39132-0.61402-0.70312-1.3144-0.15589-0.52533-0.31089-0.78711-0.4668-0.78711zm8.8867 0.78711v1.8398h1.4024v-0.78906c-0.1559 0-0.38938-0.17518-0.70118-0.52539-0.15589-0.35022-0.38937-0.52539-0.70117-0.52539zm-18.709 0.52539-0.23438 2.3652 1.1699-2.3652h-0.93554zm-2.1035 2.1016c-0.4677 0-0.70312 0.35036-0.70312 1.0508 0 0.87553 0.23543 1.3125 0.70312 1.3125 0.3118 0.17509 0.4668-0.17526 0.4668-1.0508 0-0.70043-0.155-1.1374-0.4668-1.3125zm21.748 6.041v1.3145l0.70117-1.3145h-0.70117z" fill="#FF66C4" fill-rule="evenodd"/>
</svg>
