<?xml version="1.0" encoding="UTF-8"?>
<svg width="200" height="200" version="1.1" viewBox="0 0 52.917 52.917" xmlns="http://www.w3.org/2000/svg">
 <path transform="scale(.26458)" d="m99.908 0a99.908 99.908 0 0 0-45.305 10.863c0.2367 0.34007 0.42337 0.7938 0.55273 1.375 0.3118 0.70042 0.4668 1.1374 0.4668 1.3125 0.3118 0 1.0907 0.35036 2.3379 1.0508 1.2472 0.70043 2.1046 1.226 2.5723 1.5762h0.46875 0.93555c0.15592-0.1751 0.54634-0.4369 1.1699-0.78711 0.62359-0.52532 1.2455-0.96424 1.8691-1.3145 0.62359-0.52532 1.169-0.96229 1.6367-1.3125 0.6236-0.35021 0.93555-0.612 0.93555-0.78711 0.3118 0 0.7807-0.17518 1.4043-0.52539 0.62359-0.52532 1.0121-0.78906 1.168-0.78906h0.70312 0.4668c0.46769 0.35021 1.0916 0.87575 1.8711 1.5762 0.93539 0.52532 1.4808 0.96229 1.6367 1.3125 0.3118 0 0.54527 0.43892 0.70117 1.3145 0.3118 0.70042 0.62375 1.1374 0.93555 1.3125 0.15589 0.35021 0.46784 0.70057 0.93555 1.0508 0.62359 0.1751 1.0905 0.26367 1.4023 0.26367 0.3118 0 0.70222-0.43892 1.1699-1.3145v-2.627c0-0.35021 0.15695-0.87379 0.46875-1.5742 0.3118-0.70042 0.4668-1.1393 0.4668-1.3145l0.70117-0.26172 0.70117 0.26172 1.8711 2.1016c0.93539 1.0506 1.5593 1.5762 1.8711 1.5762l0.46875 0.26172 0.4668-0.26172c0.15589 0 0.54632-0.088567 1.1699-0.26367 0.62359-0.35021 1.0905-0.52539 1.4023-0.52539 0.3118-0.35021 0.9357-0.612 1.8711-0.78711 0.93539-0.35021 1.4808-0.612 1.6367-0.78711h1.1699 1.4023l-1.4023 1.5742c-0.4677 0.52532-0.85813 0.78906-1.1699 0.78906 1e-6 0.1751 0.078483 0.35028 0.23438 0.52539 0 0.17511 0.076528 0.35028 0.23242 0.52539 0.3118 0 0.85918 0.17518 1.6387 0.52539 0.77949 0.35021 1.2464 0.43682 1.4023 0.26172 0.3118 0 0.70222-0.17518 1.1699-0.52539 0.62359-0.52532 1.0905-0.96229 1.4023-1.3125h0.23438c0.15589 0 0.31089-0.088567 0.4668-0.26367l0.46875-0.52539c0.1559-0.35021 0.3109-1.049 0.4668-2.0996 0.3118-1.2257 0.54527-1.9265 0.70117-2.1016l0.23438-0.26367c0.15589 0 0.31089 0.088566 0.46679 0.26367h0.46875 0.23438c0.15589 0 0.31089 0.17518 0.46679 0.52539 0.1559 0.35021 0.31285 0.612 0.46876 0.78711 0.31179-0.70042 1.0907-1.6629 2.3379-2.8887 1.2472-1.2257 2.1046-2.015 2.5723-2.3652 0-0.17511 0.23348-0.26172 0.70117-0.26172h1.1699 0.93555c0.4677 0 0.70117 0.086613 0.70117 0.26172 0.3118 0 0.77875 0.6141 1.4024 1.8398 0.62359 1.2257 1.014 1.9265 1.1699 2.1016 0.3118 0.35021 0.85723 1.0509 1.6367 2.1016l1.8711 2.0996c0.3118-0.35021 0.62375-0.78718 0.93555-1.3125 0.3118-0.70042 0.4668-1.226 0.4668-1.5762 0-0.1751-0.155-0.4369-0.4668-0.78711-0.3118-0.35021-0.62375-0.52539-0.93555-0.52539 0-0.17511 0.155-0.35028 0.4668-0.52539 0.46769-0.35021 0.77965-0.70057 0.93555-1.0508h0.46875 0.70117c0.15589 0.35021 0.70132 0.70057 1.6367 1.0508 1.0913 0.17511 1.7917 0.35028 2.1035 0.52539h0.93555 1.4043c0.15589 0 0.31089-0.17518 0.46679-0.52539 0.3118-0.35021 0.54527-0.70057 0.70117-1.0508h0.46875 0.4668l5.1445 6.3027 8.4297-4.4824a99.908 99.908 0 0 0-42.717-9.5938zm-30.721 6.459c0.3118 0 0.4668 0.17518 0.4668 0.52539 0 0.35021-0.155 0.61396-0.4668 0.78906-0.62359 0.35021-0.93555 0.26165-0.93555-0.26367 0-0.70043 0.31195-1.0508 0.93555-1.0508zm73.941 3.375 0.59179 5.9805c1.1903-1.0891 2.7334-2.1785 4.6621-3.2676a99.908 99.908 0 0 0-1.7012-0.92188l-1.9629-0.96289c-0.04345 0-0.0335-0.01772 0.00781-0.044921a99.908 99.908 0 0 0-1.5976-0.7832zm-90.648 2.1426a99.908 99.908 0 0 0-52.48 87.932 99.908 99.908 0 0 0 99.908 99.908 99.908 99.908 0 0 0 99.908-99.908 99.908 99.908 0 0 0-34.555-75.566c-0.08425 0.67298-0.44941 1.0293-1.1328 1.0293-0.6236 0-0.93555-0.43697-0.93555-1.3125 0-0.56427 0.09356-0.97316 0.27344-1.2344a99.908 99.908 0 0 0-1.7148-1.3809c-0.5857 0.6271-1.0104 1.0391-1.1309 1.0391v2.627 3.1504c0.1559 0.1751 0.3109 0.43885 0.4668 0.78906 0.3118 0.35021 0.54723 0.52539 0.70313 0.52539-0.1559 0.35021-0.54632 0.87575-1.1699 1.5762-0.62359 0.52532-1.0905 0.96229-1.4023 1.3125h-0.70313-0.23242c-0.15591-0.35021-0.6248-0.87575-1.4043-1.5762l-1.168-1.3125c-0.1559 0-0.54632 0.17518-1.1699 0.52539-0.6236 0.17511-0.93555 0.35028-0.93555 0.52539-0.3118 0.35021-0.77875 1.1375-1.4024 2.3633-0.62359 1.0506-1.014 1.7514-1.1699 2.1016h-0.70117-0.70117c-0.15589 0-0.39132-0.26374-0.70313-0.78906-0.15589-0.52532-0.31089-0.78711-0.46679-0.78711-0.3118-0.17511-1.1692-0.17511-2.5723 0-1.2472 0.1751-1.9496 0.1751-2.1055 0-0.15589 0-0.54437-0.086613-1.168-0.26172-0.62359-0.17511-1.0925-0.43885-1.4043-0.78906l-0.70117-0.78711c-0.3118-0.35021-0.4668-0.70057-0.4668-1.0508 0.4677-0.17511 1.2466-0.70064 2.3379-1.5762 1.2472-1.0506 2.0261-1.8399 2.3379-2.3652 0.3118 0 0.54527-0.17322 0.70117-0.52344l0.70313-0.78906c0.3118-0.17511 0.54527-0.61208 0.70117-1.3125 0.31179-0.87553 0.4668-1.4011 0.4668-1.5762-0.4677-0.87553-0.93465-1.6648-1.4024-2.3652l-0.93555-2.0996c-0.31179-0.70042-0.39027-1.3145-0.23437-1.8398-0.38185 0.18382-0.64305 0.29457-0.91992 0.41406l0.91992 9.3047-5.8457 3.6777c0.15589 0.1751-0.15606 0.78725-0.93555 1.8379-0.62359 1.0506-1.0906 1.7514-1.4023 2.1016 0 0.1751-0.07849 0.26172-0.23438 0.26172h-0.4668-0.46875c-0.15589 0-0.23437-0.086614-0.23437-0.26172-0.15589-0.17511-0.54437-0.35028-1.168-0.52539-0.62359-0.35021-1.0925-0.52539-1.4043-0.52539l-0.93554 1.0508v1.3125c0.15589 0.70042 0.15589 1.1393 0 1.3145 0 0.35021-0.155 0.70057-0.4668 1.0508-0.3118 0.35021-0.54527 0.52539-0.70117 0.52539-0.15589 0-0.54632 0.086613-1.1699 0.26172h-1.4024-1.4043c-0.62361-0.17511-1.0121-0.26172-1.168-0.26172l-1.1699-1.3145c-0.46769-0.70042-0.77964-1.1374-0.93554-1.3125-0.77949-0.52532-1.7919-1.0509-3.0391-1.5762-1.0913-0.70042-1.7152-1.0508-1.8711-1.0508-0.31179 0-0.9357 0.61215-1.8711 1.8379-0.77949 1.0506-1.3249 1.6647-1.6367 1.8398h-0.70117-0.46875c-0.3118 0.17511-1.0907 0.4369-2.3379 0.78711-1.0913 0.17511-2.3391 0.43885-3.7422 0.78906-1.4031 0.35021-2.7274 0.70057-3.9746 1.0508-1.0913 0.17509-1.7937 0.26172-2.1055 0.26172h-3.5078c-0.15589 0-0.54437 0.26374-1.168 0.78906-0.6236 0.35021-1.014 0.52539-1.1699 0.52539-0.3118 0.17509-0.9357 0.34832-1.8711 0.52344-0.77949 0-1.6369 0.088578-2.5723 0.26367-0.93539 0.17509-1.8713 0.35027-2.8066 0.52539h-1.4023c-0.15589 0-0.54632 0.086626-1.1699 0.26172-0.4677 0.17509-1.0916 0.35027-1.8711 0.52539-0.6236 0.17509-1.2455 0.35027-1.8691 0.52539-0.62359 0.17509-1.014 0.26367-1.1699 0.26367-0.3118 0-0.77875-0.088579-1.4023-0.26367-0.6236-0.35021-1.326-0.612-2.1055-0.78711-0.77949-0.35021-1.5584-0.70057-2.3379-1.0508-0.62359-0.35021-1.014-0.61396-1.1699-0.78906v-5.252c0-0.35021-0.155-0.61396-0.4668-0.78906-0.3118-0.35021-0.54723-0.612-0.70312-0.78711-0.15589-0.17511-0.38937-0.17511-0.70117 0-0.15589 0.1751-0.38937 0.26172-0.70117 0.26172v8.4062h-2.3379c-1.2472-0.17509-2.028-0.35027-2.3398-0.52539-0.15589-0.17509-0.38937-0.35027-0.70117-0.52539-0.3118-0.17509-0.4668-0.43688-0.4668-0.78711l-1.1699 2.8887h-15.9c-0.4677 0.17509-0.85813 0.35027-1.1699 0.52539-0.15589 0.17509-0.38937 0.26172-0.70117 0.26172-0.15589 0-0.31285 0.088579-0.46875 0.26367v1.3125 1.5762c0.15589 0.17509 0.38937 0.43688 0.70117 0.78711 0.3118 0.17509 0.46875 0.35027 0.46875 0.52539 0.4677 0.17509 1.0916 0.35027 1.8711 0.52539 0.93539 0.17509 1.4808 0.26367 1.6367 0.26367v5.7773c0 0.17509 0.078482 0.26367 0.23438 0.26367h0.4668 0.70117c0.3118-0.17509 0.70223-0.35027 1.1699-0.52539 0.6236-0.35021 1.014-0.612 1.1699-0.78711h0.93359 0.23438c0.3118 0.17509 0.62375 0.43689 0.93555 0.78711 0.3118 0.17509 0.46875 0.35027 0.46875 0.52539v6.8281c0.15589 0 0.54437 0.17518 1.168 0.52539 0.62359 0.17509 1.014 0.43884 1.1699 0.78906v0.26172 0.78906c-0.15589 0.52532-0.46785 1.5764-0.93555 3.1523-0.3118 1.4008-0.46875 2.2748-0.46875 2.625 0 0.17509 0.15695 0.52545 0.46875 1.0508 0.46769 0.52532 0.77965 0.96424 0.93555 1.3145 0.15589 0.35021 0.31089 0.70057 0.4668 1.0508 0.3118 0.17509 0.54527 0.35027 0.70117 0.52539v0.52539 0.78711c-0.15589 0.17509-0.62285 0.61206-1.4023 1.3125-0.77949 0.70042-1.1699 1.226-1.1699 1.5762v5.2539c0 0.17509-0.38848 0.78724-1.168 1.8379-0.62359 1.0506-1.014 1.7514-1.1699 2.1016v1.5762 1.0508l2.3379-1.0508c0 0.35021 0.15695 1.0509 0.46875 2.1016 0.3118 0.87553 0.62375 1.4877 0.93555 1.8379h0.93555 1.6367c0.3118 0 1.0907-0.086626 2.3379-0.26172 1.2472-0.35021 2.0261-0.61396 2.3379-0.78906 0-0.35021 0.078482-0.612 0.23438-0.78711 0.3118-0.35021 0.54527-0.70057 0.70117-1.0508 0.3118-0.17509 0.62375-0.61206 0.93555-1.3125 0.3118-0.70042 0.54527-1.1393 0.70117-1.3145 0 0.17509 0.078482 0.52545 0.23438 1.0508 0.3118 0.35021 0.54527 0.52539 0.70117 0.52539h3.7422l0.46875 0.52539 0.4668 0.52539c0.3118 0 0.54527 0.086626 0.70117 0.26172h0.93555 0.46875c0.15589 0 0.23242-0.086626 0.23242-0.26172 0.3118 0 0.7807-0.35035 1.4043-1.0508 0.62359-0.87553 1.0905-1.4011 1.4023-1.5762l0.46875-0.26172c0.15589 0 0.31089 0.086626 0.4668 0.26172 0.3118 0.17509 0.9357 0.70063 1.8711 1.5762 0.93539 0.70043 1.4808 1.0508 1.6367 1.0508 0.15589 0.17509 0.54632 0.26172 1.1699 0.26172 0.77949-0.17509 1.2464-0.26172 1.4023-0.26172 0.15589 0.35021 0.38937 0.87575 0.70117 1.5762 0.3118 0.52532 0.46875 0.96229 0.46875 1.3125h9.8203c0.15589 0 0.38937-0.35036 0.70117-1.0508 0.3118-0.87553 0.46875-1.4877 0.46875-1.8379v-5.2539c0 0.17509 0.155 0.43884 0.4668 0.78906 0.3118 0.35021 0.54722 0.52539 0.70312 0.52539 0.3118 0.35021 0.93376 0.87575 1.8691 1.5762 0.9354 0.70042 1.4828 1.1374 1.6387 1.3125 0.15589 0.17509 0.38937 0.43688 0.70117 0.78711 0.3118 0.17509 0.54527 0.26367 0.70117 0.26367 0 0.35021 0.155 1.1375 0.4668 2.3633 0.31179 1.0506 0.54722 1.6647 0.70312 1.8398 0 0.17509 0.31 0.43688 0.93359 0.78711 0.6236 0.17509 1.0925 0.43884 1.4043 0.78906v0.52539 0.78711c-0.15589 0-0.38937 0.17518-0.70117 0.52539-0.15589 0.17509-0.31285 0.35027-0.46875 0.52539-0.15589 0.17509-0.38937 0.70063-0.70117 1.5762-0.1559 0.87553-0.31089 1.3125-0.4668 1.3125-0.3118 0.17509-0.70223 0.08846-1.1699-0.26172-0.3118-0.35022-0.54528-0.52539-0.70117-0.52539 0 0.17509-0.15696 0.78724-0.46875 1.8379-0.3118 0.87553-0.38833 1.4877-0.23242 1.8379 0.15589 0.17509 0.54437 0.61401 1.168 1.3144 0.6236 0.52532 1.0925 0.87568 1.4043 1.0508-0.3118 0.1751-0.7807 0.52545-1.4043 1.0508-0.46769 0.35022-0.85617 0.52539-1.168 0.5254-0.1559 0.17509-0.70328 0.26171-1.6387 0.26171-0.93539-0.17509-1.5573-0.26172-1.8691-0.26171-0.15589 0-0.54632 0.26179-1.1699 0.7871-0.6236 0.35022-1.014 0.52539-1.1699 0.5254h-4.9102c-0.3118 0-1.0907 0.17517-2.3379 0.52539-1.2472 0.35021-2.1046 0.61395-2.5723 0.78906-0.3118 0.17509-1.0927 0.52349-2.3398 1.0488-1.0913 0.52532-2.3372 1.1394-3.7402 1.8398l-3.7422 1.5762c-1.0913 0.52532-1.7152 0.87567-1.8711 1.0508-0.3118 0.1751-1.1692 0.43689-2.5723 0.78711-1.4031 0.1751-2.2605 0.35028-2.5723 0.52539-0.77949 0.1751-2.1038 0.61207-3.9746 1.3125-1.7149 0.70043-2.7292 1.1394-3.041 1.3145-0.62359 0.35021-1.0905 0.87574-1.4023 1.5762-0.15589 0-0.31285 0.52553-0.46875 1.5762-0.15589 1.0506-0.31089 1.7514-0.4668 2.1016 0 0.35021-0.23348 1.3127-0.70117 2.8887-0.3118 1.4009-0.54723 2.2768-0.70312 2.627-0.15589 0.17509-0.38937 0.43688-0.70117 0.78711-0.3118 0.35021-0.4668 0.61395-0.4668 0.78906-0.15589 0.35021-0.23438 0.78718-0.23438 1.3125v1.8379 1.8398c0.15589 0.70043 0.23438 1.226 0.23438 1.5762 0.3118 0 0.70028 0.17517 1.168 0.52539l1.4043 0.78711 3.5078 3.9394 0.93555 0.26367h0.70117c0.15589 0 0.31089-0.08858 0.4668-0.26367 0.15589 0 0.39132-0.17518 0.70312-0.52539 0.46769-0.35022 0.7777-0.52539 0.93359-0.52539h0.46875 0.4668c0.15589 0 0.6248 0.26374 1.4043 0.78906 0.93539 0.52532 1.8712 1.1375 2.8066 1.8379 0.93539 0.52532 1.7928 1.0509 2.5723 1.5762l1.8691 1.0508c0.15589 0.1751 0.54632 0.43688 1.1699 0.78711 0.6236 0.1751 0.93555 0.43884 0.93555 0.78907 0.3118 0.17509 0.62375 0.8758 0.93555 2.1016 0.3118 1.0506 0.4668 1.7494 0.4668 2.0996 0.15589-0.35021 0.46785-0.8738 0.93555-1.5742 0.62359-0.87553 1.014-1.3144 1.1699-1.3144 0.62359-0.1751 1.481-0.08652 2.5723 0.26367 1.0913 0.17509 1.7937 0.26172 2.1055 0.26172l0.4668-1.8379-1.4023-1.5762c-0.3118-0.17509-0.93571-0.61401-1.8711-1.3144-0.93539-0.70042-1.5593-1.0488-1.8711-1.0488 0.15589-0.35021 0.54632-0.70057 1.1699-1.0508 0.62359-0.52532 1.0905-0.78906 1.4023-0.78906 0.15589 0 0.54632 0.26374 1.1699 0.78906 0.6236 0.52532 1.0905 0.87567 1.4023 1.0508h0.4668 0.70312c0.3118-0.17509 0.77875-0.43883 1.4023-0.78906 0.77949-0.35021 1.3249-0.70057 1.6367-1.0508v4.9902c0.15589 0.1751 0.38937 0.35028 0.70117 0.52539 0.4677 0.35022 0.85813 0.4388 1.1699 0.26368 0.15589-0.1751 0.46785-0.70063 0.93555-1.5762 0.62359-0.87553 1.0905-1.3144 1.4023-1.3144h1.1699 1.1699c0.3118 0 0.54527 0.17518 0.70117 0.52539s0.3109 0.61396 0.4668 0.78906c-0.15589 0.1751-0.38937 0.43688-0.70117 0.78711-0.15589 0.1751-0.31089 0.43884-0.4668 0.78907-0.15589 0.17509-0.39132 0.61206-0.70312 1.3125-0.3118 0.52531-0.4668 0.87567-0.4668 1.0508v1.8379 1.0508l1.1699 1.3144h0.70117 0.4668l0.70117-0.78906c0.1559-0.17509 0.39132-0.35027 0.70313-0.52539 0.15589-0.35021 0.31089-1.2242 0.46679-2.625 0.1559-1.576 0.31285-2.4518 0.46876-2.627 0.15589-0.35022 0.62284-0.61396 1.4023-0.78907 0.77949-0.35021 1.1699-0.612 1.1699-0.78711 0.15589-0.35021 0.38937-1.1375 0.70117-2.3633s0.4668-2.015 0.4668-2.3652h10.758l2.5723-3.4141h9.8203c0 0.35021 0.07848 1.0509 0.23438 2.1016 0.15589 0.87553 0.38936 1.4877 0.70117 1.8379 0.15589 0.35021 0.70132 0.87575 1.6367 1.5762 0.93539 0.52532 1.5593 0.96229 1.8711 1.3125h2.5723c0.1559 0 0.31285 0.17518 0.46876 0.52539l0.70117 0.78906c0.15589 0.1751 0.15589 0.70063 0 1.5762-0.1559 0.87553-0.1559 1.3125 0 1.3125 0.15589 0 0.70132 0.17518 1.6367 0.52539 1.0913 0.17509 1.7152 0.35027 1.8711 0.52539 0.15589 0.35021 0.38937 1.3127 0.70117 2.8887 0.3118 1.4008 0.54528 2.2767 0.70117 2.627 0.1559 0.35022 0.46785 0.87575 0.93555 1.5762 0.62359 0.52532 1.0925 0.96229 1.4043 1.3125l1.168-1.3125c-0.31176-0.35015-0.77875-1.0509-1.4024-2.1016-0.46769-1.0506-0.85812-1.7514-1.1699-2.1016v-0.52539-0.52539c0.3118-1.0506 0.54527-2.4501 0.70117-4.2012 0.3118-1.7511 0.54723-2.7155 0.70313-2.8906l1.168-1.3125c0.46769-0.70042 0.85812-1.226 1.1699-1.5762 0.15589-0.17509 0.46784-0.26172 0.93554-0.26172 0.4677-0.17509 0.85813-0.26367 1.1699-0.26367 0 0.17509 0.07653 0.70062 0.23242 1.5762 0.15589 0.87553 0.23437 1.4896 0.23437 1.8398 0 0.1751 0.07849 0.43689 0.23438 0.78711 0.31179 0.1751 0.54527 0.35027 0.70117 0.52539h0.70117 0.93555c0.3118-0.70042 0.85723-1.7515 1.6367-3.1523s1.4819-2.5385 2.1055-3.4141c0.77949-0.87553 1.3249-1.0507 1.6367-0.52539 0.31179 0.35021 0.07831 1.9268-0.70118 4.7285v8.1426c1.0913-1.2257 1.8702-1.7513 2.3379-1.5762 0.6236 0.17509 0.93555 0.78724 0.93555 1.8379 0 0.87553-0.31195 2.1018-0.93555 3.6777-0.62359 1.4008-1.4025 2.7137-2.3379 3.9395-0.15589 0.52532-0.39132 1.4878-0.70312 2.8887-0.15589 1.2257-0.38937 2.015-0.70117 2.3652-0.1559 0.35022-0.54437 0.87379-1.168 1.5742-0.4677 0.70043-1.0916 1.4011-1.8711 2.1016l-1.8711 2.1016-0.93555 1.0508v1.3144h2.5723l-2.5723 5.5156h-9.8223c0-0.35022-0.38848-0.96432-1.168-1.8398-0.62359-0.70044-1.014-1.0508-1.1699-1.0508h-4.6777c-0.3118 0-0.77875-0.43697-1.4023-1.3125-0.6236-0.87553-1.014-1.3125-1.1699-1.3125h-1.168v6.041c-0.3118 0-1.0927-0.08858-2.3398-0.26368-1.2472-0.17509-2.1811-0.26171-2.8047-0.26171-0.3118 0-1.4046-0.43892-3.2754-1.3145-1.7149-0.70042-2.9608-1.226-3.7402-1.5762-0.15589 0-0.38937-0.17518-0.70117-0.52539-0.15589-0.35021-0.23437-0.612-0.23437-0.78711-0.1559 0-0.23438-0.43697-0.23438-1.3125 0.15589-0.70043 0.23437-1.1394 0.23438-1.3144 0-0.52532-0.54544-0.96229-1.6367-1.3125-0.3118 0-0.70223-0.17518-1.1699-0.52539-0.46769-0.52532-0.77964-0.78906-0.93554-0.78906h-0.70117-0.70118c0 0.52531-0.15695 1.4898-0.46875 2.8906-0.31179 1.2258-0.54527 2.0131-0.70117 2.3633-0.15589 0.17509-0.31089 0.43689-0.4668 0.78711-0.15589 0.35021-0.31284 0.52539-0.46874 0.52539l-2.8066 1.5762c-1.0913 0.70043-1.7917 1.1394-2.1035 1.3145-0.15589-0.1751-0.38937-0.61402-0.70117-1.3145l-0.70117-1.5762c-0.1559-0.17509-0.31285-0.43688-0.46876-0.78711-0.15589-0.17509-0.31089-0.35027-0.46679-0.52539h-0.93555-0.46875l-2.3379 1.3125v-3.4141c-0.3118 0-0.77875 0.08858-1.4023 0.26367-0.46769 0.35022-0.85813 0.52539-1.1699 0.52539-0.15589 0-0.31284-0.35035-0.46875-1.0508-0.15589-0.87553-0.31089-1.4011-0.4668-1.5762h-0.70117-0.70117c-0.15589 0-0.6248 0.17518-1.4043 0.52539-0.6236 0.35021-1.0121 0.612-1.168 0.78711h-0.93555-1.1699c-0.15589 0-0.38937 0.17518-0.70117 0.52539l-0.70117 0.78906c-0.15589 0.52532-0.31284 0.96229-0.46875 1.3125l-0.23438 0.26172c0 0.17509-0.076529 0.35027-0.23242 0.52539-0.15589 0.17509-0.23438 0.35027-0.23438 0.52539h-2.3379c-1.2472 0.17509-2.028 0.26367-2.3398 0.26367-0.77949 0-1.7919-0.08858-3.0391-0.26367h-2.1055c-0.3118-0.17509-1.1692-0.78724-2.5723-1.8379-1.2472-0.87553-2.0261-1.5762-2.3379-2.1016v3.9394l-6.7812-1.3125v-3.9394l-0.46875-0.52539-0.70117-0.78906h-0.70117-0.70117c-0.3118 0-0.9357 0.26374-1.8711 0.78906-0.93539 0.35021-1.4808 0.52539-1.6367 0.52539-0.15589 0-0.46785 0.43697-0.93555 1.3125-0.3118 0.70043-0.46875 1.1394-0.46875 1.3144-0.15589 0.35021-0.31089 0.612-0.4668 0.78711l-0.4668 0.52539h-0.70312-0.70117c-0.4677-0.17509-0.85617-0.35027-1.168-0.52539-0.15589 0-0.39132-0.17518-0.70312-0.52539-0.15589-0.17509-0.31089-0.26172-0.4668-0.26172h-0.46875-0.70117c-0.15589 0-0.7798 0.43697-1.8711 1.3125-0.93539 0.87553-1.5573 1.3125-1.8691 1.3125h-1.1699-1.1699c-0.3118-0.17509-1.3242-0.61206-3.0391-1.3125-1.559-0.52532-2.5733-0.96229-3.041-1.3125v-1.8398-2.1016l0.23438-0.26172 0.4668-0.52539c0.15589-0.1751 0.39132-0.35027 0.70312-0.52539v-1.5762-1.3125c-0.3118-0.17509-0.62375-0.35027-0.93555-0.52539-0.15589-0.35021-0.31285-0.61395-0.46875-0.78906-0.15589-0.17509-0.54437-0.26172-1.168-0.26172-0.62359-0.17509-1.0925-0.26367-1.4043-0.26367v-2.3633c0-1.2258 0.15695-2.0131 0.46875-2.3633 0-0.35021 0.076529-0.96431 0.23242-1.8398 0.15589-1.0506 0.23438-2.1017 0.23438-3.1523 0.15589-1.0506 0.23438-2.0131 0.23438-2.8887 0.15589-0.87553 0.23438-1.4011 0.23438-1.5762v-1.8379-3.6777-3.4141-2.1016c0-0.35022 0.155-1.4013 0.4668-3.1524 0.4677-1.9262 0.70117-3.1505 0.70117-3.6758v-3.6777c0.15589-2.1013 0.23438-3.8531 0.23438-5.2539v-1.3125c0-0.87553-0.078482-1.7514-0.23438-2.627v-2.627-1.8379c-0.3118-0.17509-0.70028-0.61401-1.168-1.3144-0.4677-0.70042-0.77965-1.1374-0.93555-1.3125-0.15589-0.17509-0.23438-0.35027-0.23437-0.52539-0.15589-0.17509-0.23438-0.43688-0.23438-0.78711 0-0.52532 0.078485-0.87567 0.23438-1.0508 0-0.17509 0.078482-0.35027 0.23437-0.52539 0.15589-0.17509 0.31089-0.78919 0.4668-1.8398 0.3118-1.2257 0.46875-2.0131 0.46875-2.3633v-0.78906-0.26172c0-0.35021-0.39043-0.612-1.1699-0.78711-0.62359-0.35021-1.0905-0.52539-1.4023-0.52539l-2.3398 5.252h-0.23242-0.93555c0-0.1751-0.15695-0.35027-0.46875-0.5254-0.3118-0.35021-0.4668-0.612-0.4668-0.7871-0.1559-1e-5 -0.6248-0.17518-1.4043-0.5254-0.77949-0.52535-1.168-0.87567-1.168-1.0508v-1.8379-2.1016c0-0.17509 0.31195-0.78919 0.93555-1.8398 0.77949-1.2257 1.3249-2.0131 1.6367-2.3633 0-0.17509 0.31195-0.52545 0.93555-1.0508 0.77949-0.70043 1.168-1.1374 1.168-1.3125l0.70117-1.5762c0.4677-0.70042 0.77965-1.1393 0.93555-1.3145 0-0.17509 0.078477-0.35027 0.23438-0.52539 0.3118-0.17509 0.46875-0.35027 0.46875-0.52539v-11.031c0.15589-0.52532 0.62284-1.9267 1.4023-4.2031 0.77949-2.2764 1.1699-3.6759 1.1699-4.2012v-0.52539-0.52539c0-0.35021-0.39043-1.2261-1.1699-2.627-0.62359-1.576-1.0905-2.5385-1.4023-2.8887 0-0.35021-0.15695-0.96431-0.46875-1.8398-0.1559-1.0506-0.23438-1.7513-0.23438-2.1016 0-0.35021-0.076524-1.049-0.23242-2.0996-0.1559-1.2257-0.39133-2.452-0.70312-3.6777-0.1559-1.4008-0.3109-2.7137-0.4668-3.9395-0.1559-1.2257-0.23438-2.1016-0.23438-2.627v-2.3633-1.5762c0.1559-0.17509 0.46785-0.52545 0.93555-1.0508 0.62359-0.52532 1.169-1.0509 1.6367-1.5762l1.6367-1.8398c0.4677-0.52532 0.70312-0.87372 0.70312-1.0488 0.15589-0.17509 0.23242-0.61402 0.23242-1.3145 0-0.46782-0.037879-0.80754-0.10742-1.041-0.047102-0.091668-0.099218-0.1846-0.125-0.27148 0.051772 0.058152 0.090422 0.15539 0.125 0.27148 0.23771 0.46261 0.73102 0.98182 1.5117 1.5664 1.0913 0.52532 1.7917 0.78906 2.1035 0.78906 0.15589 0 0.54632-0.26374 1.1699-0.78906 0.62359-0.70042 1.0905-1.3126 1.4023-1.8379 0.15589-0.35021 0.31285-0.78913 0.46875-1.3145 0.3118-0.52532 0.4668-0.96229 0.4668-1.3125 0 0.35021 0.078482 0.87575 0.23438 1.5762 0.3118 0.52532 0.62375 0.87568 0.93555 1.0508 0.4677 0.1751 1.0131 0.086539 1.6367-0.26367 0.62359-0.52532 1.0905-0.78711 1.4023-0.78711 0-0.35021 0.078482-1.2261 0.23438-2.627 0.3118-1.576 0.39028-2.7136 0.23438-3.4141 0-0.17511-0.31195-0.96438-0.93555-2.3652-0.62358-1.576-1.0905-2.5385-1.4023-2.8887v-0.52539-0.52539c0.15589-0.35021 0.38937-1.0509 0.70117-2.1016 0.3118-1.0506 0.54527-1.7514 0.70117-2.1016 0.15589-0.17511 0.31089-1.049 0.4668-2.625 0.3118-1.7511 0.46875-2.8021 0.46875-3.1523l1.4023-0.78906c0.12124-0.40856 0.24398-0.95382 0.36524-1.5742zm55.057 0c-0.15589 0.17511-0.38937 0.4369-0.70117 0.78711-0.3118 0.1751-0.4668 0.4369-0.4668 0.78711v0.52539 0.26367c0 0.35021 0.155 0.70057 0.4668 1.0508l0.70117 0.78711c0.4677-0.52532 0.85813-1.1375 1.1699-1.8379v-1.0508-0.78906c0.15589-0.17511 0.23438-0.34833 0.23438-0.52344h-1.4043zm14.266 1.5742c-0.46769 0-0.70117 0.43892-0.70117 1.3145 0 0.87553 0.23348 1.3125 0.70117 1.3125 0.77949 0 1.168-0.43697 1.168-1.3125 0-0.87553-0.38848-1.3145-1.168-1.3145zm-7.7168 0.26367c-0.4677 0-0.62465 0.17518-0.46875 0.52539 0 0.52532 0.15695 0.78711 0.46875 0.78711 0.31179 0 0.54527-0.26179 0.70117-0.78711 0.15589-0.35021-0.07759-0.52539-0.70117-0.52539zm-41.393 2.3633c-0.77949 0-1.168 0.43892-1.168 1.3145 0 0.70042 0.38848 1.0508 1.168 1.0508 0.6236 0 0.93555-0.35036 0.93555-1.0508 0-0.87553-0.31195-1.3145-0.93555-1.3145zm79.275 0c-0.15589 0.35021-0.54633 1.2261-1.1699 2.627-0.4677 1.4008-0.85617 2.3634-1.168 2.8887v0.52539 0.26367c0 0.1751 0.155 0.52546 0.4668 1.0508 0.46769 0.35021 0.77965 0.612 0.93554 0.78711 0.1559-0.35021 0.54633-1.2261 1.1699-2.627l1.4024-3.1504v-0.52539-0.52539c-0.1559-0.17511-0.46785-0.35028-0.93555-0.52539l-0.70117-0.78906zm-9.5879 2.3652c-0.3118 0-0.4668 0.3484-0.4668 1.0488 0 0.52532 0.155 0.7005 0.4668 0.52539 0.46769-0.17511 0.70117-0.4369 0.70117-0.78711s-0.23348-0.612-0.70117-0.78711zm-79.508 1.5742 1.4023 1.5762v-1.5762h-1.4023zm-21.514 2.3652c0.3118 0.35021 1.0907 1.0509 2.3379 2.1016 1.2472 1.0506 2.0261 1.7494 2.3379 2.0996 0.15589 0.35021 0.38937 1.0509 0.70117 2.1016 0.3118 0.87553 0.46875 1.4896 0.46875 1.8398v2.1016h-0.46875-0.4668c-0.15589 0-0.23438-0.088566-0.23438-0.26367 0-0.17511-0.155-0.4369-0.4668-0.78711-0.15589-0.35021-0.31284-0.70057-0.46875-1.0508-0.15589 0-0.46785-0.35036-0.93555-1.0508-0.3118-0.70042-0.54527-1.1393-0.70117-1.3145 0-0.17511-0.38848-0.61208-1.168-1.3125-0.62359-0.87553-0.93555-1.4011-0.93555-1.5762-0.15589 0-0.23438-0.086613-0.23438-0.26172-0.15589-0.17511-0.23438-0.43885-0.23438-0.78906 0-0.35021 0.078482-0.70057 0.23438-1.0508 0.15589-0.35021 0.23438-0.612 0.23438-0.78711zm21.514 4.2012v5.7793c0.15589-0.17511 0.38937-0.4369 0.70117-0.78711 0.3118-0.35021 0.54527-0.70057 0.70117-1.0508v-1.0508-1.3145c-0.1559-0.17511-0.38938-0.35028-0.70117-0.52539-0.3118-0.35021-0.54527-0.70057-0.70117-1.0508zm-26.658 2.8906c0.3118 0.35021 0.54527 1.2261 0.70117 2.627 0.3118 1.4008 0.62375 2.3634 0.93555 2.8887l0.23242 1.5762c-0.62359 0-1.2455-0.17518-1.8691-0.52539-0.31179-0.17511-0.7807-0.61403-1.4043-1.3145s-0.93555-1.1374-0.93555-1.3125c0-0.35021 0.31195-1.0509 0.93555-2.1016 0.62359-1.0506 1.0925-1.6628 1.4043-1.8379zm76 0c-0.15589 0.1751-0.31284 0.26172-0.46875 0.26172l-0.23242 0.26367-0.46875 0.52539-0.23437 1.0508v0.52539c0 0.1751 0.07848 0.26172 0.23437 0.26172 0 0.1751 0.15696 0.35028 0.46875 0.52539 0.3118 0.17511 0.54528 0.35028 0.70117 0.52539 0.3118-0.17511 0.62375-0.52546 0.93555-1.0508 0.3118-0.70043 0.4668-1.3126 0.4668-1.8379 0-0.70042-0.46696-1.0508-1.4024-1.0508zm3.5078 6.5664c0.77949 0 1.168 0.52553 1.168 1.5762 0 0.87553-0.38847 1.3125-1.168 1.3125-0.4677 0-0.70118-0.43697-0.70118-1.3125 0-1.0506 0.23348-1.5762 0.70118-1.5762zm-62.438 39.398c-0.62359 0-0.93555 0.52553-0.93555 1.5762 0 0.87553 0.31196 1.3125 0.93555 1.3125 0.6236 0 0.93555-0.43697 0.93555-1.3125 0-1.0506-0.31195-1.5762-0.93555-1.5762zm61.502 8.1426 0.93555 1.3125h-0.93555v-1.3125zm3.3027 2.5781c0.05847-0.010945 0.12713 0.005051 0.20508 0.048828 0.3118 0.17509 0.4668 0.43688 0.4668 0.78711 0 0.17509-0.155 0.35027-0.4668 0.52539-0.31179 0.17509-0.46875-8.7e-5 -0.46875-0.52539 0-0.52532 0.08829-0.8031 0.26367-0.83594zm-9.3828 0.048828c0.62359 0.35021 1.481 1.0509 2.5723 2.1016 1.2472 0.87553 2.0261 1.4877 2.3379 1.8379 0.15589 0.35021 0.38937 1.4879 0.70117 3.4141 0.3118 1.7511 0.46875 2.8021 0.46875 3.1523-0.15589 0-0.7798-0.086626-1.8711-0.26172-0.93539-0.17509-1.5593-0.35027-1.8711-0.52539-0.15589-0.35021-0.38937-0.87575-0.70117-1.5762-0.15589-0.70042-0.23437-1.1393-0.23437-1.3145-0.3118-0.17509-0.54528-0.35027-0.70118-0.52539-0.46769-0.17509-0.70117-0.35027-0.70117-0.52539 0-0.35021-0.07848-0.78718-0.23437-1.3125v-1.5762-1.3125c0.15589-0.70042 0.23437-1.226 0.23437-1.5762zm15.9 0c0.3118 0 0.46875 0.52553 0.46875 1.5762 0 0.87553-0.15695 1.3125-0.46875 1.3125-0.77949 0-1.168-0.43697-1.168-1.3125 0-1.0506 0.38848-1.5762 1.168-1.5762zm-6.4219 6.7969c0.0341 0 0.0704 0.009362 0.10937 0.03125 0.3118 0.35021 0.4668 0.87575 0.4668 1.5762 0 0.52532-0.155 0.96424-0.4668 1.3145-0.31179 0.17509-0.46875-0.26383-0.46875-1.3145 0-1.0725 0.12066-1.6074 0.35938-1.6074zm-26.549 7.1231v2.3652h1.4023v-2.3652h-1.4023zm17.07 2.3652c0.77949 0 1.1699 0.52553 1.1699 1.5762 0 0.87553-0.39043 1.3125-1.1699 1.3125-0.62359 0-0.93555-0.43697-0.93555-1.3125 0-1.0506 0.31196-1.5762 0.93555-1.5762zm61.268 33.619h6.3144v0.78906c0 0.35021-0.07848 0.70057-0.23437 1.0508l-0.4668 1.0508c-0.15589 0.17509-0.23437 0.43688-0.23437 0.7871 0 0.1751-0.07849 0.35028-0.23438 0.5254v1.3125 2.1016 2.1016 1.3144c-0.15589 0.35021-0.54437 0.8738-1.168 1.5742-0.62359 0.70043-1.0925 1.1394-1.4043 1.3145 0-0.52532-0.155-1.3126-0.4668-2.3633-0.15589-1.2257-0.39133-2.452-0.70313-3.6777-0.31179-1.4008-0.62179-2.6271-0.93359-3.6777-0.15589-1.2258-0.31285-2.0131-0.46875-2.3633v-1.8398zm-1.8711 3.6777c0.15589 0 0.23437 0.08857 0.23437 0.26368 0.62359 1.9262 0.31164 3.1505-0.93555 3.6758-1.0913 0.52531-1.7152 0.70049-1.8711 0.52539l-0.23242 0.78906 0.23242 1.0508c0.93539 0.52532 1.7928 1.0509 2.5723 1.5762 0.77949 0.35022 1.4034 0.78718 1.8711 1.3125 0.46769 0.35022 0.77965 0.61201 0.93555 0.78711-0.6236 0.35021-1.169 0.70057-1.6367 1.0508l-1.4024 1.0508v0.52539c-0.15589 0.52532-0.46784 1.1394-0.93554 1.8398-0.3118 0.70043-0.54723 1.0488-0.70313 1.0488-0.31179 0-0.93375-0.17323-1.8691-0.52344-0.77949-0.35021-1.2484-0.52539-1.4043-0.52539v-7.0918c0-0.17509-0.23347-0.61401-0.70117-1.3144-0.31179-0.70042-0.46679-1.226-0.46679-1.5762-0.1559-0.35021-0.31285-1.0509-0.46875-2.1016v-2.0996c0.31179 0 1.0907 0.08662 2.3379 0.26172h2.5723c0.3118 0 0.70223-0.08663 1.1699-0.26172 0.3118-0.17511 0.54528-0.26368 0.70118-0.26368zm-27.301 3.2168c0.19488-0.04377 0.33026 0.02216 0.40821 0.19727 0.31179 0.35021 0.31179 0.70057 0 1.0508-0.3118 0.35021-0.70027 0.35021-1.168 0-0.4677-0.17509-0.4677-0.43688 0-0.78711 0.3118-0.26266 0.56489-0.41716 0.75976-0.46094zm3.916 0.19727c0.77949 0 1.1699 0.52553 1.1699 1.5762 0 0.87553-0.39043 1.3144-1.1699 1.3144-0.4677 0-0.70117-0.43892-0.70117-1.3144 0-1.0506 0.23347-1.5762 0.70117-1.5762zm-100.32 7.3555c-0.6236 0-0.93555 0.26179-0.93555 0.78711 0.15589 0.35021 0.38937 0.52539 0.70117 0.52539 0.46769 0 0.77965-0.17518 0.93555-0.52539 0.15589-0.52532-0.077585-0.78711-0.70117-0.78711zm46.303 0.78711c-0.6236 0-0.93555 0.52553-0.93555 1.5762 0 0.87553 0.31195 1.3144 0.93555 1.3144 0.46769 0 0.70117-0.43892 0.70117-1.3144 0-1.0506-0.23348-1.5762-0.70117-1.5762zm47.002 3.9394v2.627c0.1559 0 0.31285-0.17518 0.46876-0.52539 0.31179-0.52532 0.54527-0.78711 0.70117-0.78711v-0.26367-0.26172c0.15589 0 0.23437-0.08858 0.23437-0.26367v-0.52539h-1.4043zm13.33 0v2.627l0.93555-1.3125-0.93555-1.3144zm4.6777 1.3144-2.1055 1.8379 0.93555-0.52539 1.1699-1.3125zm-16.838 14.971c-0.6236 0-0.93555 0.43892-0.93555 1.3144s0.31195 1.3125 0.93555 1.3125c0.62359 0 0.93554-0.43697 0.93554-1.3125s-0.31195-1.3144-0.93554-1.3144zm19.41 0c0.4677 0 0.70117 0.43892 0.70118 1.3144 0 0.87553-0.23348 1.3125-0.70118 1.3125-0.77949 0-1.1699-0.43697-1.1699-1.3125s0.39043-1.3144 1.1699-1.3144zm-111.08 1.3144c-0.62359 0-0.93555 0.43697-0.93555 1.3125s0.31196 1.3144 0.93555 1.3144c0.62359 0 0.93555-0.43892 0.93555-1.3144s-0.31195-1.3125-0.93555-1.3125zm77.402 2.627v2.625h1.1699c0-0.52532-0.15499-0.96229-0.46679-1.3125l-0.70313-1.3125z" fill="#6DA6B0" fill-rule="evenodd"/>
</svg>
