<?xml version="1.0" encoding="UTF-8"?>
<svg width="200" height="200" version="1.1" viewBox="0 0 52.917 52.917" xmlns="http://www.w3.org/2000/svg">
 <path transform="scale(.26458)" d="m99.908 0a99.908 99.908 0 0 0-99.908 99.908 99.908 99.908 0 0 0 37.453 77.98c0.23484-0.54734 0.64312-0.75714 1.2227-0.62695 0.6236 0 0.85707 0.52553 0.70117 1.5762-0.026503 0.17862-0.069353 0.3205-0.10938 0.46875a99.908 99.908 0 0 0 60.641 20.51 99.908 99.908 0 0 0 99.908-99.908 99.908 99.908 0 0 0-17.586-56.607c-0.31992-0.006159-1.0064-0.17754-2.0781-0.52148-0.93539-0.35021-1.5593-0.70057-1.8711-1.0508-0.3118 0-0.93375-0.43697-1.8691-1.3125-0.77949-0.87553-1.3269-1.4011-1.6387-1.5762l-0.4668-0.26172c-0.15589 0-0.31089 0.086626-0.4668 0.26172h-0.23437c-0.15589 0-0.46784 0.35035-0.93555 1.0508-0.46769 0.52532-0.77965 0.96229-0.93554 1.3125-0.3118 0-1.2477-0.086626-2.8066-0.26172-1.559-0.17509-2.6498-0.26367-3.2734-0.26367-0.1559 0-0.54633 0.17518-1.1699 0.52539-0.6236 0.17509-1.0121 0.35027-1.168 0.52539 0 0.17509-0.23543 0.43884-0.70313 0.78906-0.46769 0.35021-0.77769 0.612-0.93359 0.78711 0 0.17509-0.15696 0.26367-0.46875 0.26367h-0.70117l0.23437-3.416c-0.3118 0.35021-1.0142 1.0509-2.1055 2.1016-0.93539 0.87553-1.5593 1.4011-1.8711 1.5762-0.3118 0.52532-0.70027 1.3126-1.168 2.3633-0.3118 0.87553-0.46875 1.4896-0.46875 1.8398-0.77949-0.17509-2.1823-0.35027-4.209-0.52539-2.0267-0.17509-4.2084-0.35027-6.5469-0.52539-2.1826-0.35021-4.2878-0.61396-6.3144-0.78906-2.0267-0.17509-3.4295-0.26172-4.209-0.26172h-2.8066-4.6777c-1.559 0-3.0403 0.086625-4.4434 0.26172h-3.0391c0-0.35021-0.155-0.69861-0.4668-1.0488-0.3118-0.35021-0.46875-0.61396-0.46875-0.78906h-0.4668c-0.15589 0-0.31285-0.086626-0.46875-0.26172h-0.70117c-0.15589 0.17509-0.62284 0.43689-1.4023 0.78711-0.6236 0.35022-0.93555 0.61396-0.93555 0.78906-0.3118 0-1.0927 0.17518-2.3398 0.52539-0.6236 0.17509-1.169 0.26172-1.6367 0.26172-0.3118 0-1.1692-0.086626-2.5723-0.26172-1.4031-0.35021-2.2605-0.43879-2.5723-0.26367-0.3118-0.17509-1.0122-0.086514-2.1035 0.26367-0.93539 0.17509-1.4808 0.34832-1.6367 0.52344-0.77949 0.17509-2.4177 0.35027-4.9121 0.52539h-4.9102-1.8711c-0.77949-0.17509-1.7154-0.35027-2.8066-0.52539-0.93539-0.17509-1.8693-0.26172-2.8047-0.26172h-1.4043c-0.4677 0-1.5586 0.086626-3.2734 0.26172-1.7149 0.17509-2.7292 0.26367-3.041 0.26367h-2.5723c-1.2472-0.17509-2.5715-0.35027-3.9746-0.52539-1.2472-0.17509-2.495-0.35027-3.7422-0.52539-1.0913-0.17509-1.8702-0.26172-2.3379-0.26172-0.15589 0.35021-0.46785 0.87379-0.93555 1.5742-0.3118 0.52531-0.4668 0.87568-0.4668 1.0508l-0.23438 1.3145c-0.15589 0.17509-0.38937 0.52545-0.70117 1.0508-0.3118 0.35021-0.62375 0.52539-0.93555 0.52539-0.15589 0-0.46785-0.43892-0.93555-1.3145-0.4677-0.87553-0.77965-1.4877-0.93555-1.8379-0.3118-0.17509-0.77875-0.43884-1.4023-0.78906-0.4677-0.52532-0.85813-0.87568-1.1699-1.0508 0.3118-0.17509 0.85722-0.52349 1.6367-1.0488 0.93539-0.70042 1.7928-1.4011 2.5723-2.1016 0.93539-0.87553 1.7143-1.6648 2.3379-2.3652 0.7795-0.87553 1.3249-1.5743 1.6367-2.0996 0.15589 0 0.39132-0.52554 0.70312-1.5762 0.4677-1.0506 0.77965-2.0151 0.93555-2.8906v-0.52539-0.52539c0 0.1751-0.31195 0.43885-0.93555 0.78906-0.62359 0.17511-1.0925 0.26172-1.4043 0.26172-0.3118 0.17511-0.85723 0.70064-1.6367 1.5762-0.62359 0.87553-1.0905 1.2259-1.4023 1.0508-0.3118 0-0.9357-0.43697-1.8711-1.3125-0.77949-0.87553-1.2464-1.5762-1.4023-2.1016-0.15589 0-0.23438-0.088567-0.23438-0.26367v-0.52539c0-0.35021 0.078482-0.69862 0.23438-1.0488 0.15589-0.35021 0.23242-0.61396 0.23242-0.78906 0.15589 0 0.31285-0.26179 0.46875-0.78711 0.3118-0.70042 0.62375-1.1393 0.93555-1.3145 0.3118-0.70042 0.77875-1.226 1.4023-1.5762 0.15589-0.35021 0.54632-0.612 1.1699-0.78711 0.62359-0.17511 1.0121-0.35028 1.168-0.52539 0.15589 0 0.39132-0.35036 0.70312-1.0508 0.46769-0.70042 0.7777-1.226 0.93359-1.5762 0.15589-0.35021 0.39132-1.0509 0.70312-2.1016 0.4677-1.0506 0.77965-1.6628 0.93555-1.8379 0.15589-0.35021 0.62285-0.78914 1.4023-1.3145 0.77949-0.70042 1.3249-1.224 1.6367-1.5742h1.1699c0.6236-0.1751 1.0121-0.26367 1.168-0.26367l-0.4668 4.7285c0 0.1751 0.078482 0.26172 0.23438 0.26172h0.4668c0.15589 0.1751 0.31285 0.26367 0.46875 0.26367 0.3118-0.17511 1.0122-0.78921 2.1035-1.8398l2.1055-2.3633 9.8203 1.0508c0.15589 0 0.39132-0.17518 0.70312-0.52539 0.3118-0.35021 0.54527-0.52539 0.70117-0.52539 0.15589-0.1751 0.62285-0.35028 1.4023-0.52539 0.77949-0.17511 1.1699-0.35028 1.1699-0.52539 0.3118-0.1751 0.62375-0.61207 0.93555-1.3125 0.3118-0.70042 0.54527-1.1393 0.70117-1.3145 0-0.1751 0.23347-0.4369 0.70117-0.78711 0.15589-0.17511 0.38937-0.35028 0.70117-0.52539 0.15589 0 0.7798 0.086613 1.8711 0.26172 1.0913 0.1751 1.7937 0.26367 2.1055 0.26367 0.15589-0.17511 0.31089-0.43885 0.4668-0.78906 0.3118-0.70042 0.54527-1.0508 0.70117-1.0508 0.15589-0.17511 0.6248-0.17511 1.4043 0 0.77949 0 1.3249 0.17518 1.6367 0.52539 0 0.35021-0.07849 0.61396-0.23438 0.78906s-0.23437 0.35028-0.23437 0.52539c0 0.1751-0.07653 0.26172-0.23243 0.26172-0.15589 0-0.6248 0.17518-1.4043 0.52539-0.62359 0.35021-1.0121 0.52539-1.168 0.52539-0.3118 0-0.62375 0.17518-0.93555 0.52539-0.15589 0.35021-0.23438 0.61396-0.23438 0.78906v1.0508c0.15589 0 0.46785 0.17518 0.93555 0.52539 0.6236 0.1751 1.014 0.26172 1.1699 0.26172 0.15589-0.1751 0.54437-0.4369 1.168-0.78711 0.77949-0.35021 1.2484-0.52539 1.4043-0.52539h0.9336c0.46769-0.1751 0.85812-0.26367 1.1699-0.26367 0.93539 0.35021 1.5593 0.52539 1.8711 0.52539l0.93555 1.0508c0.46769 0.52532 0.85812 0.78711 1.1699 0.78711s0.77875-0.17322 1.4023-0.52344l1.4024-0.78906c0.15589 0 0.54632 0.088566 1.1699 0.26367 0.62359 0.1751 1.014 0.1751 1.1699 0 0.62359-0.35021 1.9479-0.87575 3.9746-1.5762 2.0267-0.87553 3.4295-1.4896 4.209-1.8398 0 0.35021 0.23348 0.78913 0.70118 1.3145 0.46769 0.35021 0.85812 0.52539 1.1699 0.52539s0.77875-0.17518 1.4023-0.52539c0.77949-0.52532 1.3249-0.78906 1.6367-0.78906 0.15589 0.1751 0.31285 0.26367 0.46875 0.26367h0.70117 1.1699c0.1559-0.17511 0.54438-0.35028 1.168-0.52539 0.7795-0.35021 1.2484-0.52539 1.4043-0.52539 0.15589 0.17511 0.38937 0.35028 0.70117 0.52539l0.70117 0.78711c0 0.17511-0.07848 0.70064-0.23437 1.5762v1.3145c0 0.17511 0.31195 0.78725 0.93555 1.8379h0.46875 0.70117c0.31177-0.35021 0.70222-0.61396 1.1699-0.78906 0.62359-0.35021 1.0121-0.52539 1.168-0.52539 0.3118-0.35021 0.62375-0.96236 0.93554-1.8379 0.4677-1.0506 0.85813-1.7514 1.1699-2.1016 0.15589 0 0.23437-0.086613 0.23437-0.26172s0.07653-0.35028 0.23242-0.52539l0.46875-0.52539c0.3118 0 0.77875 0.086613 1.4024 0.26172h1.4043c0.1559 0 0.38937-0.086614 0.70118-0.26172 0.31179-0.35021 0.46679-0.70057 0.46679-1.0508l4.209 0.36914a99.908 99.908 0 0 0-47.271-11.893zm16.857 10.145c0.0877 0 0.1701 0.02263 0.24805 0.066407l0.93555 1.5742-2.8066 1.0508v-0.52539-0.78711c0-0.17511 0.23543-0.43885 0.70312-0.78906 0.35077-0.39399 0.65685-0.58984 0.91992-0.58984zm34.857 5.0566c-0.1559 0-0.46785 0.17518-0.93555 0.52539-0.3118 0.17511-0.54527 0.35028-0.70117 0.52539-0.15589 0.52532-0.23438 0.96229-0.23438 1.3125-0.15589 0.52532-0.23242 1.1375-0.23242 1.8379v2.8906c0.15589-0.17511 0.38937-0.35028 0.70117-0.52539 0.4677-0.35021 0.77965-0.61396 0.93555-0.78906l0.93555-1.5762c0.31179-0.52532 0.54527-0.96229 0.70117-1.3125v-0.78711-0.78906c0-0.35021-0.39043-0.78718-1.1699-1.3125zm-5.1445 0.78711-1.1699 1.3145 0.93555 1.8379 0.23438-3.1523zm8.8789 0.8125-0.22656 0.76367v0.52539c0.15589 0 0.23437 0.086613 0.23437 0.26172 0.1559 0.52532 0.54633 1.3146 1.1699 2.3652 0.77949 1.0506 1.5584 2.1883 2.3379 3.4141 0.77949 1.0506 1.5584 2.1017 2.3379 3.1523 0.77949 0.87553 1.3249 1.4877 1.6367 1.8379 0.31179 0.35021 1.1692 0.70057 2.5723 1.0508 1.559 0.35021 2.4948 0.61396 2.8066 0.78906 0.1559 0 0.23438 0.26179 0.23438 0.78711 0.15589 0.35021 0.31089 0.612 0.46679 0.78711s0.31285 0.78921 0.46875 1.8398c0.3118 0.87553 0.54528 1.3125 0.70118 1.3125 0.31179 0.17511 0.62375 0.26367 0.93554 0.26367h1.168c0.3118 0 0.54723 0.086613 0.70313 0.26172h0.93554 1.168c0.54037 0.12139 1.1614 0.10762 1.8516-0.023438a99.908 99.908 0 0 0-10.488-10.875l-0.71679-0.13281 0.33008-0.21094a99.908 99.908 0 0 0-10.627-8.1699zm-36.707 0.50195v1.8379l1.4043-1.5762-1.4043-0.26172zm-27.871 0.22461c-0.61385-0.019152-0.98859 0.4303-1.125 1.3496 0 0.87553 0.38848 1.4011 1.168 1.5762 0.62359 0 0.93555-0.43697 0.93555-1.3125 0.15589-1.0506-0.077582-1.5762-0.70117-1.5762-0.097437-0.021888-0.18965-0.034373-0.27734-0.037109zm11.035 2.4004c0 0.35021-0.07848 0.78914-0.23437 1.3145v1.0508 1.8379l1.4023 3.1523c0.15589-0.35021 0.31284-0.61396 0.46875-0.78906l0.70117-0.78711v-0.78906l0.23438-0.52344c-0.15589-0.1751-0.38937-0.52546-0.70117-1.0508-0.3118-0.70042-0.39028-1.226-0.23438-1.5762 0-0.1751-0.23347-0.43885-0.70117-0.78906l-0.93555-1.0508zm-4.6777 1.0508c-0.46769 0.35021-1.2466 0.78913-2.3379 1.3145-1.0913 0.52532-1.6367 0.87568-1.6367 1.0508-0.46769 0.87553-0.70117 2.275-0.70117 4.2012 0.15589 1.9262 0.46589 2.8906 0.93359 2.8906 0.15589-0.35021 0.39132-1.0509 0.70312-2.1016 0.4677-1.2257 0.85617-1.9265 1.168-2.1016 0.15589-0.35021 0.70132-0.52539 1.6367-0.52539 1.0913-0.1751 1.7937-0.35028 2.1055-0.52539v-0.52539l0.23438-0.52539v-0.26172c0-0.35021-0.15696-0.87575-0.46875-1.5762-0.15589-0.70043-0.31089-1.0508-0.4668-1.0508h-0.23438c-0.15589-1e-6 -0.31089-0.088567-0.4668-0.26367h-0.46875zm-31.102 6.8301-0.23438 1.5762h1.4043l0.23242-1.5762h-1.4023zm-27.594 12.344c0.77949 0.17509 1.0914 0.7892 0.93555 1.8398-0.15589 0.87553-0.54632 1.2259-1.1699 1.0508-0.62359 0-0.93555-0.43892-0.93555-1.3145 0.15589-1.0506 0.54632-1.5762 1.1699-1.5762zm11.225 0h0.93555 0.4668c0.3118 0.17509 1.0142 0.43884 2.1055 0.78906 1.0913 0.35021 1.7917 0.70057 2.1035 1.0508-0.3118 0.17509-0.85723 0.87581-1.6367 2.1016-0.77949 1.0506-1.3249 1.5762-1.6367 1.5762l-0.23242 0.78711v0.78711c0.15589 0.17509 0.38937 0.43884 0.70117 0.78906 0.3118 0.35021 0.38832 0.612 0.23242 0.78711 0.15589 0 0.6248 0.35036 1.4043 1.0508 0.77949 0.52532 1.2464 0.78906 1.4023 0.78906 0.3118 0 0.54527 0.26179 0.70117 0.78711 0.15589 0.35021 0.23438 0.61396 0.23438 0.78906-0.3118 0.35021-0.77875 0.96236-1.4023 1.8379-0.62359 0.87553-0.93555 1.4877-0.93555 1.8379v0.78906 0.52539c-0.15589 0.35021-0.15589 0.96236 0 1.8379 0.3118 0.87553 0.54527 1.3125 0.70117 1.3125 0.15589 0.17509 0.31089 0.26367 0.4668 0.26367h0.46875 1.6367l0.4668-0.52539 0.23438-0.26172c0-0.17509 0.078482-0.35027 0.23438-0.52539 0.3118-0.17509 0.54527-0.52545 0.70117-1.0508l0.70117-1.5762c0.3118 0.35021 0.70223 0.87575 1.1699 1.5762l1.4023 1.5762c0.3118 0.17509 0.93571 0.43688 1.8711 0.78711 0.93539 0.35021 1.5593 0.52539 1.8711 0.52539l-0.23438 0.26172-4.9102 2.3652-0.70117 0.26172v0.78906c0 0.17509 0.078482 0.26172 0.23438 0.26172 0 0.17509 0.155 0.52545 0.4668 1.0508 0.46769 0.35021 0.77965 0.52539 0.93555 0.52539 0 0.17509-0.23348 0.43688-0.70117 0.78711-0.46769 0.35021-0.77965 0.61395-0.93555 0.78906-0.15589 0.17509-0.85828 0.52545-2.1055 1.0508-1.0913 0.52532-1.6367 0.96229-1.6367 1.3125-0.15589-0.17509-0.31089 0.17526-0.4668 1.0508-0.15589 0.87553-0.23438 1.5762-0.23438 2.1016v1.8379c0 0.87553 0.078482 1.4896 0.23438 1.8398 0.15589-0.35021 0.70132-0.96431 1.6367-1.8398 1.0913-1.0506 1.7917-1.7494 2.1035-2.0996h1.4043c0.46769 0 0.85617 0.086626 1.168 0.26172 0.3118-0.17509 0.7807-0.61206 1.4043-1.3125 0.62359-0.70043 1.0905-1.0508 1.4023-1.0508 0.15589 0 0.31285-0.088579 0.46875-0.26367 0.15589-0.17509 0.31089-0.26172 0.4668-0.26172 0 0.70043-0.078482 2.1885-0.23438 4.4648-0.15589 2.2764-0.23242 3.7644-0.23242 4.4648 0 0.70042 0.076529 2.1019 0.23242 4.2031 0.15589 2.1013 0.23438 3.5893 0.23438 4.4648 0.15589 0.35021 0.23438 0.96236 0.23438 1.8379 0.15589 0.70043 0.38937 1.0508 0.70117 1.0508 0 0.17509 0.078482 0.26367 0.23438 0.26367h0.70117 0.70117c0.15589-0.35021 0.31285-0.78913 0.46875-1.3145 0.15589-0.35021 0.31089-0.612 0.4668-0.78711 0.15589-0.35021 0.23438-0.61396 0.23438-0.78906 0.15589 0 0.46784-0.26179 0.93555-0.78711l0.4668-0.52539c0.46769 0 1.1701-0.086626 2.1055-0.26172 1.0913-0.35021 1.7917-0.52539 2.1035-0.52539l0.46875 0.52539 0.70117 0.78711c0 0.35021 0.078482 0.87575 0.23438 1.5762 0.3118 0.70042 0.4668 1.226 0.4668 1.5762 0.3118-0.35021 0.9357-0.78913 1.8711-1.3145 1.0913-0.70042 1.7917-1.1374 2.1035-1.3125h0.46875c0.15589 0 0.23438 0.086626 0.23438 0.26172h0.23242 0.46875c0.15589 0 0.9348 0.35036 2.3379 1.0508 1.4031 0.52532 2.2605 0.87567 2.5723 1.0508h3.041c2.0267-0.17509 3.4295-0.35027 4.209-0.52539 0.3118-0.17509 1.0122-0.35027 2.1035-0.52539 1.0913-0.35021 1.7937-0.612 2.1055-0.78711h0.4668 0.93555l0.93554 0.26172c0.6236 0.35021 0.93555 0.87575 0.93555 1.5762v1.8398c0.15589 0.87553 0.23437 1.9246 0.23437 3.1504 0.1559 1.0506 0.23438 2.1017 0.23438 3.1523 0.15589 1.0506 0.31089 1.6647 0.4668 1.8398 0 0.1751 0.15695 0.43689 0.46875 0.78711 0.15589 0.1751 0.23242 0.35027 0.23242 0.52539 1.0913 1e-5 1.6367-0.35035 1.6367-1.0508 0-0.52532 0.15695-1.5764 0.46875-3.1523 0.31179-1.576 0.46679-2.5385 0.46679-2.8887 0.1559 0 0.23438 0.086626 0.23438 0.26172h0.46875c0.3118 0.17509 0.54527 0.70063 0.70117 1.5762 0.15589 0.87554 0.23242 1.4896 0.23242 1.8398-0.15589 0.52532-0.31089 1.663-0.46679 3.4141 0 1.7511-0.07849 2.8021-0.23438 3.1524 0.15589-0.17509 0.46785-0.52545 0.93555-1.0508 0.46769-0.70043 0.70117-1.226 0.70117-1.5762 0-0.1751 0.23543-0.78724 0.70312-1.8379 0.6236-1.0506 1.0121-1.6647 1.168-1.8398 0-0.35021 0.15696-0.87574 0.46875-1.5762 0.4677-0.87553 0.77965-1.4011 0.93555-1.5762 0-0.35021 0.07653-0.96236 0.23242-1.8379 0.1559-1.0506 0.23438-1.7513 0.23438-2.1016l0.70117 0.26367c0 0.35021 0.07848 1.4879 0.23437 3.4141 0.1559 1.7511 0.38937 2.9773 0.70118 3.6777 0.31179 0.87554 1.0907 2.275 2.3379 4.2012 1.4031 1.7511 2.4959 2.8021 3.2754 3.1524 0.3118 0 0.77875-0.08663 1.4023-0.26172s1.014-0.35027 1.1699-0.52539c0.1559-0.35021 0.46785-0.43879 0.93555-0.26367 0.46769 0.17509 0.62269 0.35027 0.4668 0.52539 0.46769-0.70043 1.5586-1.8381 3.2734-3.4141 1.7149-1.7511 2.9627-2.8021 3.7422-3.1523 0.15589-0.17509 0.38937-0.61206 0.70117-1.3125 0.3118-0.87554 0.46875-1.4011 0.46875-1.5762l0.70118-0.78906c0.15589-0.17509 0.38936-0.34832 0.70117-0.52344 0 0.35021 0.07848 1.3993 0.23437 3.1504 0.1559 1.576 0.38937 2.5404 0.70117 2.8906 0.1559 0.35021 0.3109 0.612 0.4668 0.7871v0.26368c0.15589 0 0.23438 0.08662 0.23438 0.26172 0 0.17509 0.07848 0.26171 0.23437 0.26171 0.3118-0.87553 0.77875-1.3125 1.4023-1.3125h0.46876 0.23242c0.15589-0.17509 0.39132-0.26171 0.70312-0.26171 0.15589 0 0.23242 0.08662 0.23242 0.26171h0.46875c0.1559 0.1751 0.3109 0.26368 0.4668 0.26368l1.4043 1.5742h0.46679 0.46875c0.3118-0.17509 0.54528-0.61206 0.70118-1.3125 0.31179-0.70042 0.46679-1.1374 0.46679-1.3125l2.8066 1.5742 7.9512-4.9902 0.23242-4.7266c0.15589 0 0.39132 0.086626 0.70312 0.26172s0.4668 0.35027 0.4668 0.52539c0.15589 0.35021 0.31285 0.87575 0.46875 1.5762 0.3118 0.52532 0.4668 0.96229 0.4668 1.3125 0.15589 0.35021 0.31089 1.5765 0.46679 3.6777 0.1559 1.9262 0.23438 3.0638 0.23438 3.4141 0.15589 0.35022 0.31285 0.96431 0.46875 1.8398 0.31179 0.70042 0.54527 1.1374 0.70117 1.3125l0.23438 0.26367h0.70117c0.15589 0 0.31089-0.08858 0.46679-0.26367 0.1559 0 0.54633-0.08663 1.1699-0.26172 0.62359-0.35021 1.0905-0.52539 1.4023-0.52539-0.15589 0-0.46784 0.35036-0.93555 1.0508-0.31179 0.70043-0.54527 1.1374-0.70117 1.3125-0.46769 0.70043-1.4036 1.6629-2.8066 2.8887-1.4031 1.2257-2.2605 1.9265-2.5723 2.1016-0.15589 0.17509-0.54437 0.35027-1.168 0.52539-0.6236 0-1.326 0.08857-2.1055 0.26367h-1.8711-1.168c-0.46769 0.17509-1.2486 0.61206-2.3398 1.3125-1.0913 0.52531-1.7132 0.96228-1.8691 1.3125-0.15589 0.17509-0.46785 0.78919-0.93555 1.8398-0.31179 0.87553-0.46875 1.4877-0.46875 1.8379-0.15589 0.35021-0.62284 1.0509-1.4023 2.1016-0.62359 1.0506-1.169 1.7514-1.6367 2.1016-0.15589 0.35021-0.54632 0.87574-1.1699 1.5762-0.6236 0.52532-1.0906 0.78711-1.4023 0.78711-0.1559 0-0.6248 0.17518-1.4043 0.52539-0.77949 0.35021-1.168 0.61396-1.168 0.78906-0.15589 0-0.6248 0.43697-1.4043 1.3125-0.62359 0.87553-1.0121 1.3125-1.168 1.3125-0.31179 0.17509-1.0142 0.35027-2.1055 0.52539-1.0913 0.17509-1.7152 0.35027-1.8711 0.52539-0.3118 0.1751-0.77875 0.43884-1.4023 0.78907-0.6236 0.35021-1.0925 0.43683-1.4043 0.26171-0.3118 0-0.77875-0.35035-1.4023-1.0508-0.46776-0.87549-0.77965-1.4877-0.93555-1.8379l-11.926-1.5762-1.4043-1.5762c-0.62359-0.87553-1.0906-1.3125-1.4023-1.3125l-0.4668-0.26367c-0.15589 0-0.31285 0.08858-0.46875 0.26367-0.3118 0-0.85723 0.61215-1.6367 1.8379-0.62359 1.0506-1.0906 1.7514-1.4023 2.1016h-1.1699c-0.1559 0-0.46785-0.08662-0.93555-0.26172-0.3118-0.17509-0.54527-0.26367-0.70117-0.26367-0.15589-0.17509-0.70133-0.70063-1.6367-1.5762-0.77949-0.87553-1.3249-1.4011-1.6367-1.5762h-0.23438c-0.15589 0-0.31285-0.08663-0.46875-0.26172-0.15589 0-0.23242 0.08662-0.23242 0.26172-0.15589 0-0.46785 0.17517-0.93555 0.52539-0.3118 0.17509-0.46875 0.35027-0.46875 0.52539-0.3118 0.17509-0.70027 0.70062-1.168 1.5762-0.3118 0.70042-0.46875 1.1394-0.46875 1.3144l-0.70117 0.26172c-0.15589 0-0.31089-0.08662-0.4668-0.26172 0-0.17509-0.078482-0.26367-0.23438-0.26367 0-0.70042-0.078482-1.9267-0.23438-3.6777-0.15589-1.9262-0.31089-3.0638-0.4668-3.4141-0.15589 0-0.38936-0.43697-0.70117-1.3125-0.15589-0.87553-0.23438-1.4011-0.23438-1.5762 0-0.35021 0.078482-0.70057 0.23438-1.0508 0.15589-0.52532 0.23242-0.96424 0.23242-1.3144-0.15589 0-0.38936-0.17323-0.70117-0.52344-0.3118-0.35021-0.54527-0.43879-0.70117-0.26367-0.3118 0.35021-0.85723 0.78718-1.6367 1.3125-0.62359 0.52532-1.014 0.96424-1.1699 1.3144-0.15589 0.52532-0.46784 1.8382-0.93555 3.9394-0.3118 1.9262-0.4668 3.239-0.4668 3.9395-0.3118-0.17509-1.0142-0.26172-2.1055-0.26172-0.93539 0-1.5593 0.08663-1.8711 0.26172-0.15589 0-0.46785 0.26374-0.93555 0.78906-0.4677 0.35021-0.77965 0.52539-0.93555 0.52539-0.15589 0-0.54437 0.26179-1.168 0.78711-0.4677 0.35021-0.85813 0.52539-1.1699 0.52539h-0.4668c-0.15589 0-0.31285-0.08662-0.46875-0.26172-0.15589 0-0.23242-0.08858-0.23242-0.26367-0.3118-0.35021-0.54723-1.0509-0.70312-2.1016 0-1.0506-0.076529-1.6628-0.23242-1.8379-0.3118 0-0.62375-0.08858-0.93555-0.26367h-0.93555c-0.15589-0.1751-0.31285-0.26172-0.46875-0.26172h-1.4023c-0.15589 0-0.54632 0.26179-1.1699 0.78711l-1.6367 1.8398-1.8711 1.5762c-0.62359 0.52532-1.0121 0.78711-1.168 0.78711-0.3118 0.35021-0.9357 0.87575-1.8711 1.5762-0.77949 0.52532-1.3249 0.78907-1.6367 0.78907-0.3118 0.17509-0.7807 0.17509-1.4043 0-0.62359-0.35022-1.0121-0.52539-1.168-0.52539l-0.70117 7.0918 4.4414 0.52539c0 0.52532-0.155 1.2241-0.4668 2.0996-0.15589 0.87553-0.31285 1.4896-0.46875 1.8398-0.3118 0.35021-0.77875 0.87574-1.4023 1.5762-0.62359 0.52531-1.0905 0.87567-1.4023 1.0508-0.15589 0.35021-0.38937 0.96236-0.70117 1.8379-0.3118 0.70042-0.54723 1.1374-0.70312 1.3125-0.15589 0.17509-0.23242 0.43884-0.23242 0.78906-0.15589 0.35022-0.23438 0.78718-0.23438 1.3125v2.1016c0.15589 0.52532 0.31089 0.96229 0.4668 1.3125l0.46875 1.0508v1.8398c0.15589 0.87553 0.23438 1.838 0.23438 2.8887 0.15589 1.0506 0.23242 2.1017 0.23242 3.1523 0.15589 0.87554 0.23438 1.4011 0.23438 1.5762l3.7422-2.1016-0.70312 11.031c-0.15589 0.1751-0.38937 0.43884-0.70117 0.78907-0.3118 0.17509-0.4668 0.43688-0.4668 0.78711-0.3118 0.35021-0.70223 1.4879-1.1699 3.4141-0.4677 1.7511-0.77965 2.8887-0.93555 3.4141-0.15589 0-0.31089-0.08662-0.4668-0.26172h-0.70117c-0.15589-0.17509-0.54632-0.52545-1.1699-1.0508-0.62359-0.52532-1.014-0.78711-1.1699-0.78711-0.15589 0-0.38937-0.35035-0.70117-1.0508-0.3118-0.87553-0.62375-1.4011-0.93555-1.5762-0.3118 0-0.77875 0.43697-1.4023 1.3125-0.46769 0.70042-0.77965 1.0508-0.93555 1.0508l-0.46875 0.52539-0.70117 0.78906c-0.15589 0.1751-0.46784 0.61207-0.93555 1.3125l-0.70117 1.5762v-1.3144c-0.15589 0-0.54632-0.17322-1.1699-0.52344-0.4677-0.17509-1.0897-0.43883-1.8691-0.78906-0.62359-0.52532-1.2475-0.96228-1.8711-1.3125-0.62359-0.35021-1.014-0.52539-1.1699-0.52539-0.46769-0.35021-1.0916-1.0509-1.8711-2.1016-0.77949-1.2258-1.2464-2.1016-1.4023-2.627-0.15589-0.52532-0.38937-1.4878-0.70117-2.8887-0.15589-1.4008-0.23438-2.2767-0.23438-2.627 0.15589-0.35021 0.62284-1.3127 1.4023-2.8887 0.93539-1.576 1.4043-2.5404 1.4043-2.8906 0-0.17509-0.078482-1.2242-0.23438-3.1504-0.15589-1.9262-0.31089-2.9772-0.4668-3.1523 0-0.52532-0.078482-1.8382-0.23438-3.9394-0.15589-2.2764-0.23438-3.853-0.23438-4.7285v-2.1016c0.15589-1.2258 0.31284-2.0131 0.46875-2.3633 0-0.1751-0.31195-0.35027-0.93555-0.52539-0.62359-0.1751-1.0925-0.43884-1.4043-0.78907-0.3118-0.35021-0.54527-0.87574-0.70117-1.5762 0-0.87553-0.078482-1.4877-0.23438-1.8379-0.15589-0.35021-0.23242-1.7516-0.23242-4.2031 0-2.4515-0.078484-3.851-0.23438-4.2012-0.15589 0-0.38937-0.17517-0.70117-0.52539-0.15589-0.52532-0.31284-0.96424-0.46875-1.3144-0.15589 0-0.31089-0.35036-0.4668-1.0508-0.1559-0.87553-0.31285-1.4877-0.46875-1.8379 0-0.17509-0.23348-0.35027-0.70117-0.52539-0.31179-0.35022-0.4668-0.61396-0.4668-0.78906h-0.46875-0.4668c-0.1559 0-0.23438-0.08663-0.23438-0.26172-0.3118 0.17509-0.85723 0.43688-1.6367 0.78711-0.62359 0.35021-1.014 0.43879-1.1699 0.26367-0.1559 0-0.38937-0.08858-0.70117-0.26367-0.3118-0.35021-0.39027-0.69862-0.23438-1.0488l1.4043-18.125c0-0.35022 0.54543-1.5745 1.6367-3.6758 1.0913-2.1013 2.0271-3.5913 2.8066-4.4668 0.1559-0.35022 0.54438-0.78718 1.168-1.3125 0.77949-0.70042 1.2484-1.1374 1.4043-1.3125l0.23242-0.52539v-0.78906c0-0.35021-0.155-0.96236-0.4668-1.8379-0.3118-1.0506-0.4668-1.7514-0.4668-2.1016 0-0.70042-0.39043-1.7515-1.1699-3.1523-0.62359-1.576-0.93555-2.5385-0.93555-2.8887 0.1559-0.35021 0.077421-1.4013-0.23438-3.1523-0.1559-1.9262-0.23242-3.3276-0.23242-4.2031v-1.3125c0.1559-0.87553 0.23242-1.4877 0.23242-1.8379 0-0.35021-0.076524-1.2261-0.23242-2.627-0.1559-1.576-0.31285-3.2392-0.46875-4.9902-0.1559-1.7511-0.3109-3.3277-0.4668-4.7285v-3.1523-1.5762c0.1559-1.0506 0.23242-1.7514 0.23242-2.1016v-0.78711c0.1559-0.35021 0.23438-0.70057 0.23438-1.0508v-1.0508l2.3379-2.627c1.2472-1.4008 2.183-2.2767 2.8066-2.627h0.46875 0.23242c0-0.17509 0.078482-0.26172 0.23438-0.26172l0.4668 0.26172h0.23438c0.3118 0.17509 0.85723 0.70063 1.6367 1.5762 0.93539 0.70042 1.5593 1.226 1.8711 1.5762 0.15589-0.35021 0.7798-1.1375 1.8711-2.3633 1.2472-1.4009 2.0261-2.3634 2.3379-2.8887 0.3118-0.35021 0.54527-0.96431 0.70117-1.8398 0.3118-1.0506 0.46875-1.7514 0.46875-2.1016zm10.758 39.137 1.4023 1.8398v-1.5762l-1.4023-0.26367zm55.666 8.6309c0.07065 0.002736 0.14471 0.015221 0.22266 0.037109 0.77949 0 1.0914 0.52553 0.93555 1.5762 0 1.0506-0.39044 1.5762-1.1699 1.5762-0.62359-0.17509-0.93554-0.78919-0.93554-1.8398 0.1364-0.91931 0.45277-1.3688 0.94726-1.3496zm-18.719 3.4512v1.5762c0 0.17509 0.155 0.52545 0.4668 1.0508 0.3118 0.35021 0.54723 0.52539 0.70312 0.52539l1.4023-1.3125-1.1699-1.3145c-0.6236 0-1.0905-0.17518-1.4023-0.52539zm65.477 4.2031c0.46769 0.17509 0.62464 0.78724 0.46875 1.8379 0 0.87553-0.23348 1.2259-0.70118 1.0508-0.77949 0-1.1699-0.43696-1.1699-1.3125 0.1559-1.0506 0.62285-1.5762 1.4024-1.5762zm-64.541 1.8379-1.4043 1.5762 1.1699 0.26367 0.23438-1.8398zm-60.734 0.75586c-0.37513 8e-6 -0.63117 0.53686-0.76758 1.6094-0.15589 1.0506 0.077586 1.4876 0.70117 1.3125 0.3118-0.17509 0.4668-0.61206 0.4668-1.3125 0.15589-0.70042 0.079364-1.226-0.23242-1.5762-0.058461-0.021887-0.11438-0.033204-0.16797-0.033203zm121.59 4.1699c0.11693 0 0.25426 0.02263 0.41016 0.06641 0.31179 0.17509 0.4668 0.43688 0.4668 0.78711 0 0.17509-0.15501 0.35027-0.4668 0.52539-0.6236 0-0.93555-0.26179-0.93555-0.78711 0-0.39399 0.17462-0.5918 0.52539-0.5918zm-12.451 2.4297c-0.15589 0-0.38937 0.08662-0.70117 0.26172h-0.46875c-0.15589 0.17509-0.46785 0.43883-0.93555 0.78906-0.3118 0.17509-0.4668 0.35027-0.4668 0.52539-0.31179 0.35021-0.46875 0.87575-0.46874 1.5762v1.0508l2.8066 0.26172 0.23437-4.4648zm-33.908 2.8887-1.6367 2.3652h1.4023l0.23438-2.3652zm28.311 1.002c-0.20461 0.03284-0.36549 0.31258-0.48242 0.83789 0 0.52532 0.155 0.78711 0.4668 0.78711 0.46769 0 0.70312-0.17518 0.70312-0.52539 0.1559-0.35021-0.00106-0.70057-0.46875-1.0508-0.07794-0.04377-0.15054-0.05977-0.21875-0.04883zm-39.111 0.53711c-0.61385-0.01914-0.98859 0.43031-1.125 1.3496 0 0.87553 0.38848 1.4011 1.168 1.5762 0.62359 0 0.93554-0.43696 0.93554-1.3125 0.15589-1.0506-0.07758-1.5762-0.70117-1.5762-0.09744-0.02188-0.18965-0.03437-0.27734-0.03711zm36.758 2.1387c-0.7795 0-1.2464 0.52554-1.4023 1.5762 0 1.0506 0.38847 1.5762 1.168 1.5762 0.77949 0.17509 1.1699-0.26383 1.1699-1.3144 0.15589-1.0506-0.15607-1.6628-0.93555-1.8379zm-4.209 1.0508c-0.46769 0-0.77964 0.52553-0.93554 1.5762 0 1.0506 0.23347 1.5762 0.70117 1.5762 0.77949 0 1.1699-0.43892 1.1699-1.3144 0.15589-1.0506-0.15606-1.6628-0.93555-1.8379zm-57.76 1.3125v1.3144h1.168v-1.3144h-1.168zm51.445 0-1.168 1.0508 0.9336 1.3144 0.23437-2.3652zm-7.4824 3.416-0.23438 1.0488h1.1699l0.23242-1.0488h-1.168zm-45.484 0.13086c-0.1559 0-0.35013 0.04331-0.58398 0.13086-0.3118 0-0.54527 0.08663-0.70117 0.26172-0.3118 0-0.62375 0.17518-0.93555 0.52539-0.15589 0.17509-0.31284 0.26367-0.46875 0.26367l1.1699 1.8379c0.15589 0 0.38937-0.17518 0.70117-0.52539 0.3118-0.35021 0.46875-0.70057 0.46875-1.0508 0.15589 0 0.31089-0.17518 0.4668-0.52539 0.15589-0.35021 0.23438-0.612 0.23438-0.78711-0.077947-0.08755-0.19566-0.13086-0.35156-0.13086zm-42.15 0.45898c-0.11692 0.04378-0.21502 0.19633-0.29297 0.45899 0 0.52532 0.15695 0.87568 0.46875 1.0508 0.4677-0.17509 0.70117-0.43688 0.70117-0.78711 0.1559-0.35021 8.98e-4 -0.52539-0.4668-0.52539-0.1559-0.17511-0.29323-0.24104-0.41016-0.19727zm74.539 0.45899v0.78906c0.15589 0.35021 0.15589 0.612 0 0.78711 0 0.17509 0.155 0.43884 0.46679 0.78906 0.3118 0.1751 0.54723 0.35027 0.70313 0.52539l0.23242-2.8906h-1.4023zm28.412 0.39453c-0.23385 0-0.50657 0.04331-0.81836 0.13086-0.6236 0.17509-1.014 0.43884-1.1699 0.78906 0 0.35022-0.155 1.1375-0.46679 2.3633-0.3118 1.0506-0.54528 1.7514-0.70117 2.1016h2.3379c0.15589-0.1751 0.38937-0.35027 0.70117-0.52539 0.3118-0.1751 0.46875-0.35028 0.46875-0.5254 0-0.17509 0.07653-0.52544 0.23242-1.0508 0.15589-0.70042 0.23437-1.1374 0.23437-1.3125-0.15589 0-0.23437-0.08858-0.23437-0.26367v-0.78711-0.78906c-0.1559-0.08755-0.35014-0.13086-0.58398-0.13086zm-22.332 1.707c-0.62359 0-0.93554 0.43892-0.93554 1.3144 0 0.87554 0.31195 1.3125 0.93554 1.3125 0.6236 0.1751 0.93555-0.17526 0.93555-1.0508 0.15589-0.87553-0.15606-1.4011-0.93555-1.5762zm-60.332 13.658 1.168 3.9414 0.46875-3.6777-1.6367-0.26367zm-7.9512 0.50195c-0.54564 0.03831-1.0911 0.74605-1.6367 2.125-0.62359 1.576-0.62359 2.3633 0 2.3633 0.4677 0 0.85617-0.17322 1.168-0.52344 0.4677-0.52532 0.77965-1.0508 0.93555-1.5762 0.3118-0.52532 0.46875-1.0508 0.46875-1.5762s-0.23348-0.78906-0.70117-0.78906c-0.077949-0.02189-0.15642-0.02892-0.23438-0.02344zm0.93555 7.6406c-0.4677 0-0.70117 0.43893-0.70117 1.3145 0 0.70042 0.23348 1.0508 0.70117 1.0508 0.62359 0.17509 0.93555-0.08865 0.93555-0.78907 0-0.87553-0.31196-1.4011-0.93555-1.5762zm-9.3535 22.326c0.62359 0.1751 0.85707 0.7892 0.70117 1.8398 0 0.87553-0.31195 1.2259-0.93555 1.0508-0.77949 0-1.1699-0.43892-1.1699-1.3144 0.1559-1.0506 0.6248-1.5762 1.4043-1.5762zm25.957 15.76c0.46769 0 0.6227 0.17518 0.4668 0.52539 0 0.52532-0.155 0.78906-0.4668 0.78906-0.15589 0-0.39132-0.26374-0.70312-0.78906 0-0.35021 0.23543-0.52539 0.70312-0.52539zm-10.992 3.9394h1.4043l-0.46875 1.3145h-1.168l0.23242-1.3145z" fill="#FF7F11" fill-rule="evenodd"/>
</svg>
