<?xml version="1.0" encoding="UTF-8"?>
<svg width="500" height="500" version="1.1" viewBox="0 0 132.29 132.29" xmlns="http://www.w3.org/2000/svg">
 <path transform="scale(.26458)" d="m250.15 2.332a251.98 248.48 0 0 0-251.31 248.48 251.98 248.48 0 0 0 251.98 248.48 251.98 248.48 0 0 0 251.98-248.48 251.98 248.48 0 0 0-251.98-248.48 251.98 248.48 0 0 0-0.66211 0zm-9.7441 39.246h31.199v415.13h-40.797v-297.45h-88.314v-39.814c11.519 0 22.718-0.97599 33.598-2.9277 10.879-2.3421 20.638-6.4417 29.277-12.297 8.9594-5.8552 16.479-13.857 22.559-24.006 6.0796-10.149 10.239-23.031 12.479-38.645z" fill-opacity=".97571" stroke-width="2.3765"/>
</svg>
