<?xml version="1.0" encoding="UTF-8"?>
<svg width="500" height="500" version="1.1" viewBox="0 0 132.29 132.29" xmlns="http://www.w3.org/2000/svg">
 <path transform="scale(.26458)" d="m250.15 2.334a251.97 248.47 0 0 0-251.31 248.47 251.97 248.47 0 0 0 251.97 248.47 251.97 248.47 0 0 0 251.97-248.47 251.97 248.47 0 0 0-251.97-248.47 251.97 248.47 0 0 0-0.65821 0zm47.699 35.537c9.3616 0 17.216 0.45681 23.562 1.3672 6.3469 0.91037 12.774 2.549 19.279 4.916v52.164h-2.3809c-4.4428-2.7311-11.186-5.2814-20.23-7.6484-8.8856-2.5491-18.01-3.8223-27.371-3.8223-34.114 0-61.325 12.289-81.635 36.869-20.31 24.398-32.131 57.445-35.463 99.141 13.328-9.2858 26.417-16.295 39.27-21.029 13.011-4.916 28.007-7.375 44.984-7.375 15.074 1e-5 28.322 1.6387 39.746 4.916 11.583 3.0953 23.404 9.4692 35.463 19.119 13.963 11.107 24.436 25.126 31.418 42.059 7.1402 16.933 10.711 37.509 10.711 61.725 0 41.331-11.901 75.105-35.701 101.32-23.642 26.037-52.68 39.055-87.111 39.055-17.454 0-33.321-3.0946-47.602-9.2852-14.28-6.1905-26.894-15.385-37.842-27.584-13.646-15.112-24.199-35.142-31.656-60.086-7.2989-24.944-10.947-54.986-10.947-90.127 0-36.051 3.3319-68.006 9.9961-95.863 6.8228-27.858 17.613-52.62 32.369-74.287 13.963-20.575 31.972-36.596 54.027-48.066 22.055-11.653 47.759-17.48 77.113-17.48zm-51.17 199.37c-13.487 0-26.022 1.8214-37.605 5.4629-11.583 3.6415-23.484 9.2864-35.701 16.934-0.31733 4.0057-0.55616 7.9186-0.71484 11.742-0.15874 3.6415-0.23828 8.2854-0.23828 13.93 0 28.768 2.5397 51.526 7.6172 68.277 5.2361 16.569 12.376 29.678 21.42 39.328 7.2989 8.0113 15.153 13.93 23.562 17.754 8.5682 3.6415 17.851 5.4609 27.848 5.4609 23.007 0 41.096-8.0106 54.266-24.033 13.17-16.205 19.754-39.42 19.754-69.645 0-16.933-2.2213-30.952-6.6641-42.059-4.2841-11.107-11.424-20.758-21.42-28.951-7.2989-5.8264-15.392-9.65-24.277-11.471-8.8856-1.8208-18.167-2.7305-27.846-2.7305z" fill-opacity=".97571" stroke-width="2.3765"/>
</svg>
