<?xml version="1.0" encoding="UTF-8"?>
<svg width="500" height="500" version="1.1" viewBox="0 0 132.29 132.29" xmlns="http://www.w3.org/2000/svg">
 <path transform="scale(.26458)" d="m250.15 2.334a251.97 248.47 0 0 0-251.31 248.47 251.97 248.47 0 0 0 251.97 248.47 251.97 248.47 0 0 0 251.97-248.47 251.97 248.47 0 0 0-251.97-248.47 251.97 248.47 0 0 0-0.65821 0zm-14.602 26.914c39.483 0 70.432 10.29 92.846 30.873 22.414 20.397 33.619 48.12 33.619 83.166 0 15.762-1.8964 30.503-5.6895 44.225-3.6207 13.536-9.0516 26.424-16.293 38.662-6.7241 11.497-14.655 22.808-23.793 33.934-8.9655 11.126-19.913 23.456-32.844 36.992-18.448 19.47-37.501 38.385-57.156 56.742-19.655 18.172-38.017 35.047-55.086 50.623h207.15v47.562h-260.69v-58.133c18.103-16.689 36.207-33.378 54.311-50.066 18.276-16.689 35.258-33.284 50.947-49.787 33.103-34.49 55.776-61.841 68.018-82.053 12.241-20.397 18.361-42.37 18.361-65.92 0-21.51-6.6383-38.291-19.914-50.344-13.103-12.238-31.465-18.359-55.086-18.359-15.69 0-32.672 2.9686-50.947 8.9023-18.276 5.9338-36.121 15.019-53.535 27.258h-2.5859v-58.41c12.241-6.49 28.534-12.425 48.879-17.803 20.517-5.3775 40.345-8.0645 59.482-8.0645z" fill-opacity=".97571" stroke-width="2.3765"/>
</svg>
