<?xml version="1.0" encoding="UTF-8"?>
<svg width="500" height="500" version="1.1" viewBox="0 0 132.29 132.29" xmlns="http://www.w3.org/2000/svg">
 <path transform="scale(.26458)" d="m250.15 2.334a251.97 248.47 0 0 0-251.31 248.47 251.97 248.47 0 0 0 251.97 248.47 251.97 248.47 0 0 0 251.97-248.47 251.97 248.47 0 0 0-251.97-248.47 251.97 248.47 0 0 0-0.65821 0zm32.209 35.537h47.586v253.11h57.154v44.502h-57.154v116.54h-49.656v-116.54h-184.39v-63.973l186.46-233.64zm-2.0703 66.197-149.22 186.91h149.22v-186.91z" fill-opacity=".97571" stroke-width="2.3765"/>
</svg>
