<?xml version="1.0" encoding="UTF-8"?>
<svg width="500" height="500" version="1.1" viewBox="0 0 132.29 132.29" xmlns="http://www.w3.org/2000/svg">
 <path transform="scale(.26458)" d="m250.15 2.334a251.97 248.47 0 0 0-251.31 248.47 251.97 248.47 0 0 0 251.97 248.47 251.97 248.47 0 0 0 251.97-248.47 251.97 248.47 0 0 0-251.97-248.47 251.97 248.47 0 0 0-0.65821 0zm-11.498 26.914c18.793 0 35.344 1.8539 49.654 5.5625 14.31 3.7086 27.241 9.6419 38.793 17.801 12.414 8.9006 21.81 19.656 28.189 32.266 6.3793 12.609 9.5703 27.35 9.5703 44.225 0 22.993-7.5874 43.112-22.76 60.357-15 17.06-32.758 27.813-53.275 32.264v3.8945c8.2758 1.4834 17.76 4.6358 28.449 9.457 10.69 4.6357 19.741 10.477 27.154 17.523 8.2758 7.9735 15.087 17.986 20.432 30.039 5.3448 12.053 8.0176 27.629 8.0176 46.729 0 18.914-3.191 36.252-9.5703 52.014-6.3793 15.762-15.345 29.482-26.896 41.164-12.931 12.98-28.189 22.623-45.775 28.928-17.414 6.1192-36.552 9.1797-57.414 9.1797-21.379 0-42.412-2.7828-63.102-8.3457-20.69-5.3775-37.673-11.311-50.949-17.801v-58.133h3.8809c14.655 10.384 31.895 19.006 51.723 25.867s38.966 10.293 57.414 10.293c10.862 0 22.413-1.9478 34.654-5.8418 12.241-3.894 22.156-9.6415 29.742-17.244 7.931-8.1589 13.793-17.153 17.586-26.98 3.9655-9.8278 5.9473-22.252 5.9473-37.271 0-14.834-2.2399-27.072-6.7227-36.715-4.3103-9.8278-10.345-17.523-18.104-23.086-7.7586-5.7483-17.155-9.6439-28.189-11.684-11.034-2.2252-22.931-3.3359-35.689-3.3359h-23.277v-46.174h18.104c26.207 0 47.069-5.8394 62.586-17.521 15.69-11.868 23.535-29.114 23.535-51.736 0-10.013-1.9837-18.727-5.9492-26.145-3.9655-7.6026-9.4818-13.816-16.551-18.637-7.4138-4.8212-15.345-8.1574-23.793-10.012-8.4482-1.8543-18.017-2.7832-28.707-2.7832-16.379 0-33.792 3.1524-52.24 9.457-18.448 6.3046-35.863 15.206-52.242 26.703h-2.5859v-58.133c12.241-6.49 28.534-12.423 48.879-17.801 20.517-5.5629 40.345-8.3438 59.482-8.3438z" fill-opacity=".97571" stroke-width="2.3765"/>
</svg>
