<?xml version="1.0" encoding="UTF-8"?>
<svg width="500" height="500" version="1.1" viewBox="0 0 132.29 132.29" xmlns="http://www.w3.org/2000/svg">
 <path transform="scale(.26458)" d="m250.15 2.334a251.97 248.47 0 0 0-251.31 248.47 251.97 248.47 0 0 0 251.97 248.47 251.97 248.47 0 0 0 251.97-248.47 251.97 248.47 0 0 0-251.97-248.47 251.97 248.47 0 0 0-0.65821 0zm-109.26 43.096h231.72v48.674h-181.81v110.15c7.4138-0.74172 14.999-1.2991 22.758-1.6699s14.482-0.55664 20.172-0.55664c20.862 0 39.139 1.9478 54.828 5.8418 15.69 3.7086 30.086 10.385 43.189 20.027 13.793 10.199 24.482 23.364 32.068 39.496 7.5862 16.132 11.379 36.343 11.379 60.635 0 19.285-3.2745 37.736-9.8262 55.352-6.5517 17.616-15.517 32.449-26.896 44.502-12.414 12.98-27.241 22.995-44.482 30.041-17.069 6.8609-36.896 10.291-59.482 10.291-21.034 0-41.295-2.4112-60.777-7.2324-19.483-4.6357-35.946-10.291-49.395-16.967v-58.688h3.6191c14.138 9.6424 30.691 17.893 49.656 24.754 18.965 6.6754 37.586 10.014 55.861 10.014 12.241 0 24.052-1.8539 35.432-5.5625 11.552-3.7086 21.81-10.199 30.775-19.471 7.5862-7.9735 13.275-17.523 17.068-28.648 3.9655-11.126 5.9473-24.013 5.9473-38.662 0-14.278-2.3273-26.332-6.9824-36.16-4.4827-9.8278-10.776-17.707-18.879-23.641-8.9655-7.0463-19.913-11.961-32.844-14.742-12.759-2.9669-27.07-4.4512-42.932-4.4512-15.172 0-29.827 1.1127-43.965 3.3379-13.965 2.2252-26.035 4.4506-36.207 6.6758v-213.34z" fill-opacity=".97571" stroke-width="2.3765"/>
</svg>
